<svg width="62" height="63" viewBox="0 0 62 63" fill="none" xmlns="http://www.w3.org/2000/svg">
<path d="M60.5554 8.12074V60.2324C60.5554 61.6005 59.4479 62.708 58.0798 62.708H7.9747C6.60662 62.708 5.4991 61.6005 5.4991 60.2324V56.988C4.16363 56.988 2.95189 56.4408 2.07889 55.5678C1.19294 54.6949 0.658691 53.4766 0.658691 52.1411H5.4991V8.12074C5.4991 6.75265 6.60662 5.64514 7.9747 5.64514H58.0798C59.448 5.64514 60.5554 6.75265 60.5554 8.12074Z" fill="white"/>
<path d="M5.68927 56.4095C3.12819 56.4095 1.87813 53.3606 1.57324 51.8361L51.4229 51.3788C52.3643 55.1443 54.4943 56.2634 55.851 56.4095H56.4536C56.28 56.4312 56.0761 56.4337 55.851 56.4095H5.68927Z" fill="#38BFF2"/>
<path d="M16.182 24.8533C14.0227 24.8533 12.2661 26.6061 12.2661 28.7602C12.2661 30.915 14.0227 32.6679 16.182 32.6679C18.3362 32.6679 20.0889 30.915 20.0889 28.7602C20.0889 26.6061 18.3362 24.8533 16.182 24.8533Z" fill="#38BFF2"/>
<path d="M16.182 24.8533C14.0227 24.8533 12.2661 26.6061 12.2661 28.7602C12.2661 30.915 14.0227 32.6679 16.182 32.6679C18.3362 32.6679 20.0889 30.915 20.0889 28.7602C20.0889 26.6061 18.3362 24.8533 16.182 24.8533ZM16.182 31.3648C14.7413 31.3648 13.5691 30.1962 13.5691 28.7602C13.5691 27.3243 14.7413 26.1561 16.182 26.1561C17.6179 26.1561 18.786 27.3243 18.786 28.7602C18.786 30.1962 17.6179 31.3648 16.182 31.3648Z" fill="#1A2E35"/>
<path d="M27.7528 24.8533C25.5935 24.8533 23.8369 26.6061 23.8369 28.7602C23.8369 30.915 25.5935 32.6679 27.7528 32.6679C29.9073 32.6679 31.66 30.915 31.66 28.7602C31.6601 26.6061 29.9073 24.8533 27.7528 24.8533Z" fill="#38BFF2"/>
<path d="M27.7528 24.8533C25.5935 24.8533 23.8369 26.6061 23.8369 28.7602C23.8369 30.915 25.5935 32.6679 27.7528 32.6679C29.9073 32.6679 31.66 30.915 31.66 28.7602C31.6601 26.6061 29.9073 24.8533 27.7528 24.8533ZM27.7528 31.3648C26.3121 31.3648 25.1399 30.1962 25.1399 28.7602C25.1399 27.3243 26.3121 26.1561 27.7528 26.1561C29.1887 26.1561 30.3571 27.3243 30.3571 28.7602C30.3571 30.1962 29.1887 31.3648 27.7528 31.3648Z" fill="#1A2E35"/>
<path d="M39.3246 24.9315C37.1653 24.9315 35.4087 26.6843 35.4087 28.8385C35.4087 30.9933 37.1653 32.7461 39.3246 32.7461C41.4791 32.7461 43.2318 30.9933 43.2318 28.8385C43.2318 26.6843 41.4791 24.9315 39.3246 24.9315Z" fill="#38BFF2"/>
<path d="M39.3246 24.8533C37.1653 24.8533 35.4087 26.6061 35.4087 28.7602C35.4087 30.915 37.1653 32.6679 39.3246 32.6679C41.4791 32.6679 43.2318 30.915 43.2318 28.7602C43.2318 26.6061 41.4791 24.8533 39.3246 24.8533ZM39.3246 31.3648C37.8839 31.3648 36.7117 30.1962 36.7117 28.7602C36.7117 27.3243 37.8839 26.1561 39.3246 26.1561C40.7605 26.1561 41.9289 27.3243 41.9289 28.7602C41.9288 30.1962 40.7605 31.3648 39.3246 31.3648Z" fill="#1A2E35"/>
<path d="M50.8958 32.6679C53.0504 32.6679 54.8031 30.915 54.8031 28.7602C54.8031 26.6059 53.0503 24.8533 50.8958 24.8533C48.7366 24.8533 46.98 26.6061 46.98 28.7602C46.98 30.915 48.7366 32.6679 50.8958 32.6679Z" fill="#38BFF2"/>
<path d="M50.8958 32.6679C53.0504 32.6679 54.8031 30.915 54.8031 28.7602C54.8031 26.6059 53.0503 24.8533 50.8958 24.8533C48.7366 24.8533 46.98 26.6061 46.98 28.7602C46.98 30.915 48.7366 32.6679 50.8958 32.6679ZM50.8958 26.1563C52.3318 26.1563 53.5002 27.3244 53.5002 28.7604C53.5002 30.1963 52.3318 31.365 50.8958 31.365C49.4552 31.365 48.283 30.1963 48.283 28.7604C48.283 27.3243 49.4552 26.1563 50.8958 26.1563Z" fill="#1A2E35"/>
<path d="M16.182 35.8293C14.0227 35.8293 12.2661 37.5822 12.2661 39.737C12.2661 41.8913 14.0227 43.6439 16.182 43.6439C18.3362 43.6439 20.0889 41.8911 20.0889 39.737C20.0889 37.5822 18.3362 35.8293 16.182 35.8293Z" fill="#38BFF2"/>
<path d="M16.182 35.8293C14.0227 35.8293 12.2661 37.5822 12.2661 39.737C12.2661 41.8913 14.0227 43.6439 16.182 43.6439C18.3362 43.6439 20.0889 41.8911 20.0889 39.737C20.0889 37.5822 18.3362 35.8293 16.182 35.8293ZM16.182 42.3409C14.7413 42.3409 13.5691 41.1728 13.5691 39.7368C13.5691 38.3009 14.7413 37.1322 16.182 37.1322C17.6179 37.1322 18.786 38.3009 18.786 39.7368C18.786 41.1728 17.6179 42.3409 16.182 42.3409Z" fill="#1A2E35"/>
<path d="M27.7528 35.8293C25.5935 35.8293 23.8369 37.5822 23.8369 39.737C23.8369 41.8913 25.5935 43.6439 27.7528 43.6439C29.9073 43.6439 31.66 41.8911 31.66 39.737C31.6601 37.5822 29.9073 35.8293 27.7528 35.8293Z" fill="#38BFF2"/>
<path d="M27.7528 35.8293C25.5935 35.8293 23.8369 37.5822 23.8369 39.737C23.8369 41.8913 25.5935 43.6439 27.7528 43.6439C29.9073 43.6439 31.66 41.8911 31.66 39.737C31.6601 37.5822 29.9073 35.8293 27.7528 35.8293ZM27.7528 42.3409C26.3121 42.3409 25.1399 41.1728 25.1399 39.7368C25.1399 38.3009 26.3121 37.1322 27.7528 37.1322C29.1887 37.1322 30.3571 38.3009 30.3571 39.7368C30.3571 41.1728 29.1887 42.3409 27.7528 42.3409Z" fill="#1A2E35"/>
<path d="M39.3245 35.8293C37.1653 35.8293 35.4087 37.5822 35.4087 39.737C35.4087 41.8913 37.1653 43.6439 39.3245 43.6439C41.4791 43.6439 43.2318 41.8911 43.2318 39.737C43.2318 37.5822 41.4791 35.8293 39.3245 35.8293ZM39.3245 42.3409C37.8839 42.3409 36.7117 41.1728 36.7117 39.7368C36.7117 38.3009 37.8839 37.1322 39.3245 37.1322C40.7605 37.1322 41.9289 38.3009 41.9289 39.7368C41.9289 41.1728 40.7605 42.3409 39.3245 42.3409Z" fill="#1A2E35"/>
<path d="M54.8031 39.737C54.8031 37.5822 53.0503 35.8293 50.8958 35.8293C48.7366 35.8293 46.98 37.5822 46.98 39.737C46.98 41.8913 48.7366 43.6439 50.8958 43.6439C53.0504 43.6439 54.8031 41.8911 54.8031 39.737ZM50.8958 42.3409C49.4552 42.3409 48.283 41.1728 48.283 39.7368C48.283 38.3009 49.4552 37.1322 50.8958 37.1322C52.3318 37.1322 53.5002 38.3009 53.5002 39.7368C53.5002 41.1728 52.3318 42.3409 50.8958 42.3409Z" fill="#1A2E35"/>
<path d="M58.5862 4.43102H53.3575V0.906441C53.3575 0.546374 53.0659 0.255005 52.7061 0.255005C52.3463 0.255005 52.0547 0.546374 52.0547 0.906441V4.43102H13.4587V0.906441C13.4587 0.546374 13.1671 0.255005 12.8073 0.255005C12.4475 0.255005 12.1558 0.546374 12.1558 0.906441V4.43102H8.48272C6.75861 4.43102 5.3561 5.83381 5.3561 7.55806C5.35583 13.2883 5.35415 50.6848 5.35415 50.9291H1.16364C0.803855 50.9291 0.512207 51.2204 0.512207 51.5805C0.512207 54.4732 2.69629 56.7191 5.35401 57.0329V59.6699C5.35401 61.394 6.7568 62.7969 8.48105 62.7969H58.5863C60.3104 62.7969 61.7133 61.3941 61.7133 59.6699C61.7133 48.1802 61.7133 18.4647 61.7133 7.55806C61.7132 5.83381 60.3104 4.43102 58.5862 4.43102ZM8.48258 5.73403H12.1557V10.9039C12.1557 11.2639 12.4474 11.5553 12.8071 11.5553C13.1669 11.5553 13.4586 11.2639 13.4586 10.9039V5.73403H52.0545V10.9039C52.0545 11.2639 52.3462 11.5553 52.706 11.5553C53.0657 11.5553 53.3574 11.2639 53.3574 10.9039V5.73403H58.586C59.5918 5.73403 60.41 6.55227 60.41 7.55806V16.0731H6.65884V7.55792C6.65884 6.55213 7.47707 5.73403 8.48258 5.73403ZM6.65703 17.3766H60.4103V51.5786C60.4103 53.891 58.5324 55.7723 56.2237 55.7735C56.2216 55.7735 56.2201 55.7724 56.218 55.7724C53.9031 55.7724 52.026 53.8963 52.026 51.5804C52.026 51.2203 51.7343 50.9289 51.3745 50.9289H6.65703V17.3766ZM1.86469 52.2319H50.7611C50.9243 53.6194 51.6051 54.8707 52.666 55.7724H6.0074C3.89786 55.7724 2.16985 54.2184 1.86469 52.2319ZM60.4102 59.6699C60.4102 60.6757 59.592 61.4939 58.5862 61.4939H8.48105C7.47526 61.4939 6.65703 60.6758 6.65703 59.6699V57.0767H56.2212C57.8995 57.0767 59.4022 56.3172 60.4103 55.1258V59.6699H60.4102Z" fill="#1A2E35"/>
</svg>
