<svg width="52" height="60" viewBox="0 0 52 60" fill="none" xmlns="http://www.w3.org/2000/svg">
<path d="M35.2662 4.02055V55.9793C35.2662 57.6874 33.8815 59.0721 32.1734 59.0721H4.2476C2.53947 59.0721 1.15479 57.6874 1.15479 55.9793V4.02055C1.15479 2.31242 2.53947 0.927734 4.2476 0.927734H32.1734C33.8815 0.927852 35.2662 2.31254 35.2662 4.02055Z" fill="white"/>
<path d="M26.8146 0.927856V3.39711C26.8146 4.76364 25.7068 5.8713 24.3404 5.8713H12.0806C10.7141 5.8713 9.60645 4.76352 9.60645 3.39711V0.927856H26.8146Z" fill="#38BFF2"/>
<path d="M50.845 20.7649V40.4721C50.845 41.8387 49.7373 42.9463 48.3709 42.9463H18.21V18.2906H48.3707C49.7373 18.2906 50.845 19.3984 50.845 20.7649Z" fill="#38BFF2"/>
<path d="M18.21 23.3474H50.845V29.4781H18.21V23.3474Z" fill="#D7E9FF"/>
<path d="M10.056 54.7422C9.71441 54.7422 9.4375 55.0189 9.4375 55.3607C9.4375 55.7027 9.71441 55.9792 10.056 55.9792H26.3654C26.707 55.9792 26.9839 55.7025 26.9839 55.3607C26.9839 55.0187 26.707 54.7422 26.3654 54.7422H10.056Z" fill="#1A2E35"/>
<path d="M22.6971 4.01816H23.8016C24.1432 4.01816 24.4201 3.74148 24.4201 3.39964C24.4201 3.05781 24.1432 2.78113 23.8016 2.78113H22.6971C22.3555 2.78113 22.0786 3.05781 22.0786 3.39964C22.0786 3.74148 22.3555 4.01816 22.6971 4.01816Z" fill="#1A2E35"/>
<path d="M12.6195 4.01816H19.7982C20.1398 4.01816 20.4167 3.74148 20.4167 3.39964C20.4167 3.05781 20.1398 2.78113 19.7982 2.78113H12.6195C12.2779 2.78113 12.001 3.05781 12.001 3.39964C12.001 3.74148 12.2779 4.01816 12.6195 4.01816Z" fill="#1A2E35"/>
<path d="M48.3708 17.6723H35.8849V4.02053C35.8849 1.97397 34.2202 0.309204 32.1736 0.309204C26.0917 0.309204 10.3337 0.309204 4.24795 0.309204C2.20139 0.309204 0.536621 1.97397 0.536621 4.02053V55.9792C0.536621 58.0258 2.20139 59.6906 4.24795 59.6906H32.1735C34.2201 59.6906 35.8848 58.0258 35.8848 55.9792V43.5647H48.3707C50.076 43.5647 51.4635 42.1772 51.4635 40.4719C51.4635 33.2803 51.4635 27.8474 51.4635 20.7651C51.4636 19.0598 50.076 17.6723 48.3708 17.6723ZM50.2265 20.7651V22.7289H18.8286V18.9094H48.3708C49.3941 18.9094 50.2265 19.7418 50.2265 20.7651ZM50.2265 28.8595H18.8286V23.966H50.2265V28.8595ZM26.1961 1.54635V3.39721C26.1961 4.42049 25.3637 5.25288 24.3404 5.25288H12.0808C11.0575 5.25288 10.2251 4.42049 10.2251 3.39721V1.54635H26.1961ZM34.6478 55.9794C34.6478 57.3439 33.5378 58.4535 32.1736 58.4535H4.24783C2.88353 58.4535 1.77365 57.3439 1.77365 55.9794V4.02053C1.77365 2.656 2.88365 1.54635 4.24783 1.54635H8.98783V3.39721C8.98783 5.10252 10.3753 6.49002 12.0806 6.49002H24.3403C26.0456 6.49002 27.4331 5.10252 27.4331 3.39721V1.54635H32.1735C33.5378 1.54635 34.6477 2.656 34.6477 4.02053V17.6723H18.8285V14.8822C18.8285 14.5402 18.5516 14.2637 18.21 14.2637C17.8684 14.2637 17.5915 14.5403 17.5915 14.8822V46.3482C17.5915 46.6901 17.8684 46.9667 18.21 46.9667C18.5516 46.9667 18.8285 46.69 18.8285 46.3482V43.5646H34.6477V55.9794H34.6478ZM48.3708 42.3276H18.8286V34.7671H39.2788C39.6204 34.7671 39.8973 34.4905 39.8973 34.1486C39.8973 33.8067 39.6204 33.5301 39.2788 33.5301H18.8286V30.0966H50.2265V40.4719C50.2265 41.4952 49.3941 42.3276 48.3708 42.3276Z" fill="#1A2E35"/>
<path d="M39.2787 37.657H37.5067C37.1651 37.657 36.8882 37.9337 36.8882 38.2755C36.8882 38.6175 37.1651 38.894 37.5067 38.894H39.2787C39.6203 38.894 39.8972 38.6173 39.8972 38.2755C39.8972 37.9337 39.6203 37.657 39.2787 37.657Z" fill="#1A2E35"/>
<path d="M34.2133 37.657H32.4413C32.0997 37.657 31.8228 37.9337 31.8228 38.2755C31.8228 38.6175 32.0997 38.894 32.4413 38.894H34.2133C34.5549 38.894 34.8318 38.6173 34.8318 38.2755C34.8318 37.9337 34.5549 37.657 34.2133 37.657Z" fill="#1A2E35"/>
<path d="M29.1478 37.657H27.3758C27.0342 37.657 26.7573 37.9337 26.7573 38.2755C26.7573 38.6175 27.0342 38.894 27.3758 38.894H29.1478C29.4894 38.894 29.7663 38.6173 29.7663 38.2755C29.7665 37.9337 29.4894 37.657 29.1478 37.657Z" fill="#1A2E35"/>
<path d="M24.0829 37.657H22.3109C21.9693 37.657 21.6924 37.9337 21.6924 38.2755C21.6924 38.6175 21.9693 38.894 22.3109 38.894H24.0829C24.4245 38.894 24.7014 38.6173 24.7014 38.2755C24.7015 37.9337 24.4245 37.657 24.0829 37.657Z" fill="#1A2E35"/>
</svg>
