<svg width="91" height="81" viewBox="0 0 91 81" fill="none" xmlns="http://www.w3.org/2000/svg">
<path d="M89.593 39.7762C89.593 46.7491 83.9499 52.3921 76.9771 52.3921V27.1245C83.9501 27.1243 89.593 32.7854 89.593 39.7762Z" fill="white"/>
<path d="M73.7906 1.16992C72.0307 1.16992 70.604 2.5966 70.604 4.35652V75.1606C70.604 76.9205 72.0307 78.3472 73.7906 78.3472C75.5505 78.3472 76.9772 76.9205 76.9772 75.1606V4.35652C76.9772 2.5966 75.5505 1.16992 73.7906 1.16992Z" fill="white"/>
<path d="M70.6073 6.6543V72.8627C63.5179 60.0068 46.3304 52.4763 32.3936 51.7848V27.7325C46.3304 27.0408 63.5179 19.5105 70.6073 6.6543Z" fill="#38BFF2"/>
<path d="M32.3893 27.7289V51.791C32.3893 53.2169 31.2333 54.3729 29.8074 54.3729H9.79679C8.37083 54.3729 7.21484 53.2169 7.21484 51.791V27.7289C7.21484 26.303 8.37083 25.147 9.79679 25.147H29.8074C31.2333 25.1468 32.3893 26.303 32.3893 27.7289Z" fill="white"/>
<path d="M3.78069 30.8467H7.2147V48.6729H3.78069C2.46777 48.6729 1.40723 47.6125 1.40723 46.2994V33.2201C1.4074 31.9072 2.46777 30.8467 3.78069 30.8467Z" fill="#38BFF2"/>
<path d="M25.5083 22.6447V25.1429H14.1006V22.6447C14.1006 21.2759 15.2102 20.1665 16.5787 20.1665H23.0303C24.3989 20.1665 25.5083 21.2759 25.5083 22.6447Z" fill="white"/>
<path d="M18.3905 78.6098L25.8401 54.373H13.7632V78.1018C13.7632 79.0568 14.5374 79.831 15.4924 79.831H16.7377C17.4968 79.8308 18.1673 79.3357 18.3905 78.6098Z" fill="#38BFF2"/>
<path d="M90.5312 39.7765C90.5312 32.6006 84.951 26.7206 77.9157 26.2338V4.35595C77.9157 2.08202 76.0652 0.231445 73.7904 0.231445C71.5164 0.231445 69.6659 2.08202 69.6659 4.35595V6.40558C62.7632 18.6687 46.2956 25.8353 33.169 26.7423C32.739 25.2838 31.403 24.2091 29.8073 24.2091H26.4469V22.6443C26.4469 20.7607 24.9141 19.2279 23.0305 19.2279H16.5789C14.6953 19.2279 13.1625 20.7607 13.1625 22.6443V24.2091H9.79674C7.85624 24.2091 6.27689 25.7886 6.27689 27.7289V29.9085H3.78114C1.95528 29.9085 0.469238 31.3945 0.469238 33.2204V46.2995C0.469238 48.1253 1.95528 49.6105 3.78114 49.6105H6.27671V51.7909C6.27671 53.7314 7.85624 55.3108 9.79656 55.3108H12.8255V78.102C12.8255 79.5724 14.022 80.7689 15.4924 80.7689H16.7374C17.9165 80.7689 18.9408 80.0121 19.287 78.8853L26.5336 55.3108H29.8073C31.4039 55.3108 32.7408 54.2348 33.1697 52.7749C46.2961 53.682 62.7641 60.8488 69.6655 73.1105V75.1602C69.6655 77.4341 71.5161 79.2847 73.79 79.2847C76.0648 79.2847 77.9154 77.4341 77.9154 75.1602V53.2825C84.951 52.7971 90.5312 46.9329 90.5312 39.7765ZM15.0388 22.6443C15.0388 21.7951 15.7297 21.1042 16.5789 21.1042H23.0305C23.8797 21.1042 24.5706 21.7951 24.5706 22.6443V24.2044H15.0388V22.6443ZM3.78114 47.7341C2.98951 47.7341 2.34558 47.09 2.34558 46.2995V33.2204C2.34558 32.4287 2.98969 31.7848 3.78114 31.7848H6.27671V47.7341H3.78114ZM17.4933 78.3338V78.3347C17.3908 78.6681 17.0874 78.8926 16.7374 78.8926H15.4924C15.0563 78.8926 14.7019 78.538 14.7019 78.102V55.3108H24.5707L17.4933 78.3338ZM31.451 51.7909C31.451 52.697 30.7136 53.4345 29.8075 53.4345C22.7376 53.4345 16.8704 53.4345 9.79674 53.4345C8.89065 53.4345 8.15323 52.697 8.15323 51.7909C8.15323 45.7384 8.15323 33.7815 8.15323 27.7291C8.15323 26.823 8.89065 26.0856 9.79674 26.0856H29.8075C30.7136 26.0856 31.451 26.823 31.451 27.7291V51.7909ZM33.3318 50.9014V28.6158C46.0187 27.7254 61.7259 21.1664 69.6657 9.91815V69.598C61.727 58.3508 46.0188 51.7908 33.3318 50.9014ZM76.0394 75.1602C76.0394 76.3997 75.0308 77.4083 73.7902 77.4083C72.5507 77.4083 71.542 76.3997 71.542 75.1602C71.5466 -11.9203 71.542 10.7016 71.542 4.35595C71.542 3.11643 72.5507 2.10779 73.7902 2.10779C75.0306 2.10779 76.0394 3.11643 76.0394 4.35595V75.1602ZM77.9156 51.4163V28.1C83.9173 28.5801 88.6548 33.6336 88.6548 39.7765C88.6548 45.8999 83.9173 50.9371 77.9156 51.4163Z" fill="#1A2E35"/>
<path d="M28.033 28.8862H11.5714C11.0528 28.8862 10.6333 29.3059 10.6333 29.8243C10.6333 30.3428 11.0529 30.7624 11.5714 30.7624H28.033C28.5516 30.7624 28.971 30.3428 28.971 29.8243C28.971 29.3059 28.5514 28.8862 28.033 28.8862Z" fill="#1A2E35"/>
<path d="M28.033 33.8545H11.5714C11.0528 33.8545 10.6333 34.2741 10.6333 34.7926C10.6333 35.311 11.0529 35.7307 11.5714 35.7307H28.033C28.5516 35.7307 28.971 35.311 28.971 34.7926C28.971 34.2741 28.5514 33.8545 28.033 33.8545Z" fill="#1A2E35"/>
<path d="M28.033 38.8218H11.5714C11.0528 38.8218 10.6333 39.2414 10.6333 39.7599C10.6333 40.2783 11.0529 40.6979 11.5714 40.6979H28.033C28.5516 40.6979 28.971 40.2783 28.971 39.7599C28.971 39.2414 28.5514 38.8218 28.033 38.8218Z" fill="#1A2E35"/>
<path d="M28.033 43.7891H11.5714C11.0528 43.7891 10.6333 44.2087 10.6333 44.7271C10.6333 45.2458 11.0529 45.6652 11.5714 45.6652H28.033C28.5516 45.6652 28.971 45.2456 28.971 44.7271C28.971 44.2087 28.5514 43.7891 28.033 43.7891Z" fill="#1A2E35"/>
<path d="M28.033 48.7568H11.5714C11.0528 48.7568 10.6333 49.1765 10.6333 49.6949C10.6333 50.2136 11.0529 50.633 11.5714 50.633H28.033C28.5516 50.633 28.971 50.2134 28.971 49.6949C28.971 49.1763 28.5514 48.7568 28.033 48.7568Z" fill="#1A2E35"/>
</svg>
