<svg width="49" height="56" viewBox="0 0 49 56" fill="none" xmlns="http://www.w3.org/2000/svg">
<path d="M32.9932 3.4835V52.2523C32.9932 53.8556 31.6778 55.1553 30.0551 55.1553H3.52557C1.90285 55.1553 0.587402 53.8556 0.587402 52.2523V3.4835C0.587402 1.88024 1.90285 0.580566 3.52557 0.580566H30.0551C31.6778 0.580676 32.9932 1.88035 32.9932 3.4835Z" fill="white"/>
<path d="M24.964 0.581055V2.89881C24.964 4.18149 23.9116 5.22119 22.6135 5.22119H10.9667C9.66848 5.22119 8.61621 4.18138 8.61621 2.89881V0.581055H24.964Z" fill="#38BFF2"/>
<path d="M47.7933 19.2003V37.6973C47.7933 38.9799 46.741 40.0195 45.4429 40.0195H16.79V16.8779H45.4428C46.741 16.8779 47.7933 17.9177 47.7933 19.2003Z" fill="#38BFF2"/>
<path d="M16.79 21.624H47.7933V27.3779H16.79V21.624Z" fill="#D7E9FF"/>
<path d="M9.04316 51.0908C8.71864 51.0908 8.45557 51.3506 8.45557 51.6716C8.45557 51.9927 8.71864 52.2524 9.04316 52.2524H24.537C24.8616 52.2524 25.1246 51.9926 25.1246 51.6716C25.1246 51.3505 24.8616 51.0908 24.537 51.0908H9.04316Z" fill="#1A2E35"/>
<path d="M21.0524 3.48193H22.1017C22.4262 3.48193 22.6893 3.22212 22.6893 2.90112C22.6893 2.58013 22.4262 2.32031 22.1017 2.32031H21.0524C20.7279 2.32031 20.4648 2.58013 20.4648 2.90112C20.4648 3.22212 20.7279 3.48193 21.0524 3.48193Z" fill="#1A2E35"/>
<path d="M11.4787 3.48193H18.2985C18.623 3.48193 18.886 3.22212 18.886 2.90112C18.886 2.58013 18.623 2.32031 18.2985 2.32031H11.4787C11.1542 2.32031 10.8911 2.58013 10.8911 2.90112C10.8911 3.22212 11.1542 3.48193 11.4787 3.48193Z" fill="#1A2E35"/>
<path d="M45.4425 16.297H33.5809V3.48345C33.5809 1.56255 31.9994 0 30.0552 0C24.2773 0 9.30726 0 3.52576 0C1.58153 0 0 1.56255 0 3.48345V52.2519C0 54.1728 1.58153 55.7354 3.52576 55.7354H30.055C31.9993 55.7354 33.5808 54.1728 33.5808 52.2519V40.5997H45.4424C47.0624 40.5997 48.3806 39.2973 48.3806 37.6967C48.3806 30.9466 48.3806 25.8474 48.3806 19.1999C48.3807 17.5993 47.0624 16.297 45.4425 16.297ZM47.2054 19.1999V21.0432H17.3774V17.4582H45.4425C46.4146 17.4582 47.2054 18.2395 47.2054 19.1999ZM47.2054 26.7973H17.3774V22.2042H47.2054V26.7973ZM24.3765 1.16119V2.8984C24.3765 3.85886 23.5858 4.64013 22.6136 4.64013H10.9669C9.99482 4.64013 9.20406 3.85886 9.20406 2.8984V1.16119H24.3765ZM32.4056 52.252C32.4056 53.5328 31.3511 54.5743 30.0552 54.5743H3.52565C2.22957 54.5743 1.17518 53.5328 1.17518 52.252V3.48345C1.17518 2.2027 2.22968 1.16119 3.52565 1.16119H8.02866V2.8984C8.02866 4.49901 9.34678 5.80132 10.9668 5.80132H22.6135C24.2336 5.80132 25.5517 4.49901 25.5517 2.8984V1.16119H30.055C31.3511 1.16119 32.4055 2.2027 32.4055 3.48345V16.297H17.3773V13.6782C17.3773 13.3572 17.1143 13.0977 16.7897 13.0977C16.4652 13.0977 16.2021 13.3573 16.2021 13.6782V43.2122C16.2021 43.5331 16.4652 43.7927 16.7897 43.7927C17.1143 43.7927 17.3773 43.533 17.3773 43.2122V40.5995H32.4055V52.252H32.4056ZM45.4425 39.4385H17.3774V32.3422H36.8051C37.1296 32.3422 37.3927 32.0825 37.3927 31.7617C37.3927 31.4407 37.1296 31.1811 36.8051 31.1811H17.3774V27.9585H47.2054V37.6967C47.2054 38.6572 46.4146 39.4385 45.4425 39.4385Z" fill="#1A2E35"/>
<path d="M36.8051 35.0547H35.1218C34.7972 35.0547 34.5342 35.3145 34.5342 35.6355C34.5342 35.9566 34.7972 36.2163 35.1218 36.2163H36.8051C37.1296 36.2163 37.3927 35.9565 37.3927 35.6355C37.3927 35.3145 37.1296 35.0547 36.8051 35.0547Z" fill="#1A2E35"/>
<path d="M31.9932 35.0547H30.3098C29.9852 35.0547 29.7222 35.3145 29.7222 35.6355C29.7222 35.9566 29.9852 36.2163 30.3098 36.2163H31.9932C32.3177 36.2163 32.5807 35.9565 32.5807 35.6355C32.5807 35.3145 32.3177 35.0547 31.9932 35.0547Z" fill="#1A2E35"/>
<path d="M27.1811 35.0547H25.4977C25.1732 35.0547 24.9102 35.3145 24.9102 35.6355C24.9102 35.9566 25.1732 36.2163 25.4977 36.2163H27.1811C27.5056 36.2163 27.7687 35.9565 27.7687 35.6355C27.7688 35.3145 27.5056 35.0547 27.1811 35.0547Z" fill="#1A2E35"/>
<path d="M22.3686 35.0547H20.6852C20.3607 35.0547 20.0977 35.3145 20.0977 35.6355C20.0977 35.9566 20.3607 36.2163 20.6852 36.2163H22.3686C22.6932 36.2163 22.9562 35.9565 22.9562 35.6355C22.9563 35.3145 22.6932 35.0547 22.3686 35.0547Z" fill="#1A2E35"/>
</svg>
