<svg width="382" height="326" viewBox="0 0 382 326" fill="none" xmlns="http://www.w3.org/2000/svg">
<path d="M322.878 100.903C326.937 99.956 330.535 97.8219 333.29 94.8814L339.947 97.1325L343.268 91.3799L337.993 86.7454C338.574 84.8407 338.882 82.8237 338.882 80.7284C338.882 78.6387 338.574 76.6169 337.993 74.717L343.268 70.0768L339.947 64.3242L333.29 66.5754C330.535 63.6358 326.937 61.5017 322.878 60.5584L321.496 53.6726H318.176" stroke="#1A2E35" stroke-width="1.33333" stroke-miterlimit="10"/>
<path d="M314.855 53.6724L313.477 60.5581C309.419 61.5015 305.815 63.6346 303.061 66.5752L296.405 64.324L293.083 70.0766L298.357 74.7159C297.781 76.6158 297.469 78.6375 297.469 80.7281C297.469 82.8235 297.781 84.8396 298.357 86.7442L293.083 91.3797L296.405 97.1323L303.061 94.8811C305.815 97.8207 309.419 99.9548 313.477 100.903L314.855 107.789H321.496L322.879 100.903" stroke="#1A2E35" stroke-width="1.33333" stroke-miterlimit="10"/>
<path d="M317.756 91.8062C305.914 90.978 303.69 73.7372 315.526 70.7089" stroke="#1A2E35" stroke-width="1.33333" stroke-miterlimit="10"/>
<path d="M325.244 73.0802C331.136 78.4797 329.271 89.016 321.417 91.3956" stroke="#1A2E35" stroke-width="1.33333" stroke-miterlimit="10"/>
<path d="M319.525 70.4627C320.553 70.5911 321.56 70.8668 322.507 71.288" stroke="#1A2E35" stroke-width="1.33333" stroke-miterlimit="10"/>
<path d="M358.156 106.145L359.553 104.469C362.11 105.172 364.868 105.132 367.473 104.268L370.613 107.661" stroke="#1A2E35" stroke-width="1.33333" stroke-miterlimit="10"/>
<path d="M352.997 79.9617L353.604 81.6142C351.648 83.5387 350.358 85.9759 349.823 88.5736L345.31 89.5982L345.422 93.9702L349.981 94.7625C350.309 96.0269 350.829 97.2705 351.548 98.4433C352.269 99.6199 353.136 100.645 354.116 101.517L352.746 105.932L356.59 108.021" stroke="#1A2E35" stroke-width="1.33333" stroke-miterlimit="10"/>
<path d="M370.614 107.662L374.343 105.379L372.752 101.037C374.705 99.1095 375.992 96.6741 376.529 94.0764L381.04 93.0519L380.927 88.6798L376.373 87.8904C376.044 86.6213 375.523 85.3823 374.803 84.2067C374.085 83.032 373.217 82.0027 372.238 81.1359L373.604 76.7176L369.762 74.6288L366.798 78.1812C364.24 77.4777 361.485 77.5164 358.882 78.3823L355.739 74.9905L352.009 77.2738" stroke="#1A2E35" stroke-width="1.33333" stroke-miterlimit="10"/>
<path d="M370.06 89.717C371.349 95.1438 366.197 100.366 360.749 98.1618C355.554 96.0607 354.798 88.4422 359.618 85.514" stroke="#1A2E35" stroke-width="1.33333" stroke-miterlimit="10"/>
<path d="M365.603 84.8497C366.69 85.2198 367.684 85.8459 368.466 86.6901" stroke="#1A2E35" stroke-width="1.33333" stroke-miterlimit="10"/>
<path d="M66.3208 197.093L73.4124 204.186C72.8336 206.677 73.5068 209.401 75.4492 211.344C77.3916 213.285 80.114 213.958 82.606 213.38L78.1518 208.924L79.3586 204.419L83.8647 203.211L88.3189 207.666C88.8987 205.175 88.2254 202.45 86.284 200.508C84.3406 198.566 81.6173 197.893 79.1263 198.473L72.5946 191.941" stroke="#1A2E35" stroke-width="1.33333" stroke-miterlimit="10"/>
<path d="M62.2169 181.563L55.7079 175.053C56.2868 172.562 55.6135 169.839 53.672 167.896C51.7296 165.954 49.0063 165.282 46.5143 165.861L50.9685 170.316L49.7617 174.821L45.2556 176.029L40.8004 171.574C40.2225 174.066 40.8949 176.789 42.8373 178.731C44.7797 180.674 47.503 181.347 49.995 180.767L56.504 187.277" stroke="#1A2E35" stroke-width="1.33333" stroke-miterlimit="10"/>
<path d="M69.5252 188.411L78.6017 179.335C79.0474 178.888 79.5592 178.514 80.1201 178.224L81.9473 177.28L88.5205 169.768L84.4119 165.66L76.9 172.233L75.9558 174.061C75.6659 174.621 75.2919 175.132 74.8453 175.578L67.647 182.777" stroke="#1A2E35" stroke-width="1.33333" stroke-miterlimit="10"/>
<path d="M45.3711 212.216C46.6988 212.918 48.0642 212.924 49.3173 211.671L65.0454 195.943C65.9179 195.071 66.1738 194.143 66.0152 193.213L68.7423 190.485L68.9085 190.651C69.3013 191.043 69.9443 191.044 70.3362 190.652C70.729 190.259 70.729 189.616 70.3362 189.223L64.9566 183.843C64.5647 183.45 63.9217 183.45 63.5288 183.843C63.136 184.236 63.136 184.879 63.5288 185.272L63.695 185.438L60.9689 188.165C60.0369 188.007 59.1096 188.263 58.2371 189.136L42.509 204.864C41.6827 205.69 41.4042 206.567 41.5118 207.448" stroke="#1A2E35" stroke-width="1.33333" stroke-miterlimit="10"/>
<path d="M42.1399 209.116C42.4761 209.667 42.9265 210.21 43.4487 210.733C44.0681 211.351 44.7159 211.869 45.3712 212.216" stroke="#1A2E35" stroke-width="1.33333" stroke-miterlimit="10"/>
<path d="M46.9792 207.447L49.7243 204.702" stroke="#1A2E35" stroke-width="1.33333" stroke-miterlimit="10"/>
<path d="M53.4387 200.988L65.0497 189.129" stroke="#1A2E35" stroke-width="1.33333" stroke-miterlimit="10"/>
<path d="M306.868 0.428146H55.1167V163.983H306.868V0.428146Z" fill="white"/>
<path d="M306.868 0.427902H55.1172V163.982H81.7338H123.935H306.868V0.427902Z" fill="#C0C0C0"/>
<path d="M55.1177 21.8245H306.869V0.427858H55.1177V21.8245Z" fill="white"/>
<path d="M55.1177 21.8245H306.869V0.427858H55.1177V21.8245Z" fill="#767676"/>
<path d="M299.153 18.4161H289.514C288.15 18.4161 287.043 17.3104 287.043 15.9459V6.30659C287.043 4.94209 288.15 3.83633 289.514 3.83633H299.153C300.518 3.83633 301.623 4.94209 301.623 6.30659V15.9459C301.623 17.3104 300.518 18.4161 299.153 18.4161Z" fill="white"/>
<path d="M281.262 18.4161H271.67C270.293 18.4161 269.176 17.299 269.176 15.9213V6.3302C269.176 4.95248 270.293 3.83633 271.67 3.83633H281.262C282.64 3.83633 283.757 4.95248 283.757 6.3302V15.9213C283.757 17.299 282.64 18.4161 281.262 18.4161Z" fill="white"/>
<path d="M263.417 18.4161H253.78C252.415 18.4161 251.309 17.3104 251.309 15.9449V6.30753C251.309 4.94209 252.415 3.83633 253.78 3.83633H263.417C264.782 3.83633 265.888 4.94209 265.888 6.30753V15.9449C265.888 17.3104 264.782 18.4161 263.417 18.4161Z" fill="white"/>
<path d="M64.5608 36.1931V149.614C64.5608 152.335 66.7657 154.54 69.4853 154.54H292.501C295.22 154.54 297.426 152.335 297.426 149.614V36.1931C297.426 33.4736 295.22 31.2677 292.501 31.2677H69.4853C66.7657 31.2677 64.5608 33.4736 64.5608 36.1931Z" fill="#1A2E35"/>
<path d="M64.5608 36.1931V149.614C64.5608 152.335 66.7657 154.54 69.4853 154.54H292.501C295.22 154.54 297.426 152.335 297.426 149.614V36.1931C297.426 33.4736 295.22 31.2677 292.501 31.2677H69.4853C66.7657 31.2677 64.5608 33.4736 64.5608 36.1931Z" stroke="#1A2E35" stroke-width="1.33333" stroke-miterlimit="10" stroke-linecap="round" stroke-linejoin="round"/>
<path d="M291.205 14.2534L297.46 7.99846" stroke="#1A2E35" stroke-width="1.33333" stroke-miterlimit="10" stroke-linecap="round" stroke-linejoin="round"/>
<path d="M291.205 7.99846L297.46 14.2534" stroke="#1A2E35" stroke-width="1.33333" stroke-miterlimit="10" stroke-linecap="round" stroke-linejoin="round"/>
<path d="M280.636 15.2959H272.296V9.78882H280.636V15.2959Z" stroke="#1A2E35" stroke-width="1.33333" stroke-miterlimit="10" stroke-linecap="round" stroke-linejoin="round"/>
<path d="M262.768 15.2966H254.428" stroke="#1A2E35" stroke-width="1.33333" stroke-miterlimit="10" stroke-linecap="round" stroke-linejoin="round"/>
<path d="M282.78 115.066H266.231C265.188 115.066 264.343 114.219 264.343 113.177C264.343 112.134 265.188 111.288 266.231 111.288H282.78C283.822 111.288 284.668 112.134 284.668 113.177C284.668 114.219 283.822 115.066 282.78 115.066Z" fill="#767676"/>
<path d="M282.78 128.128H236.576C235.533 128.128 234.687 127.282 234.687 126.239C234.687 125.197 235.533 124.351 236.576 124.351H282.78C283.822 124.351 284.668 125.197 284.668 126.239C284.668 127.282 283.822 128.128 282.78 128.128Z" fill="#767676"/>
<path d="M282.779 141.191H180.993C179.95 141.191 179.104 140.344 179.104 139.302C179.104 138.259 179.95 137.413 180.993 137.413H282.779C283.822 137.413 284.668 138.259 284.668 139.302C284.668 140.344 283.822 141.191 282.779 141.191Z" fill="#767676"/>
<path d="M82.0277 102.003H74.3185C73.2751 102.003 72.4299 101.157 72.4299 100.114C72.4299 99.0716 73.2751 98.2255 74.3185 98.2255H82.0277C83.0702 98.2255 83.9162 99.0716 83.9162 100.114C83.9162 101.157 83.0702 102.003 82.0277 102.003Z" fill="#C0C0C0"/>
<path d="M82.0277 115.066H74.3185C73.2751 115.066 72.4299 114.219 72.4299 113.177C72.4299 112.134 73.2751 111.288 74.3185 111.288H82.0277C83.0702 111.288 83.9162 112.134 83.9162 113.177C83.9162 114.219 83.0702 115.066 82.0277 115.066Z" fill="#C0C0C0"/>
<path d="M82.0277 128.128H74.3185C73.2751 128.128 72.4299 127.282 72.4299 126.239C72.4299 125.197 73.2751 124.351 74.3185 124.351H82.0277C83.0702 124.351 83.9162 125.197 83.9162 126.239C83.9162 127.282 83.0702 128.128 82.0277 128.128Z" fill="#C0C0C0"/>
<path d="M82.0277 141.191H74.3185C73.2751 141.191 72.4299 140.345 72.4299 139.302C72.4299 138.26 73.2751 137.414 74.3185 137.414H82.0277C83.0702 137.414 83.9162 138.26 83.9162 139.302C83.9162 140.345 83.0702 141.191 82.0277 141.191Z" fill="#C0C0C0"/>
<g opacity="0.699997">
<g opacity="0.699997">
<path opacity="0.699997" d="M82.0286 102.002H74.3195C73.276 102.002 72.4309 101.156 72.4309 100.113C72.4309 99.071 73.276 98.2249 74.3195 98.2249H82.0286C83.0711 98.2249 83.9172 99.071 83.9172 100.113C83.9172 101.156 83.0711 102.002 82.0286 102.002Z" fill="#C0C0C0"/>
</g>
</g>
<g opacity="0.699997">
<g opacity="0.699997">
<path opacity="0.699997" d="M82.0277 115.066H74.3185C73.2751 115.066 72.4299 114.22 72.4299 113.177C72.4299 112.135 73.2751 111.289 74.3185 111.289H82.0277C83.0702 111.289 83.9162 112.135 83.9162 113.177C83.9162 114.22 83.0702 115.066 82.0277 115.066Z" fill="#C0C0C0"/>
</g>
</g>
<g opacity="0.699997">
<g opacity="0.699997">
<path opacity="0.699997" d="M82.0277 128.128H74.3185C73.2751 128.128 72.4299 127.282 72.4299 126.239C72.4299 125.197 73.2751 124.351 74.3185 124.351H82.0277C83.0702 124.351 83.9162 125.197 83.9162 126.239C83.9162 127.282 83.0702 128.128 82.0277 128.128Z" fill="#C0C0C0"/>
</g>
</g>
<g opacity="0.699997">
<g opacity="0.699997">
<path opacity="0.699997" d="M82.0277 141.191H74.3185C73.2751 141.191 72.4299 140.345 72.4299 139.302C72.4299 138.26 73.2751 137.414 74.3185 137.414H82.0277C83.0702 137.414 83.9162 138.26 83.9162 139.302C83.9162 140.345 83.0702 141.191 82.0277 141.191Z" fill="#C0C0C0"/>
</g>
</g>
<path d="M236.576 88.9404H74.3183C73.2758 88.9404 72.4297 88.0943 72.4297 87.0519C72.4297 86.0094 73.2758 85.1633 74.3183 85.1633H236.576C237.619 85.1633 238.465 86.0094 238.465 87.0519C238.465 88.0943 237.619 88.9404 236.576 88.9404Z" fill="#C0C0C0"/>
<path d="M282.78 62.8149H266.231C265.188 62.8149 264.343 61.9689 264.343 60.9264C264.343 59.8839 265.188 59.0378 266.231 59.0378H282.78C283.822 59.0378 284.668 59.8839 284.668 60.9264C284.668 61.9689 283.822 62.8149 282.78 62.8149Z" fill="#C0C0C0"/>
<path d="M259.305 62.8149H243.501C242.457 62.8149 241.612 61.9689 241.612 60.9264C241.612 59.8839 242.457 59.0378 243.501 59.0378H259.305C260.348 59.0378 261.194 59.8839 261.194 60.9264C261.194 61.9689 260.348 62.8149 259.305 62.8149Z" fill="#C0C0C0"/>
<path d="M236.576 62.8149H74.318C73.2755 62.8149 72.4294 61.9689 72.4294 60.9264C72.4294 59.8839 73.2755 59.0378 74.318 59.0378H236.576C237.618 59.0378 238.465 59.8839 238.465 60.9264C238.465 61.9689 237.618 62.8149 236.576 62.8149Z" fill="#C0C0C0"/>
<path d="M282.78 102.003H266.23C265.187 102.003 264.342 101.157 264.342 100.114C264.342 99.0716 265.187 98.2255 266.23 98.2255H282.78C283.822 98.2255 284.668 99.0716 284.668 100.114C284.668 101.157 283.822 102.003 282.78 102.003Z" fill="#BBBBBB"/>
<path d="M259.306 102.003H90.5263C89.4838 102.003 88.6377 101.157 88.6377 100.114C88.6377 99.0716 89.4838 98.2255 90.5263 98.2255H259.306C260.349 98.2255 261.195 99.0716 261.195 100.114C261.195 101.157 260.349 102.003 259.306 102.003Z" fill="#BBBBBB"/>
<path d="M139 115.066H90.5265C89.4831 115.066 88.6379 114.219 88.6379 113.177C88.6379 112.134 89.4831 111.288 90.5265 111.288H139C140.042 111.288 140.888 112.134 140.888 113.177C140.888 114.219 140.042 115.066 139 115.066Z" fill="#BBBBBB"/>
<path d="M138.999 128.128H90.5263C89.4828 128.128 88.6377 127.282 88.6377 126.239C88.6377 125.197 89.4828 124.351 90.5263 124.351H138.999C140.042 124.351 140.888 125.197 140.888 126.239C140.888 127.282 140.042 128.128 138.999 128.128Z" fill="#BBBBBB"/>
<path d="M138.999 141.191H90.5263C89.4828 141.191 88.6377 140.345 88.6377 139.302C88.6377 138.26 89.4828 137.414 90.5263 137.414H138.999C140.042 137.414 140.888 138.26 140.888 139.302C140.888 140.345 140.042 141.191 138.999 141.191Z" fill="#BBBBBB"/>
<path d="M107.167 308.719C107.167 308.719 102.213 317.243 104.164 317.552C106.114 317.858 110.195 310.489 110.195 310.489L121.384 307.523L112.956 306.653L107.167 308.719Z" fill="white"/>
<path d="M107.167 308.719C107.167 308.719 102.213 317.243 104.164 317.552C106.114 317.858 110.195 310.489 110.195 310.489L121.384 307.523L112.956 306.653L107.167 308.719Z" stroke="#1A2E35" stroke-width="1.33333" stroke-miterlimit="10" stroke-linecap="round" stroke-linejoin="round"/>
<g opacity="0.300003">
<g opacity="0.300003">
<path opacity="0.300003" d="M107.166 308.72C107.166 308.72 102.212 317.244 104.163 317.553C106.113 317.859 110.194 310.49 110.194 310.49L121.383 307.524L112.956 306.654L107.166 308.72Z" fill="black"/>
</g>
<g opacity="0.300003">
<path opacity="0.300003" d="M107.166 308.72C107.166 308.72 102.212 317.244 104.163 317.553C106.113 317.859 110.194 310.49 110.194 310.49L121.383 307.524L112.956 306.654L107.166 308.72Z" stroke="#1A2E35" stroke-width="1.33333" stroke-miterlimit="10" stroke-linecap="round" stroke-linejoin="round"/>
</g>
</g>
<path d="M110.933 302.907C110.933 302.907 104.006 301.258 102.094 304.511C100.181 307.766 94.5726 317.395 96.6755 318.498C98.7775 319.601 100.609 316.04 100.609 316.04L110.933 302.907Z" fill="white"/>
<path d="M110.933 302.907C110.933 302.907 104.006 301.258 102.094 304.511C100.181 307.766 94.5726 317.395 96.6755 318.498C98.7775 319.601 100.609 316.04 100.609 316.04L110.933 302.907Z" stroke="#1A2E35" stroke-width="1.33333" stroke-miterlimit="10" stroke-linecap="round" stroke-linejoin="round"/>
<path d="M139.282 312.782C139.282 312.782 132.329 315.409 125.078 314.274L117.191 316.895C117.191 316.895 110.261 320.308 107.037 318.587C103.813 316.866 115.253 313.071 115.253 313.071C115.253 313.071 122.948 309.742 120.65 308.943C118.352 308.142 109.672 308.293 107.964 309.602C106.257 310.911 101.786 319.387 98.5593 318.903C95.3327 318.421 99.9229 313.805 101.082 312.028C102.241 310.25 104.842 303.165 110.113 302.87C115.385 302.574 133.122 303.483 133.122 303.483L153.981 301.254L158.902 313.119L139.282 312.782Z" fill="white"/>
<path d="M139.282 312.782C139.282 312.782 132.329 315.409 125.078 314.274L117.191 316.895C117.191 316.895 110.261 320.308 107.037 318.587C103.813 316.866 115.253 313.071 115.253 313.071C115.253 313.071 122.948 309.742 120.65 308.943C118.352 308.142 109.672 308.293 107.964 309.602C106.257 310.911 101.786 319.387 98.5593 318.903C95.3327 318.421 99.9229 313.805 101.082 312.028C102.241 310.25 104.842 303.165 110.113 302.87C115.385 302.574 133.122 303.483 133.122 303.483L153.981 301.254L158.902 313.119L139.282 312.782Z" stroke="#1A2E35" stroke-width="1.33333" stroke-miterlimit="10" stroke-linecap="round" stroke-linejoin="round"/>
<path d="M150.168 315.72C151.177 316.357 152.603 316.761 154.146 315.66C154.146 315.66 156.404 316.643 157.928 314.965C159.454 313.288 159.588 298.626 155.37 296.973C154.154 296.497 151.116 296.546 150.617 298.248C150.617 298.248 147.996 297.347 147.552 300.157C147.135 302.801 149.761 305.263 148.882 312.869C148.752 313.994 149.261 315.149 150.168 315.72Z" fill="#38BFF2"/>
<path d="M150.168 315.72C151.177 316.357 152.603 316.761 154.146 315.66C154.146 315.66 156.404 316.643 157.928 314.965C159.454 313.288 159.588 298.626 155.37 296.973C154.154 296.497 151.116 296.546 150.617 298.248C150.617 298.248 147.996 297.347 147.552 300.157C147.135 302.801 149.761 305.263 148.882 312.869C148.752 313.994 149.261 315.149 150.168 315.72Z" stroke="#1A2E35" stroke-width="1.33333" stroke-miterlimit="10" stroke-linecap="round" stroke-linejoin="round"/>
<g opacity="0.300003">
<g opacity="0.300003">
<path opacity="0.300003" d="M150.169 315.72C151.177 316.356 152.603 316.76 154.146 315.659C154.146 315.659 156.405 316.642 157.929 314.964C159.454 313.287 159.588 298.625 155.371 296.973C154.154 296.497 151.117 296.546 150.617 298.248C150.617 298.248 147.996 297.347 147.552 300.157C147.136 302.801 149.762 305.263 148.882 312.869C148.752 313.994 149.261 315.148 150.169 315.72Z" fill="black"/>
</g>
<g opacity="0.300003">
<path opacity="0.300003" d="M150.169 315.72C151.177 316.356 152.603 316.76 154.146 315.659C154.146 315.659 156.405 316.642 157.929 314.964C159.454 313.287 159.588 298.625 155.371 296.973C154.154 296.497 151.117 296.546 150.617 298.248C150.617 298.248 147.996 297.347 147.552 300.157C147.136 302.801 149.762 305.263 148.882 312.869C148.752 313.994 149.261 315.148 150.169 315.72Z" stroke="#1A2E35" stroke-width="1.33333" stroke-miterlimit="10" stroke-linecap="round" stroke-linejoin="round"/>
</g>
</g>
<path d="M154.981 312.301C154.981 312.301 155.104 305.945 152.489 300.718" stroke="#1A2E35" stroke-width="1.33333" stroke-miterlimit="10" stroke-linecap="round" stroke-linejoin="round"/>
<path d="M254.257 306.974C253.559 312.347 252.765 318.165 251.858 324.481H170.802L171.188 314.037C166.344 315.209 156.929 314.49 156.929 314.49V299.051C162.652 295.813 163.502 296.72 163.502 296.72C163.502 296.72 163.794 259.042 167.223 249.637C168.677 245.653 171.226 242.811 173.926 240.817V240.809C174.777 240.176 175.636 239.628 176.486 239.156C176.533 239.127 176.57 239.108 176.609 239.081C177.553 238.579 178.695 238.051 179.998 237.504C180.111 237.455 180.234 237.408 180.357 237.361C193.048 232.177 220.745 226.162 246.552 237.192C248.355 237.965 263.087 245 264.343 255.171C265.06 260.968 261.113 289.807 254.257 306.974Z" fill="#38BFF2"/>
<g opacity="0.199997">
<g opacity="0.199997">
<path opacity="0.199997" d="M241.416 260.524L233.333 298.04C232.077 297.049 228.46 296.982 223.861 297.417C224.872 296.294 225.693 295.076 226.307 293.753C238.526 267.313 241.198 261.053 241.416 260.524Z" fill="black"/>
</g>
</g>
<g opacity="0.199997">
<g opacity="0.199997">
<path opacity="0.199997" d="M256.184 301.743C253.843 310.091 252.814 317.693 251.859 324.481H170.802L171.548 312.452C176.599 311.733 185.466 310.998 194.673 309.363C195.845 314.227 194.89 318.155 194.89 318.155C194.89 318.155 232.171 322.781 244.683 319.77C248.253 318.911 251.482 313.924 254.248 307.06C254.919 305.388 255.562 303.604 256.184 301.743Z" fill="black"/>
</g>
</g>
<g opacity="0.300003">
<g opacity="0.300003">
<path opacity="0.300003" d="M164.471 297.432C164.471 297.432 162.656 295.813 156.925 299.056V314.495C156.925 314.495 166.371 314.157 170.077 312.151C173.265 314.123 172.698 277.989 173.265 258.525C168.638 259.796 168.267 268.602 167.553 276.884C166.567 288.3 164.471 297.432 164.471 297.432Z" fill="black"/>
</g>
</g>
<path d="M254.257 306.974C253.559 312.347 252.765 318.164 251.858 324.481H170.801L171.188 314.037C166.343 315.209 156.929 314.49 156.929 314.49V299.051C162.651 295.813 163.502 296.72 163.502 296.72C163.502 296.72 163.794 259.042 167.223 249.637C168.677 245.653 171.225 242.81 173.926 240.817V240.808C174.777 240.176 175.635 239.628 176.486 239.156C176.532 239.127 176.57 239.108 176.609 239.08C177.553 238.579 178.695 238.051 179.998 237.503C180.111 237.455 180.234 237.408 180.357 237.361C193.048 232.177 220.745 226.162 246.552 237.192C248.355 237.965 263.087 245 264.343 255.171C265.059 260.968 261.113 289.807 254.257 306.974Z" stroke="#1A2E35" stroke-width="1.33333" stroke-miterlimit="10" stroke-linecap="round" stroke-linejoin="round"/>
<path d="M264.342 255.171C264.37 255.397 264.399 255.662 264.408 255.955C264.824 263.207 260.877 290.571 254.248 307.06C251.481 313.925 248.252 318.91 244.682 319.77C232.171 322.782 194.89 318.155 194.89 318.155C194.89 318.155 196.741 310.506 192.104 303.33C192.104 303.33 228.705 294.378 233.332 298.041L241.433 260.487" stroke="#1A2E35" stroke-width="1.33333" stroke-miterlimit="10" stroke-linecap="round" stroke-linejoin="round"/>
<path d="M235.88 300.086C235.88 300.086 239.354 301.476 242.365 305.645" stroke="#1A2E35" stroke-width="1.33333" stroke-miterlimit="10" stroke-linecap="round" stroke-linejoin="round"/>
<path d="M142.637 301.435C142.637 301.435 139.227 300.717 137.837 302.27C136.387 303.89 130.502 312.763 132.512 314.467C134.52 316.17 138.61 306.824 138.61 306.824L142.637 301.435Z" fill="white"/>
<path d="M142.637 301.435C142.637 301.435 139.227 300.717 137.837 302.27C136.387 303.89 130.502 312.763 132.512 314.467C134.52 316.17 138.61 306.824 138.61 306.824L142.637 301.435Z" stroke="#1A2E35" stroke-width="1.33333" stroke-miterlimit="10" stroke-linecap="round" stroke-linejoin="round"/>
<path d="M149.496 301.273C149.496 301.273 141.913 299.645 140.214 301.961C138.517 304.276 128.961 316.243 134.906 316.63L144.4 305.975L149.496 301.273Z" fill="white"/>
<path d="M149.496 301.273C149.496 301.273 141.913 299.645 140.214 301.961C138.517 304.276 128.961 316.243 134.906 316.63L144.4 305.975L149.496 301.273Z" stroke="#1A2E35" stroke-width="1.33333" stroke-miterlimit="10" stroke-linecap="round" stroke-linejoin="round"/>
<path d="M166.627 314.003C166.627 314.003 158.837 315.702 155.672 316.32C152.506 316.936 146.639 321.028 143.165 319.408C139.692 317.786 154.514 311.765 154.514 311.765L159.608 309.713L166.627 314.003Z" fill="#C0C0C0"/>
<path d="M166.627 314.003C166.627 314.003 158.837 315.702 155.672 316.32C152.506 316.936 146.639 321.028 143.165 319.408C139.692 317.786 154.514 311.765 154.514 311.765L159.608 309.713L166.627 314.003Z" stroke="#1A2E35" stroke-width="1.33333" stroke-miterlimit="10" stroke-linecap="round" stroke-linejoin="round"/>
<path d="M172.934 267.386C173.044 264.432 173.155 261.477 173.265 258.524" stroke="#1A2E35" stroke-width="1.33333" stroke-miterlimit="10" stroke-linecap="round" stroke-linejoin="round"/>
<path d="M170.802 324.481C172.246 306.606 172.784 271.408 172.784 271.408" stroke="#1A2E35" stroke-width="1.33333" stroke-miterlimit="10" stroke-linecap="round" stroke-linejoin="round"/>
<path d="M194.888 304.354H168.023C168.023 304.354 147.179 298.101 143.705 302.964C140.231 307.828 132.821 315.239 134.905 316.629C136.99 318.018 145.789 307.944 145.789 307.944L153.432 308.016C153.432 308.016 146.947 310.838 145.558 312.228C144.169 313.618 141.158 317.554 142.779 318.25C144.4 318.944 149.495 313.85 149.495 313.85C149.495 313.85 157.138 311.997 158.99 312.922C160.843 313.85 168.254 317.554 178.212 314.775L198.712 317.323L194.888 304.354Z" fill="white"/>
<path d="M194.888 304.354H168.023C168.023 304.354 147.179 298.101 143.705 302.964C140.231 307.828 132.821 315.239 134.905 316.629C136.99 318.018 145.789 307.944 145.789 307.944L153.432 308.016C153.432 308.016 146.947 310.838 145.558 312.228C144.169 313.618 141.158 317.554 142.779 318.25C144.4 318.944 149.495 313.85 149.495 313.85C149.495 313.85 157.138 311.997 158.99 312.922C160.843 313.85 168.254 317.554 178.212 314.775L198.712 317.323L194.888 304.354Z" stroke="#1A2E35" stroke-width="1.33333" stroke-miterlimit="10" stroke-linecap="round" stroke-linejoin="round"/>
<path d="M238.629 273.49C237.893 269.202 237.856 264.783 238.544 260.487" stroke="#1A2E35" stroke-width="1.33333" stroke-miterlimit="10" stroke-linecap="round" stroke-linejoin="round"/>
<path d="M244.723 250.97C244.723 250.97 257.756 233.8 264.342 255.171" stroke="#1A2E35" stroke-width="1.33333" stroke-miterlimit="10" stroke-linecap="round" stroke-linejoin="round"/>
<path d="M189.377 302.237C190.197 301.372 191.477 300.627 193.245 301.309C193.245 301.309 195.188 299.797 197.083 301.042C198.976 302.289 202.746 316.457 199.072 319.104C198.013 319.869 195.058 320.575 194.152 319.052C194.152 319.052 191.836 320.575 190.708 317.963C189.647 315.506 191.58 312.469 188.839 305.319C188.434 304.262 188.64 303.017 189.377 302.237Z" fill="#38BFF2"/>
<g opacity="0.300003">
<g opacity="0.300003">
<path opacity="0.300003" d="M189.377 302.238C190.197 301.372 191.478 300.627 193.245 301.31C193.245 301.31 195.189 299.797 197.083 301.043C198.976 302.29 202.747 316.458 199.072 319.105C198.013 319.87 195.058 320.576 194.152 319.053C194.152 319.053 191.836 320.576 190.708 317.963C189.648 315.506 191.58 312.469 188.839 305.319C188.434 304.263 188.64 303.018 189.377 302.238Z" fill="black"/>
</g>
</g>
<path d="M189.377 302.237C190.197 301.371 191.478 300.626 193.245 301.309C193.245 301.309 195.189 299.796 197.083 301.042C198.976 302.289 202.747 316.457 199.072 319.104C198.013 319.869 195.058 320.575 194.152 319.052C194.152 319.052 191.836 320.575 190.708 317.962C189.648 315.505 191.58 312.469 188.839 305.318C188.434 304.262 188.64 303.017 189.377 302.237Z" stroke="#1A2E35" stroke-width="1.33333" stroke-miterlimit="10" stroke-linecap="round" stroke-linejoin="round"/>
<path d="M195.342 309.592C195.655 311.79 195.733 314.034 195.419 316.237" stroke="#1A2E35" stroke-width="1.33333" stroke-miterlimit="10" stroke-linecap="round" stroke-linejoin="round"/>
<path d="M207.154 267.187C207.095 268.201 206.227 268.976 205.211 268.917C204.197 268.859 203.423 267.989 203.481 266.974C203.54 265.96 204.41 265.186 205.424 265.244C206.438 265.303 207.212 266.173 207.154 267.187Z" fill="white"/>
<path d="M207.154 267.187C207.095 268.201 206.227 268.976 205.211 268.917C204.197 268.859 203.423 267.989 203.481 266.974C203.54 265.96 204.41 265.186 205.424 265.244C206.438 265.303 207.212 266.173 207.154 267.187Z" stroke="#1A2E35" stroke-width="1.33333" stroke-miterlimit="10" stroke-linecap="round" stroke-linejoin="round"/>
<path d="M205.829 295.698C205.771 296.712 204.902 297.487 203.887 297.427C202.873 297.37 202.098 296.5 202.156 295.485C202.216 294.471 203.085 293.697 204.099 293.754C205.114 293.814 205.888 294.683 205.829 295.698Z" fill="white"/>
<path d="M205.829 295.698C205.771 296.712 204.902 297.487 203.887 297.427C202.873 297.37 202.098 296.5 202.156 295.485C202.216 294.471 203.085 293.697 204.099 293.754C205.114 293.814 205.888 294.683 205.829 295.698Z" stroke="#1A2E35" stroke-width="1.33333" stroke-miterlimit="10" stroke-linecap="round" stroke-linejoin="round"/>
<path d="M222.69 232.259L221.339 213.236L201.655 217.794L200.606 233.072C199.364 233.227 198.182 233.401 197.029 233.579L201.842 245.121L211.255 246.357L226.307 232.485C225.085 232.394 223.876 232.316 222.69 232.259Z" fill="white"/>
<path d="M201.363 224.532C201.492 238.065 217.311 233.914 221.686 220.395L221.34 213.235L201.656 217.792L201.363 224.532Z" fill="#1A2E35"/>
<path d="M222.69 232.258L221.34 213.235L201.655 217.793L200.606 233.071C199.365 233.226 198.182 233.4 197.029 233.578L201.842 245.12L211.255 246.356L226.308 232.484C225.086 232.393 223.876 232.315 222.69 232.258Z" stroke="#1A2E35" stroke-width="1.33333" stroke-miterlimit="10" stroke-linecap="round" stroke-linejoin="round"/>
<path d="M189.299 197.176C189.299 197.176 182.11 184.728 181.044 178.163C177.754 157.89 192.392 164.731 192.392 164.731C192.392 164.731 202.741 155.467 215.631 157.088C228.52 158.71 231.916 164.194 240.59 167.565C240.59 167.565 234.078 200.627 225.741 208.039C217.404 215.45 189.299 197.176 189.299 197.176Z" fill="#1A2E35"/>
<path d="M189.299 197.176C189.299 197.176 182.11 184.728 181.044 178.163C177.754 157.89 192.392 164.731 192.392 164.731C192.392 164.731 202.741 155.467 215.631 157.088C228.52 158.71 231.916 164.194 240.59 167.565C240.59 167.565 234.078 200.627 225.741 208.039C217.404 215.45 189.299 197.176 189.299 197.176Z" stroke="#1A2E35" stroke-width="1.33333" stroke-miterlimit="10" stroke-linecap="round" stroke-linejoin="round"/>
<path d="M193.087 167.742C193.087 167.742 189.844 159.868 198.066 153.846" stroke="#1A2E35" stroke-width="1.33333" stroke-miterlimit="10" stroke-linecap="round" stroke-linejoin="round"/>
<path d="M207.234 163.011C216.858 158.757 221.146 165.871 231.887 167.742" stroke="#C0C0C0" stroke-width="1.33333" stroke-miterlimit="10"/>
<path d="M199.803 167.742C200.649 166.628 201.751 165.706 202.924 164.951" stroke="#C0C0C0" stroke-width="1.33333" stroke-miterlimit="10"/>
<path d="M209.679 170.827C209.679 170.827 213.841 166.827 222.102 172.024C226.628 174.87 230.351 175.276 230.351 175.276" stroke="#C0C0C0" stroke-width="1.33333" stroke-miterlimit="10"/>
<path d="M222.409 179.475C210.43 179.784 198.066 174.38 198.066 174.38C186.907 181.11 188.564 192.057 188.564 192.057C191.114 218.212 194.562 225.176 206.783 225.176C218.926 225.176 228.937 211.995 229.732 193.123C225.108 193.342 222.409 179.475 222.409 179.475Z" fill="white"/>
<path d="M222.409 179.475C210.43 179.784 198.066 174.38 198.066 174.38C186.907 181.11 188.564 192.057 188.564 192.057C191.114 218.212 194.562 225.176 206.783 225.176C218.926 225.176 228.937 211.995 229.732 193.123C225.108 193.342 222.409 179.475 222.409 179.475Z" stroke="#1A2E35" stroke-width="1.33333" stroke-miterlimit="10" stroke-linecap="round" stroke-linejoin="round"/>
<path d="M228.705 192.058C229.378 191.189 230.231 190.669 231.159 190.669C233.333 190.669 234.941 193.526 234.17 197.038C233.414 200.474 232.408 203.408 230.233 203.408C229.211 203.408 228.486 202.779 228.002 201.747" fill="white"/>
<path d="M228.705 192.058C229.378 191.189 230.231 190.669 231.159 190.669C233.333 190.669 234.941 193.526 234.17 197.038C233.414 200.474 232.408 203.408 230.233 203.408C229.211 203.408 228.486 202.779 228.002 201.747" stroke="#1A2E35" stroke-width="1.33333" stroke-miterlimit="10" stroke-linecap="round" stroke-linejoin="round"/>
<path d="M204.902 204.895C204.902 204.895 206.364 206.899 203.562 208.403C200.761 209.906 198.522 209.875 197.806 208.157C197.09 206.439 200.209 192.125 200.209 192.125" stroke="#1A2E35" stroke-width="1.33333" stroke-linecap="round" stroke-linejoin="round"/>
<path d="M199.735 194.395C198.224 193.631 192.171 190.987 186.439 194.594L186.808 200.146C186.808 200.146 188.923 201.308 193.777 201.308C195.967 201.308 197.497 201.072 198.507 200.817" stroke="#1A2E35" stroke-width="1.33333" stroke-linecap="round" stroke-linejoin="round"/>
<path d="M204.75 194.597L206.506 200.385C206.506 200.385 207.224 201.329 212.087 201.329C216.95 201.329 218.546 200.168 218.546 200.168L218.404 194.616C218.404 194.616 211.35 190.432 204.75 194.597Z" stroke="#1A2E35" stroke-width="1.33333" stroke-linecap="round" stroke-linejoin="round"/>
<path d="M200.123 194.597H204.75" stroke="#1A2E35" stroke-width="1.33333" stroke-linecap="round" stroke-linejoin="round"/>
<path d="M201.107 213.65C201.107 213.65 204.88 214.894 208.803 213.416C211.974 212.222 213.592 209.807 213.592 209.807" stroke="#1A2E35" stroke-width="1.33333" stroke-linecap="round" stroke-linejoin="round"/>
<path d="M208.798 189.119C214.872 186.614 217.551 189.62 217.551 189.62" stroke="#1A2E35" stroke-width="1.33333" stroke-linecap="round" stroke-linejoin="round"/>
<path d="M192.776 188.873C194.904 187.852 197.429 188.143 199.269 189.62" stroke="#1A2E35" stroke-width="1.33333" stroke-linecap="round" stroke-linejoin="round"/>
<path d="M211.218 193.341C211.78 193.341 212.179 194.24 212.179 195.386C212.179 196.531 211.709 197.431 211.157 197.431C210.605 197.431 210.205 196.491 210.205 195.386C210.226 194.272 210.655 193.341 211.218 193.341Z" fill="#1A2E35"/>
<path d="M196.14 193.085C196.692 193.085 197.091 193.985 197.091 195.131C197.091 196.276 196.621 197.176 196.068 197.176C195.516 197.176 195.117 196.235 195.117 195.131C195.149 194.027 195.588 193.085 196.14 193.085Z" fill="#1A2E35"/>
<path d="M186.069 182.66C186.286 183.766 186.56 184.875 187.011 185.91" stroke="#C0C0C0" stroke-width="1.33333" stroke-miterlimit="10"/>
<path d="M193.318 170.187C187.35 168.581 184.987 172.168 185.429 177.829" stroke="#C0C0C0" stroke-width="1.33333" stroke-miterlimit="10"/>
<path d="M199.631 232.19L206.905 245.276L224.366 231.496L229.731 232.249L218.435 252.225C217.998 252.982 217.019 253.224 216.281 252.758L206.623 246.665L199.091 251.268C198.129 251.856 196.882 251.244 196.759 250.124L194.889 233.078L199.631 232.19Z" fill="#38BFF2"/>
<g opacity="0.300003">
<g opacity="0.300003">
<path opacity="0.300003" d="M198.992 232.101L206.905 245.276L224.67 231.255L230.02 232.101L218.435 252.225C217.998 252.982 217.019 253.224 216.281 252.759L206.623 246.665L199.091 251.269C198.129 251.857 196.882 251.244 196.759 250.124L194.889 233.079L198.992 232.101Z" fill="black"/>
</g>
</g>
<path d="M199.631 232.19L206.905 245.276L224.366 231.496L229.731 232.25L218.434 252.225C217.998 252.983 217.019 253.224 216.281 252.759L206.622 246.665L199.091 251.269C198.129 251.857 196.882 251.245 196.758 250.124L194.889 233.079L199.631 232.19Z" stroke="#1A2E35" stroke-width="1.33333" stroke-miterlimit="10" stroke-linecap="round" stroke-linejoin="round"/>
<path d="M138.843 324.481H91.3666C90.3392 324.481 89.5063 323.648 89.5063 322.621V320.011C89.5063 318.983 90.3392 318.15 91.3666 318.15H138.843V324.481Z" fill="#1A2E35"/>
<path d="M138.843 324.481H91.3666C90.3392 324.481 89.5063 323.648 89.5063 322.621V320.011C89.5063 318.983 90.3392 318.15 91.3666 318.15H138.843V324.481Z" stroke="#1A2E35" stroke-width="1.33333" stroke-miterlimit="10" stroke-linecap="round" stroke-linejoin="round"/>
<path d="M179.699 324.481H138.843V318.15L179.784 320.85C180.464 320.894 180.993 321.459 180.993 322.14V323.187C180.993 323.902 180.413 324.481 179.699 324.481Z" fill="#38BFF2"/>
<path d="M179.699 324.481H138.843V318.15L179.784 320.85C180.464 320.894 180.993 321.459 180.993 322.14V323.187C180.993 323.902 180.413 324.481 179.699 324.481Z" stroke="#1A2E35" stroke-width="1.33333" stroke-miterlimit="10" stroke-linecap="round" stroke-linejoin="round"/>
<path d="M218.427 195.526L228.706 192.058L227.487 193.596" stroke="#1A2E35" stroke-width="1.33333" stroke-linecap="round" stroke-linejoin="round"/>
<path d="M284.236 207.347C284.236 207.347 272.407 171.225 302.157 168.69C331.908 166.156 335.419 193.885 338.147 207.787C340.279 218.653 360.601 238.534 344.874 253.369C328.454 268.859 288.475 263.692 286.177 241.667C283.879 219.641 285.971 215.132 284.236 207.347Z" fill="#1A2E35"/>
<path d="M284.236 207.347C284.236 207.347 272.407 171.225 302.157 168.69C331.908 166.156 335.419 193.885 338.147 207.787C340.279 218.653 360.601 238.534 344.874 253.369C328.454 268.859 288.475 263.692 286.177 241.667C283.879 219.641 285.971 215.132 284.236 207.347Z" stroke="#1A2E35" stroke-width="1.33333" stroke-miterlimit="10" stroke-linecap="round" stroke-linejoin="round"/>
<path d="M318.954 213.098C318.954 213.098 317.652 229.119 325.919 242.9C325.919 242.9 314.782 246.528 303.168 243.077C303.654 238.823 303.418 234.518 302.47 230.343L302.073 228.598L310.516 221.295L318.954 213.098Z" fill="white"/>
<path d="M298.517 225.177C300.053 233.8 301.467 235.677 308.768 234.14C314.184 232.999 318.8 224.877 319.061 218.978C318.647 215.39 318.677 210.914 318.677 210.914L310.517 221.295L298.517 225.177Z" fill="#1A2E35"/>
<path d="M318.955 213.098C318.955 213.098 317.653 229.119 325.92 242.9C325.92 242.9 314.783 246.528 303.169 243.078C303.654 238.824 303.418 234.519 302.47 230.343L302.074 228.598L310.517 221.295L318.955 213.098Z" stroke="#1A2E35" stroke-width="1.33333" stroke-miterlimit="10" stroke-linecap="round" stroke-linejoin="round"/>
<path d="M236.105 304.782C236.105 304.782 219.628 297.208 218.71 303.483C217.791 309.759 221.812 319.379 236.901 314.634L268.557 318.807C268.557 318.807 273.978 308.013 268.184 302.129C268.184 302.129 240.291 306.467 236.105 304.782Z" fill="white"/>
<path d="M236.105 304.782C236.105 304.782 219.628 297.208 218.71 303.483C217.791 309.759 221.812 319.379 236.901 314.634L268.557 318.807C268.557 318.807 273.978 308.013 268.184 302.129C268.184 302.129 240.291 306.467 236.105 304.782Z" stroke="#1A2E35" stroke-width="1.33333" stroke-miterlimit="10" stroke-linecap="round" stroke-linejoin="round"/>
<path d="M210.718 311.547C210.718 311.547 208.107 312.383 207.725 314.11C207.345 315.836 206.494 318.286 207.499 318.294C208.502 318.3 209.715 314.856 209.715 314.856L212.254 314.197L210.718 311.547Z" fill="white"/>
<path d="M210.718 311.547C210.718 311.547 208.107 312.383 207.725 314.11C207.345 315.836 206.494 318.286 207.499 318.294C208.502 318.3 209.715 314.856 209.715 314.856L212.254 314.197L210.718 311.547Z" stroke="#1A2E35" stroke-width="1.33333" stroke-miterlimit="10" stroke-linecap="round" stroke-linejoin="round"/>
<path d="M230.527 319.541L213.4 321.335L210.844 296.937L227.972 295.142L230.527 319.541Z" fill="white"/>
<path d="M230.527 319.541L213.4 321.335L210.844 296.937L227.972 295.142L230.527 319.541Z" stroke="#1A2E35" stroke-width="1.33333" stroke-miterlimit="10" stroke-linecap="round" stroke-linejoin="round"/>
<path d="M208.286 297.204L210.842 321.603L213.4 321.336L210.844 296.936L208.286 297.204Z" fill="#38BFF2"/>
<path d="M208.286 297.204L210.842 321.603L213.4 321.336L210.844 296.936L208.286 297.204Z" stroke="#1A2E35" stroke-width="1.33333" stroke-miterlimit="10" stroke-linecap="round" stroke-linejoin="round"/>
<path d="M223.369 291.611C221.323 291.825 219.834 293.663 220.047 295.708C220.057 295.798 220.083 295.88 220.099 295.966L220.964 295.876L221.881 295.78C221.86 295.695 221.837 295.611 221.827 295.522C221.716 294.458 222.49 293.501 223.555 293.39C224.618 293.279 225.574 294.053 225.686 295.118C225.76 295.831 225.433 296.488 224.891 296.882C225.008 297.279 225.357 297.791 226.333 297.992C227.13 297.222 227.589 296.116 227.466 294.932C227.251 292.886 225.413 291.395 223.369 291.611Z" fill="white"/>
<path d="M223.369 291.611C221.323 291.825 219.834 293.663 220.047 295.708C220.057 295.798 220.083 295.88 220.099 295.966L220.964 295.876L221.881 295.78C221.86 295.695 221.837 295.611 221.827 295.522C221.716 294.458 222.49 293.501 223.555 293.39C224.618 293.279 225.574 294.053 225.686 295.118C225.76 295.831 225.433 296.488 224.891 296.882C225.008 297.279 225.357 297.791 226.333 297.992C227.13 297.222 227.589 296.116 227.466 294.932C227.251 292.886 225.413 291.395 223.369 291.611Z" stroke="#1A2E35" stroke-width="1.33333" stroke-miterlimit="10" stroke-linecap="round" stroke-linejoin="round"/>
<path d="M214.072 301.994L219.967 301.378" stroke="#1A2E35" stroke-width="1.33333" stroke-miterlimit="10" stroke-linecap="round" stroke-linejoin="round"/>
<path d="M214.355 304.683L225.81 303.483" stroke="#1A2E35" stroke-width="1.33333" stroke-miterlimit="10" stroke-linecap="round" stroke-linejoin="round"/>
<path d="M214.636 307.373L220.363 306.772" stroke="#1A2E35" stroke-width="1.33333" stroke-miterlimit="10" stroke-linecap="round" stroke-linejoin="round"/>
<path d="M214.918 310.061L224.483 309.058" stroke="#1A2E35" stroke-width="1.33333" stroke-miterlimit="10" stroke-linecap="round" stroke-linejoin="round"/>
<path d="M215.199 312.75L220.927 312.15" stroke="#1A2E35" stroke-width="1.33333" stroke-miterlimit="10" stroke-linecap="round" stroke-linejoin="round"/>
<path d="M215.48 315.439L228.049 314.122" stroke="#1A2E35" stroke-width="1.33333" stroke-miterlimit="10" stroke-linecap="round" stroke-linejoin="round"/>
<path d="M215.763 318.127L221.657 317.511" stroke="#1A2E35" stroke-width="1.33333" stroke-miterlimit="10" stroke-linecap="round" stroke-linejoin="round"/>
<path d="M220.198 291.943C218.154 292.157 216.664 293.995 216.878 296.04C216.887 296.131 216.914 296.214 216.93 296.302L217.796 296.212L217.795 296.208L218.712 296.112C218.69 296.027 218.667 295.943 218.657 295.854C218.546 294.79 219.321 293.833 220.384 293.722C221.448 293.612 222.405 294.386 222.516 295.45C222.591 296.163 222.263 296.82 221.721 297.214C221.838 297.612 222.188 298.123 223.163 298.325C223.959 297.554 224.42 296.448 224.296 295.264C224.081 293.219 222.243 291.728 220.198 291.943Z" fill="white"/>
<path d="M220.198 291.943C218.154 292.157 216.664 293.995 216.878 296.04C216.887 296.131 216.914 296.214 216.93 296.302L217.796 296.212L217.795 296.208L218.712 296.112C218.69 296.027 218.667 295.943 218.657 295.854C218.546 294.79 219.321 293.833 220.384 293.722C221.448 293.612 222.405 294.386 222.516 295.45C222.591 296.163 222.263 296.82 221.721 297.214C221.838 297.612 222.188 298.123 223.163 298.325C223.959 297.554 224.42 296.448 224.296 295.264C224.081 293.219 222.243 291.728 220.198 291.943Z" stroke="#1A2E35" stroke-width="1.33333" stroke-miterlimit="10" stroke-linecap="round" stroke-linejoin="round"/>
<path d="M217.029 292.275C214.984 292.489 213.494 294.327 213.709 296.373C213.718 296.461 213.745 296.544 213.761 296.63L214.626 296.54L215.542 296.444C215.521 296.359 215.497 296.275 215.488 296.186C215.376 295.122 216.151 294.165 217.215 294.054C218.279 293.943 219.236 294.717 219.347 295.782C219.422 296.495 219.094 297.152 218.552 297.546C218.669 297.943 219.018 298.455 219.993 298.656C220.79 297.885 221.251 296.78 221.126 295.596C220.912 293.55 219.074 292.06 217.029 292.275Z" fill="white"/>
<path d="M217.029 292.275C214.984 292.489 213.494 294.327 213.709 296.373C213.718 296.461 213.745 296.544 213.761 296.63L214.626 296.54L215.542 296.444C215.521 296.359 215.497 296.275 215.488 296.186C215.376 295.122 216.151 294.165 217.215 294.054C218.279 293.943 219.236 294.717 219.347 295.782C219.422 296.495 219.094 297.152 218.552 297.546C218.669 297.943 219.018 298.455 219.993 298.656C220.79 297.885 221.251 296.78 221.126 295.596C220.912 293.55 219.074 292.06 217.029 292.275Z" stroke="#1A2E35" stroke-width="1.33333" stroke-miterlimit="10" stroke-linecap="round" stroke-linejoin="round"/>
<path d="M213.859 292.607C211.814 292.821 210.325 294.66 210.538 296.705C210.547 296.794 210.574 296.876 210.59 296.962L211.456 296.872L212.372 296.776C212.351 296.691 212.327 296.607 212.318 296.518C212.206 295.454 212.981 294.497 214.045 294.387C215.109 294.275 216.066 295.05 216.176 296.114C216.251 296.827 215.923 297.484 215.382 297.878C215.498 298.275 215.848 298.787 216.823 298.988C217.62 298.218 218.081 297.112 217.956 295.928C217.742 293.883 215.903 292.393 213.859 292.607Z" fill="white"/>
<path d="M213.859 292.607C211.814 292.821 210.325 294.66 210.538 296.705C210.547 296.794 210.574 296.876 210.59 296.962L211.456 296.872L212.372 296.776C212.351 296.691 212.327 296.607 212.318 296.518C212.206 295.454 212.981 294.497 214.045 294.387C215.109 294.275 216.066 295.05 216.176 296.114C216.251 296.827 215.923 297.484 215.382 297.878C215.498 298.275 215.848 298.787 216.823 298.988C217.62 298.218 218.081 297.112 217.956 295.928C217.742 293.883 215.903 292.393 213.859 292.607Z" stroke="#1A2E35" stroke-width="1.33333" stroke-miterlimit="10" stroke-linecap="round" stroke-linejoin="round"/>
<path d="M209.149 296.85C209.037 295.786 209.812 294.829 210.876 294.719C211.94 294.607 212.896 295.382 213.007 296.446C213.082 297.159 212.753 297.816 212.212 298.211C212.329 298.607 212.678 299.12 213.654 299.32C214.451 298.551 214.911 297.445 214.787 296.26C214.573 294.215 212.734 292.725 210.69 292.939C208.644 293.153 207.155 294.992 207.369 297.037C207.465 297.947 207.894 298.736 208.508 299.325L208.286 297.204L209.203 297.108C209.181 297.024 209.158 296.94 209.149 296.85Z" fill="white"/>
<path d="M209.149 296.85C209.037 295.786 209.812 294.829 210.876 294.719C211.94 294.607 212.896 295.382 213.007 296.446C213.082 297.159 212.753 297.816 212.212 298.211C212.329 298.607 212.678 299.12 213.654 299.32C214.451 298.551 214.911 297.445 214.787 296.26C214.573 294.215 212.734 292.725 210.69 292.939C208.644 293.153 207.155 294.992 207.369 297.037C207.465 297.947 207.894 298.736 208.508 299.325L208.286 297.204L209.203 297.108C209.181 297.024 209.158 296.94 209.149 296.85Z" stroke="#1A2E35" stroke-width="1.33333" stroke-miterlimit="10" stroke-linecap="round" stroke-linejoin="round"/>
<path d="M206.304 303.76C206.452 304.086 206.637 304.43 206.865 304.791C206.865 304.791 206.195 306.78 207.54 308.638C207.54 308.638 207.62 311.328 208.573 311.752C209.527 312.177 211.045 312.693 211.018 311.946C210.991 311.2 210.543 308.928 208.831 308.427C208.831 308.427 210.805 308.82 210.582 307.719C210.359 306.618 209.991 305.042 208.783 304.59L208.131 304.302C208.131 304.302 209.692 304.59 209.568 303.403C209.443 302.217 209.301 300.84 208.407 300.505C208.199 300.427 207.96 300.359 207.715 300.302C206.389 299.989 205.539 302.072 206.304 303.76Z" fill="white"/>
<path d="M206.304 303.76C206.452 304.086 206.637 304.43 206.865 304.791C206.865 304.791 206.195 306.78 207.54 308.638C207.54 308.638 207.62 311.328 208.573 311.752C209.527 312.177 211.045 312.693 211.018 311.946C210.991 311.2 210.543 308.928 208.831 308.427C208.831 308.427 210.805 308.82 210.582 307.719C210.359 306.618 209.991 305.042 208.783 304.59L208.131 304.302C208.131 304.302 209.692 304.59 209.568 303.403C209.443 302.217 209.301 300.84 208.407 300.505C208.199 300.427 207.96 300.359 207.715 300.302C206.389 299.989 205.539 302.072 206.304 303.76Z" stroke="#1A2E35" stroke-width="1.33333" stroke-miterlimit="10" stroke-linecap="round" stroke-linejoin="round"/>
<path d="M234.257 304.571C234.257 304.571 232.42 300.496 229.4 298.371C226.381 296.247 225.263 292.109 224.033 293.115C222.803 294.122 223.922 298.5 225.822 300.001C227.723 301.502 225.598 304.857 230.296 308.995" fill="white"/>
<path d="M234.257 304.571C234.257 304.571 232.42 300.496 229.4 298.371C226.381 296.247 225.263 292.109 224.033 293.115C222.803 294.122 223.922 298.5 225.822 300.001C227.723 301.502 225.598 304.857 230.296 308.995" stroke="#1A2E35" stroke-width="1.33333" stroke-miterlimit="10" stroke-linecap="round" stroke-linejoin="round"/>
<path d="M345.182 316.483C344.768 319.051 344.324 321.714 343.852 324.481H279.092C278.987 323.612 279.602 321.865 280.187 318.825C272.972 321.271 260.385 317.474 260.385 317.474C261.953 313.348 260.867 302.866 260.867 302.866L268.213 301.308C268.213 301.308 271.264 269.372 273.587 260.222C276.051 250.515 289.537 239.916 334.89 243.046C334.89 243.046 355.817 242.65 359.065 256.521C362.096 269.457 346.051 315.888 345.182 316.483Z" fill="#38BFF2"/>
<g opacity="0.199997">
<g opacity="0.199997">
<path opacity="0.199997" d="M280.188 318.827C275.174 320.526 267.573 319.213 263.399 318.251C264.484 317.42 265.165 315.72 265.419 313.567C268.819 313.037 272.219 307.636 274.457 283.084C274.985 277.325 276.118 273.709 277.572 271.272C276.354 276.21 275.826 281.743 277.403 288.156C278.214 291.452 280.764 299.383 280.992 302.67C281.51 310.157 280.858 315.342 280.188 318.827Z" fill="black"/>
</g>
</g>
<g opacity="0.199997">
<g opacity="0.199997">
<path opacity="0.199997" d="M345.174 316.492C344.768 319.062 344.325 321.724 343.853 324.481H279.093C280.254 320.931 283.107 304.028 279.083 293.754C278.922 293.338 292.992 287.428 302.416 289.845C342.361 300.09 328.601 267.078 340.008 261.073L330.169 299.666L324.796 301.374C336.43 302.092 333.068 319.534 333.068 319.534C338.526 320.421 343.021 317.984 345.174 316.492Z" fill="black"/>
</g>
</g>
<path d="M345.183 316.483C344.769 319.051 344.325 321.714 343.853 324.481H279.094C278.989 323.612 279.603 321.865 280.188 318.825C272.974 321.271 260.386 317.474 260.386 317.474C261.954 313.348 260.868 302.866 260.868 302.866L268.214 301.308C268.214 301.308 271.265 269.372 273.588 260.222C276.052 250.515 289.538 239.916 334.891 243.046C334.891 243.046 355.818 242.65 359.066 256.521C362.097 269.457 346.052 315.888 345.183 316.483Z" stroke="#1A2E35" stroke-width="1.33333" stroke-miterlimit="10" stroke-linecap="round" stroke-linejoin="round"/>
<path d="M262.049 301.066C262.049 301.066 264.501 302.377 265.302 308.148C266.103 313.919 264.871 318.886 261.667 318.806C258.461 318.726 257.906 317.471 258.553 316.286C259.199 315.1 260.612 313.498 259.544 308.564C258.203 302.377 255.448 302.941 255.448 302.941C255.448 302.941 259.126 299.422 262.049 301.066Z" fill="#38BFF2"/>
<path d="M262.049 301.066C262.049 301.066 264.501 302.377 265.302 308.148C266.103 313.919 264.871 318.886 261.667 318.806C258.461 318.726 257.906 317.471 258.553 316.286C259.199 315.1 260.612 313.498 259.544 308.564C258.203 302.377 255.448 302.941 255.448 302.941C255.448 302.941 259.126 299.422 262.049 301.066V301.066Z" stroke="#1A2E35" stroke-width="1.33333" stroke-miterlimit="10" stroke-linecap="round" stroke-linejoin="round"/>
<g opacity="0.199997">
<g opacity="0.199997">
<path opacity="0.199997" d="M265.42 313.566C265.165 315.719 264.485 317.419 263.399 318.249C262.908 318.627 262.332 318.826 261.671 318.807C258.461 318.731 257.904 317.475 258.555 316.285C259.197 315.105 260.614 313.5 259.547 308.561C258.206 302.375 255.448 302.942 255.448 302.942C255.448 302.942 259.131 299.42 262.049 301.063C262.049 301.063 264.504 302.375 265.307 308.146C265.571 310.1 265.609 311.961 265.42 313.566Z" fill="black"/>
</g>
</g>
<path d="M323.741 231.496C323.741 231.496 307.458 236.433 300.052 233.8L298.517 243.685C298.517 243.685 305.717 249.96 328.801 242.247L323.741 231.496Z" fill="#38BFF2"/>
<path d="M323.741 231.496C323.741 231.496 307.458 236.433 300.052 233.8L298.517 243.685C298.517 243.685 305.717 249.96 328.801 242.247L323.741 231.496Z" stroke="#1A2E35" stroke-width="1.33333" stroke-miterlimit="10" stroke-linecap="round" stroke-linejoin="round"/>
<path d="M265.891 298.181C267.826 304.484 269.557 309.544 267.846 310.069C266.136 310.595 264.73 305.435 262.794 299.132C260.858 292.829 259.127 287.77 260.837 287.244C262.548 286.719 263.955 291.877 265.891 298.181Z" fill="#38BFF2"/>
<path d="M265.891 298.181C267.826 304.484 269.557 309.544 267.846 310.069C266.136 310.595 264.73 305.435 262.794 299.132C260.858 292.829 259.127 287.77 260.837 287.244C262.548 286.719 263.955 291.877 265.891 298.181Z" stroke="#1A2E35" stroke-width="1.33333" stroke-miterlimit="10" stroke-linecap="round" stroke-linejoin="round"/>
<path d="M262.547 298.332L265.646 297.381C265.192 295.893 264.766 294.486 264.357 293.215L261.276 294.16C261.651 295.442 262.088 296.846 262.547 298.332Z" fill="#1A2E35"/>
<path d="M262.265 290.231C262.265 290.231 263.713 287.33 265.044 289.379C266.375 291.426 266.65 297.652 267.588 297.66" stroke="#1A2E35" stroke-width="1.33333" stroke-miterlimit="10" stroke-linecap="round" stroke-linejoin="round"/>
<path d="M281.472 259.382C280.292 262.999 278.659 266.899 277.572 271.271C276.354 276.209 275.826 281.743 277.402 288.155C278.215 291.45 280.764 299.381 280.991 302.668C281.51 310.157 280.859 315.341 280.188 318.825C279.604 321.866 278.989 323.613 279.093 324.48" stroke="#1A2E35" stroke-width="1.33333" stroke-miterlimit="10" stroke-linecap="round" stroke-linejoin="round"/>
<path d="M321.554 302.448C321.554 302.448 295.212 306.047 286.33 306.25C284.964 306.281 280.888 305.776 280.888 305.776L274.573 301.553C274.573 301.553 269.706 300.832 267.319 301.379L264.601 304.933C264.601 304.933 261.206 306.026 263.145 308.598C263.145 308.598 262.399 310.573 264.039 312.065C264.039 312.065 264.188 314.302 265.679 315.196C265.679 315.196 265.978 317.283 267.618 317.88C269.258 318.476 279.546 316.835 282.676 315.941C285.809 315.047 316.224 319.818 328.152 319.52C328.152 319.52 338.366 307.592 321.554 302.448Z" fill="white"/>
<path d="M321.554 302.448C321.554 302.448 295.212 306.047 286.33 306.25C284.964 306.281 280.888 305.776 280.888 305.776L274.573 301.553C274.573 301.553 269.706 300.832 267.319 301.379L264.601 304.933C264.601 304.933 261.206 306.026 263.145 308.598C263.145 308.598 262.399 310.573 264.039 312.065C264.039 312.065 264.188 314.302 265.679 315.196C265.679 315.196 265.978 317.283 267.618 317.88C269.258 318.476 279.546 316.835 282.676 315.941C285.809 315.047 316.224 319.818 328.152 319.52C328.152 319.52 338.366 307.592 321.554 302.448V302.448Z" stroke="#1A2E35" stroke-width="1.33333" stroke-miterlimit="10" stroke-linecap="round" stroke-linejoin="round"/>
<path d="M321.967 202.696C321.967 202.696 315.013 205.41 310.897 197.914C309.114 194.664 305.503 187.887 305.503 187.887C304.476 190.543 305.737 194.588 305.737 194.588C303.383 193.555 298.827 193.312 298.827 193.312C297.211 190.605 296.74 184.474 296.74 184.474C294.502 188.211 295.15 193.574 295.15 193.574C290.369 194.237 287.415 195.865 285.238 197.771C285.83 200.18 286.046 203.935 285.847 211.739C285.59 221.936 290.489 224.727 295.26 228.538C300.032 232.348 313.119 234.324 317.632 214.397C317.632 214.397 327.096 210.877 322.465 203.483C322.308 203.232 322.142 202.969 321.967 202.696Z" fill="white"/>
<path d="M321.967 202.696C321.967 202.696 315.013 205.41 310.897 197.914C309.114 194.664 305.503 187.887 305.503 187.887C304.476 190.543 305.737 194.588 305.737 194.588C303.383 193.555 298.827 193.312 298.827 193.312C297.211 190.605 296.74 184.474 296.74 184.474C294.502 188.211 295.15 193.574 295.15 193.574C290.369 194.237 287.415 195.865 285.238 197.771C285.83 200.18 286.046 203.935 285.847 211.739C285.59 221.936 290.489 224.727 295.26 228.538C300.032 232.348 313.119 234.324 317.632 214.397C317.632 214.397 327.096 210.877 322.465 203.483C322.308 203.232 322.142 202.969 321.967 202.696Z" stroke="#1A2E35" stroke-width="1.33333" stroke-miterlimit="10" stroke-linecap="round" stroke-linejoin="round"/>
<path d="M314.224 190.466C317.2 196.564 322.38 201.26 329.018 202.987" stroke="#C0C0C0" stroke-width="1.33333" stroke-miterlimit="10"/>
<path d="M311.74 182.915C311.94 184.154 312.265 185.374 312.651 186.565" stroke="#C0C0C0" stroke-width="1.33333" stroke-miterlimit="10"/>
<path d="M316.457 183.369C316.457 183.369 321.817 193.605 330.204 193.849" stroke="#C0C0C0" stroke-width="1.33333" stroke-miterlimit="10"/>
<path d="M332.901 209.404C332.901 209.404 346.542 231.496 346.542 244.354" stroke="#C0C0C0" stroke-width="1.33333" stroke-miterlimit="10"/>
<path d="M329.289 215.293C329.289 215.293 332.665 227.618 338.088 233.8" stroke="#C0C0C0" stroke-width="1.33333" stroke-miterlimit="10"/>
<path d="M286.41 183.255C286.032 184.917 285.754 186.753 285.605 188.781" stroke="#C0C0C0" stroke-width="1.33333" stroke-miterlimit="10"/>
<path d="M297.579 171.678C297.579 171.678 291.229 172.871 287.081 180.356" stroke="#C0C0C0" stroke-width="1.33333" stroke-miterlimit="10"/>
<path d="M289.54 228.896C289.54 228.896 289.331 238.807 294.388 244.374" stroke="#C0C0C0" stroke-width="1.33333" stroke-miterlimit="10"/>
<path d="M298.518 198.549C305.397 197.2 308.417 200.705 308.417 200.705" stroke="#1A2E35" stroke-width="1.33333" stroke-linecap="round" stroke-linejoin="round"/>
<path d="M287.049 201.453C288.583 199.9 290.696 199.058 292.877 199.131" stroke="#1A2E35" stroke-width="1.33333" stroke-linecap="round" stroke-linejoin="round"/>
<path d="M303.006 221.633C305.126 220.419 306.31 217.271 306.31 217.271L305.868 217.509C303.099 218.996 300.08 219.961 296.963 220.356C298.953 222.45 301.597 222.44 303.006 221.633Z" stroke="#1A2E35" stroke-width="1.33333" stroke-linecap="round" stroke-linejoin="round"/>
<path d="M294.576 215.066C293.68 214.955 291.118 213.741 290.905 212.009C290.842 211.49 291.217 211.015 291.776 210.603C293.992 208.976 295.327 206.413 295.131 203.672C295.116 203.477 295.108 203.364 295.108 203.364" stroke="#1A2E35" stroke-width="1.33333" stroke-linecap="round" stroke-linejoin="round"/>
<path d="M303.38 201.314C304.031 201.233 304.701 202.317 304.875 203.723C305.047 205.129 304.659 206.335 304.008 206.416C303.355 206.496 302.687 205.42 302.514 204.013C302.339 202.601 302.728 201.394 303.38 201.314Z" fill="#1A2E35"/>
<path d="M292.029 205.383C292.199 206.765 291.818 207.948 291.18 208.026C290.541 208.106 289.884 207.05 289.714 205.668C289.544 204.287 289.924 203.104 290.563 203.025C291.203 202.947 291.859 204.003 292.029 205.383Z" fill="#1A2E35"/>
<path d="M313.165 202.502C313.165 202.502 312.281 200.005 313.287 198.687" stroke="#1A2E35" stroke-width="1.33333" stroke-linecap="round" stroke-linejoin="round"/>
<path d="M345.177 316.497C343.027 317.986 338.526 320.424 333.073 319.533C333.073 319.533 336.427 302.093 324.798 301.376L330.166 299.665L340.006 261.073" stroke="#1A2E35" stroke-width="1.33333" stroke-miterlimit="10" stroke-linecap="round" stroke-linejoin="round"/>
<path d="M333.072 299.666C333.072 299.666 339.301 301.305 341.051 306.67" stroke="#1A2E35" stroke-width="1.33333" stroke-miterlimit="10" stroke-linecap="round" stroke-linejoin="round"/>
<path d="M307.643 237.556C313.561 237.552 319.432 236.221 324.825 233.8" stroke="#1A2E35" stroke-width="1.33333" stroke-miterlimit="10" stroke-linecap="round" stroke-linejoin="round"/>
<path d="M299.613 236.635C300.94 236.993 302.307 237.207 303.673 237.351" stroke="#1A2E35" stroke-width="1.33333" stroke-miterlimit="10" stroke-linecap="round" stroke-linejoin="round"/>
<path d="M326.155 247.701C327.834 247.103 329.598 246.412 331.447 245.617" stroke="#1A2E35" stroke-width="1.33333" stroke-miterlimit="10" stroke-linecap="round" stroke-linejoin="round"/>
<path d="M297 247.844C297 247.844 303.331 253.857 320.093 249.564" stroke="#1A2E35" stroke-width="1.33333" stroke-miterlimit="10" stroke-linecap="round" stroke-linejoin="round"/>
<path d="M302.473 277.735C302.473 277.735 303.468 292.254 314.223 297.66" stroke="#1A2E35" stroke-width="1.33333" stroke-miterlimit="10" stroke-linecap="round" stroke-linejoin="round"/>
<path d="M321.289 302.681C321.289 302.681 323.412 298.015 329.731 300.318C329.731 300.318 335.712 302.375 337.503 308.526C339.291 314.676 337.055 320.155 332.693 320.379C328.333 320.603 327.537 320.268 328.27 318.925C329.004 317.583 330.518 313.938 328.611 309.376C325.897 302.885 321.289 302.681 321.289 302.681Z" fill="#38BFF2"/>
<g opacity="0.199997">
<g opacity="0.199997">
<path opacity="0.199997" d="M321.29 302.681C321.29 302.681 323.412 298.014 329.731 300.317C329.731 300.317 335.713 302.375 337.503 308.525C339.291 314.675 337.055 320.155 332.694 320.379C328.333 320.603 327.537 320.267 328.271 318.925C329.004 317.583 330.518 313.938 328.612 309.376C325.898 302.885 321.29 302.681 321.29 302.681Z" fill="black"/>
</g>
</g>
<path d="M321.289 302.681C321.289 302.681 323.412 298.014 329.731 300.317C329.731 300.317 335.712 302.375 337.502 308.525C339.291 314.675 337.055 320.155 332.693 320.379C328.332 320.603 327.536 320.267 328.27 318.925C329.004 317.583 330.518 313.938 328.611 309.376C325.897 302.885 321.289 302.681 321.289 302.681Z" stroke="#1A2E35" stroke-width="1.33333" stroke-miterlimit="10" stroke-linecap="round" stroke-linejoin="round"/>
<path d="M31.9672 283.48C31.9672 283.48 28.7198 255.706 0.000244141 266.896C0.000244141 266.896 24.4346 266.715 28.5678 287.641L32.3685 287.236L31.9672 283.48Z" fill="#38BFF2"/>
<g opacity="0.100006">
<g opacity="0.100006">
<path opacity="0.100006" d="M31.967 283.48C31.967 283.48 28.7196 255.705 0 266.896C0 266.896 24.4344 266.715 28.5675 287.641L32.3683 287.236L31.967 283.48Z" fill="black"/>
</g>
</g>
<path d="M32.3574 283.013C32.3574 283.013 29.874 253.397 24.4651 230.381C24.4651 230.381 40.9901 247.861 37.213 280.775L32.3574 283.013Z" fill="#38BFF2"/>
<g opacity="0.100006">
<g opacity="0.100006">
<path opacity="0.100006" d="M32.3572 283.013C32.3572 283.013 29.8737 253.397 24.4648 230.381C24.4648 230.381 40.9899 247.861 37.2127 280.775L32.3572 283.013Z" fill="black"/>
</g>
</g>
<path d="M30.755 302.617C30.755 302.617 25.992 261.824 10.1375 247.816C10.1375 247.816 38.4916 254.868 34.2904 298.192L30.755 302.617Z" fill="#38BFF2"/>
<path d="M35.7389 300.908C35.7389 300.908 42.6841 260.429 59.2677 247.293C59.2677 247.293 30.5755 252.812 32.4452 296.301L35.7389 300.908Z" fill="#38BFF2"/>
<path d="M50.2898 287.666H16.7676V293.49H17.8837V314.044C17.8837 319.808 22.5561 324.48 28.32 324.48H38.7374C44.5013 324.48 49.1736 319.808 49.1736 314.044V293.49H50.2898V287.666Z" fill="white"/>
<path d="M50.2898 287.666H16.7676V293.49H17.8837V314.044C17.8837 319.808 22.5561 324.48 28.32 324.48H38.7374C44.5013 324.48 49.1736 319.808 49.1736 314.044V293.49H50.2898V287.666Z" stroke="#1A2E35" stroke-width="1.33333" stroke-miterlimit="10"/>
<path d="M39.9004 293.215H44.3659H39.9004Z" fill="white"/>
<path d="M39.9004 293.215H44.3659" stroke="#1A2E35" stroke-width="1.33333" stroke-miterlimit="10"/>
<path d="M22.4272 293.215H35.3612H22.4272Z" fill="white"/>
<path d="M22.4272 293.215H35.3612" stroke="#1A2E35" stroke-width="1.33333" stroke-miterlimit="10"/>
<path d="M163.764 298.835L155.172 228.86C154.899 226.638 152.876 224.836 150.653 224.836H140.792L152.176 302.86H160.234C162.456 302.86 164.037 301.058 163.764 298.835Z" fill="#38BFF2"/>
<path d="M163.764 298.835L155.172 228.86C154.899 226.638 152.876 224.836 150.653 224.836H140.792L152.176 302.86H160.234C162.456 302.86 164.037 301.058 163.764 298.835Z" stroke="#1A2E35" stroke-width="1.33333" stroke-miterlimit="10" stroke-linecap="round" stroke-linejoin="round"/>
<path d="M158.103 302.859H59.0853C56.8634 302.859 54.8407 301.057 54.5668 298.834L45.9757 228.86C45.7028 226.637 47.2826 224.835 49.5055 224.835H148.523C150.745 224.835 152.769 226.637 153.041 228.86L161.633 298.834C161.906 301.057 160.326 302.859 158.103 302.859Z" fill="#1A2E35"/>
<g opacity="0.100006">
<g opacity="0.100006">
<path opacity="0.100006" d="M158.104 302.859H59.0855C56.8636 302.859 54.8409 301.057 54.5671 298.834L45.976 228.86C45.7031 226.637 47.2829 224.835 49.5057 224.835H148.523C150.746 224.835 152.769 226.637 153.041 228.86L161.633 298.834C161.906 301.057 160.326 302.859 158.104 302.859Z" fill="white"/>
</g>
</g>
<path d="M158.103 302.859H59.0853C56.8634 302.859 54.8407 301.057 54.5668 298.834L45.9757 228.86C45.7028 226.637 47.2826 224.835 49.5055 224.835H148.523C150.745 224.835 152.769 226.637 153.041 228.86L161.633 298.834C161.906 301.057 160.326 302.859 158.103 302.859Z" stroke="#1A2E35" stroke-width="1.33333" stroke-miterlimit="10" stroke-linecap="round" stroke-linejoin="round"/>
<path d="M111.933 318.761L115.887 273.692C115.981 272.609 115.128 271.677 114.041 271.677H89.0429C88.0825 271.677 87.2818 272.411 87.1977 273.369L82.8908 322.466C82.7955 323.549 83.6491 324.481 84.736 324.481H134.253C135.277 324.481 136.107 323.651 136.107 322.628C136.107 321.605 135.277 320.776 134.253 320.776H113.779C112.692 320.776 111.838 319.843 111.933 318.761Z" fill="#1A2E35"/>
<path d="M111.933 318.761L115.887 273.692C115.981 272.609 115.128 271.677 114.041 271.677H89.0429C88.0825 271.677 87.2818 272.411 87.1977 273.369L82.8908 322.466C82.7955 323.549 83.6491 324.481 84.736 324.481H134.253C135.277 324.481 136.107 323.651 136.107 322.628C136.107 321.605 135.277 320.776 134.253 320.776H113.779C112.692 320.776 111.838 319.843 111.933 318.761Z" stroke="#1A2E35" stroke-width="1.33333" stroke-miterlimit="10" stroke-linecap="round" stroke-linejoin="round"/>
<path d="M136.107 322.628C136.107 321.605 135.277 320.775 134.254 320.775H113.779C112.692 320.775 111.838 319.843 111.933 318.76L115.886 273.692C115.982 272.611 115.132 271.682 114.048 271.678C113.09 271.682 112.293 272.414 112.209 273.368L107.903 322.466C107.807 323.55 108.662 324.481 109.748 324.481H134.254C135.277 324.481 136.107 323.651 136.107 322.628Z" fill="#38BFF2"/>
<path d="M136.107 322.628C136.107 321.605 135.277 320.775 134.254 320.775H113.779C112.692 320.775 111.838 319.843 111.933 318.76L115.886 273.692C115.982 272.611 115.132 271.682 114.048 271.678C113.09 271.682 112.293 272.414 112.209 273.368L107.903 322.466C107.807 323.55 108.662 324.481 109.748 324.481H134.254C135.277 324.481 136.107 323.651 136.107 322.628Z" stroke="#1A2E35" stroke-width="1.33333" stroke-miterlimit="10" stroke-linecap="round" stroke-linejoin="round"/>
<path d="M22.5767 324.481H376.685" stroke="#1A2E35" stroke-width="1.33333" stroke-miterlimit="10" stroke-linecap="round" stroke-linejoin="round"/>
<path d="M352.997 152.999H334.38C331.964 152.999 330.004 154.958 330.004 157.376V166.433C330.004 168.85 331.964 170.808 334.38 170.808H339.246L340.667 179.166L348.132 170.808H352.997C355.415 170.808 357.373 168.85 357.373 166.433V157.376C357.373 154.958 355.415 152.999 352.997 152.999Z" fill="white"/>
<path d="M352.997 152.999H334.38C331.964 152.999 330.004 154.958 330.004 157.376V166.433C330.004 168.85 331.964 170.808 334.38 170.808H339.246L340.667 179.166L348.132 170.808H352.997C355.415 170.808 357.373 168.85 357.373 166.433V157.376C357.373 154.958 355.415 152.999 352.997 152.999Z" stroke="#1A2E35" stroke-width="1.33333" stroke-miterlimit="10" stroke-linecap="round" stroke-linejoin="round"/>
<path d="M324.46 126.206H305.843C303.427 126.206 301.467 128.165 301.467 130.582V139.639C301.467 142.057 303.427 144.016 305.843 144.016H310.709L314.396 152.373L319.594 144.016H324.46C326.878 144.016 328.837 142.057 328.837 139.639V130.582C328.837 128.165 326.878 126.206 324.46 126.206Z" fill="white"/>
<path d="M324.46 126.206H305.843C303.427 126.206 301.467 128.165 301.467 130.582V139.639C301.467 142.057 303.427 144.016 305.843 144.016H310.709L314.396 152.373L319.594 144.016H324.46C326.878 144.016 328.837 142.057 328.837 139.639V130.582C328.837 128.165 326.878 126.206 324.46 126.206Z" stroke="#1A2E35" stroke-width="1.33333" stroke-miterlimit="10" stroke-linecap="round" stroke-linejoin="round"/>
<path d="M288.233 135.609H270.652C268.369 135.609 266.519 137.459 266.519 139.741V148.295C266.519 150.578 268.369 152.429 270.652 152.429H275.247L280.042 160.32L283.638 152.429H288.233C290.516 152.429 292.367 150.578 292.367 148.295V139.741C292.367 137.459 290.516 135.609 288.233 135.609Z" fill="white"/>
<path d="M288.233 135.609H270.652C268.369 135.609 266.519 137.459 266.519 139.741V148.295C266.519 150.578 268.369 152.429 270.652 152.429H275.247L280.042 160.32L283.638 152.429H288.233C290.516 152.429 292.367 150.578 292.367 148.295V139.741C292.367 137.459 290.516 135.609 288.233 135.609Z" stroke="#1A2E35" stroke-width="1.33333" stroke-miterlimit="10" stroke-linecap="round" stroke-linejoin="round"/>
<path d="M274.591 141.169V143.853H275.181C275.578 143.853 275.791 143.671 275.791 143.105V141.917C275.791 141.35 275.578 141.169 275.181 141.169H274.591ZM277.038 141.996V143.026C277.038 144.295 276.425 144.985 275.181 144.985H274.591V147.964H273.346V140.036H275.181C276.425 140.036 277.038 140.727 277.038 141.996Z" fill="#1A2E35"/>
<path d="M278.919 147.964H277.675V140.035H278.919V143.433H280.336V140.035H281.605V147.964H280.336V144.566H278.919V147.964Z" fill="#1A2E35"/>
<path d="M283.759 141.168V143.853H284.347C284.744 143.853 284.959 143.671 284.959 143.105V141.916C284.959 141.35 284.744 141.168 284.347 141.168H283.759ZM286.205 141.995V143.026C286.205 144.295 285.594 144.985 284.347 144.985H283.759V147.963H282.512V140.036H284.347C285.594 140.036 286.205 140.726 286.205 141.995Z" fill="#1A2E35"/>
<path d="M312.483 136.334V137.387C312.483 138.655 311.848 139.38 310.626 139.38C309.402 139.38 308.768 138.655 308.768 137.387V133.264C308.768 131.996 309.402 131.272 310.626 131.272C311.848 131.272 312.483 131.996 312.483 133.264V134.034H311.305V133.185C311.305 132.618 311.056 132.404 310.66 132.404C310.263 132.404 310.015 132.618 310.015 133.185V137.466C310.015 138.033 310.263 138.237 310.66 138.237C311.056 138.237 311.305 138.033 311.305 137.466V136.334H312.483Z" fill="#1A2E35"/>
<path d="M315.476 134.885H316.992V135.768H315.476V137.319H314.592V135.768H313.074V134.885H314.592V133.356H315.476V134.885Z" fill="#1A2E35"/>
<path d="M319.963 134.884H321.479V135.768H319.963V137.318H319.079V135.768H317.561V134.884H319.079V133.355H319.963V134.884Z" fill="#1A2E35"/>
<path d="M334.96 162.771V161.565L340.005 159.707V160.93L336.539 162.168L340.005 163.406V164.629L334.96 162.771Z" fill="#1A2E35"/>
<path d="M344.973 156.752H346.444L342.172 167.585H340.702L344.973 156.752Z" fill="#1A2E35"/>
<path d="M347.141 164.629V163.406L350.607 162.169L347.141 160.93V159.707L352.186 161.565V162.771L347.141 164.629Z" fill="#1A2E35"/>
</svg>
