<svg width="409" height="355" viewBox="0 0 409 355" fill="none" xmlns="http://www.w3.org/2000/svg">
<path d="M319.591 231.593C313.137 236.958 315.276 268.269 295.32 254.785C275.363 241.301 309.402 233.303 307.456 225.66C304.73 214.959 259.722 227.817 267.273 207.321C274.824 186.826 301.731 217.649 308.804 210.019C315.302 203.009 282.914 177.657 298.017 173.342C313.119 169.026 309.867 205.707 319.591 205.704C327.157 205.701 325.749 170.645 339.66 183.05C353.572 195.456 323.162 207.678 327.143 215.376C330.167 221.227 354.11 206.782 353.032 220.266C351.953 233.75 326.379 225.95 319.591 231.593Z" fill="#38BFF2"/>
<path d="M315.276 215.558C315.276 215.558 329.84 233.211 328.221 281.215" stroke="#1A2E35" stroke-width="1.33333" stroke-miterlimit="10" stroke-linecap="round" stroke-linejoin="round"/>
<path d="M286.905 240.535C289.486 235.342 310.876 231.798 298.636 220.526C286.396 209.255 286.435 233.412 280.986 233.319C273.358 233.19 274.842 200.884 262.264 209.223C249.686 217.56 274.69 230.745 270.685 236.715C267.005 242.198 244.809 224.459 244.311 235.298C243.812 246.138 267.955 238.116 269.5 244.654C270.702 249.741 246.91 254.371 257.464 261.75C268.017 269.128 271.396 246.739 277.205 248.191C281.619 249.294 275.718 267.689 284.611 264.818C293.504 261.948 284.192 245.995 286.905 240.535Z" fill="#38BFF2"/>
<g opacity="0.300003">
<g opacity="0.300003">
<path opacity="0.300003" d="M286.905 240.535C289.485 235.342 310.876 231.798 298.635 220.526C286.395 209.255 286.435 233.411 280.985 233.319C273.358 233.19 274.842 200.884 262.264 209.223C249.685 217.56 274.689 230.745 270.684 236.715C267.005 242.198 244.808 224.458 244.311 235.298C243.812 246.138 267.955 238.116 269.5 244.654C270.702 249.741 246.91 254.371 257.463 261.749C268.017 269.128 271.396 246.739 277.204 248.191C281.619 249.294 275.717 267.689 284.61 264.818C293.504 261.948 284.191 245.995 286.905 240.535Z" fill="black"/>
</g>
</g>
<path d="M275.903 240.762C275.903 240.762 317.347 236.447 321.436 281.214" stroke="#1A2E35" stroke-width="1.33333" stroke-miterlimit="10" stroke-linecap="round" stroke-linejoin="round"/>
<path d="M354.911 235.908C361.365 241.273 359.226 272.583 379.183 259.1C399.139 245.615 365.101 237.619 367.047 229.975C369.772 219.273 414.781 232.132 407.23 211.636C399.679 191.14 372.772 221.964 365.698 214.334C359.202 207.323 391.588 181.972 376.486 177.657C361.383 173.342 364.635 210.023 354.911 210.019C347.345 210.015 348.754 174.959 334.843 187.365C320.931 199.77 351.341 211.992 347.36 219.69C344.335 225.542 320.392 211.097 321.47 224.581C322.549 238.064 348.124 230.265 354.911 235.908Z" fill="#38BFF2"/>
<g opacity="0.300003">
<g opacity="0.300003">
<path opacity="0.300003" d="M354.911 235.908C361.365 241.273 359.226 272.583 379.183 259.1C399.139 245.615 365.101 237.619 367.047 229.975C369.772 219.273 414.781 232.132 407.23 211.636C399.679 191.14 372.772 221.964 365.698 214.334C359.202 207.323 391.588 181.972 376.486 177.657C361.383 173.342 364.635 210.023 354.911 210.019C347.345 210.015 348.754 174.959 334.843 187.365C320.931 199.77 351.341 211.992 347.36 219.69C344.335 225.542 320.392 211.097 321.47 224.581C322.549 238.064 348.124 230.265 354.911 235.908Z" fill="white"/>
</g>
</g>
<path d="M359.504 219.873C359.504 219.873 340.627 245.077 336.312 287.148" stroke="#1A2E35" stroke-width="1.33333" stroke-miterlimit="10" stroke-linecap="round" stroke-linejoin="round"/>
<path d="M345.989 352.958H316.561C310.927 352.958 306.231 348.646 305.754 343.032L301.127 288.664C300.589 282.335 305.582 276.899 311.935 276.899H350.615C356.967 276.899 361.961 282.335 361.422 288.664L356.795 343.032C356.318 348.646 351.622 352.958 345.989 352.958Z" fill="#38BFF2"/>
<path d="M345.989 352.958H316.561C310.927 352.958 306.231 348.646 305.754 343.032L301.127 288.664C300.589 282.335 305.582 276.899 311.935 276.899H350.615C356.967 276.899 361.961 282.335 361.422 288.664L356.795 343.032C356.318 348.646 351.622 352.958 345.989 352.958Z" stroke="#1A2E35" stroke-width="1.33333" stroke-miterlimit="10" stroke-linecap="round" stroke-linejoin="round"/>
<path d="M125.64 274.874C135.473 274.874 163.885 268.455 163.885 268.455H87.3943C87.3943 268.455 115.806 274.874 125.64 274.874Z" fill="#1A2E35"/>
<path d="M125.64 274.874C135.473 274.874 163.885 268.455 163.885 268.455H87.3943C87.3943 268.455 115.806 274.874 125.64 274.874Z" stroke="#1A2E35" stroke-width="1.33333" stroke-miterlimit="10" stroke-linecap="round" stroke-linejoin="round"/>
<path d="M116.875 283.678H134.402V271.664H116.875V283.678Z" fill="#868686" stroke="#1A2E35" stroke-width="1.33333" stroke-miterlimit="10" stroke-linecap="round" stroke-linejoin="round"/>
<path d="M114.283 335.34H136.997V283.678H114.283V335.34Z" fill="#9A9A9A" stroke="#1A2E35" stroke-width="1.33333" stroke-miterlimit="10" stroke-linecap="round" stroke-linejoin="round"/>
<path d="M82.978 253.132H97.7388C96.0989 242.962 94.8888 232.598 94.1424 222.324H79.3806C80.127 232.598 81.3382 242.962 82.978 253.132Z" fill="#868686"/>
<path d="M82.978 253.132H97.7388C96.0989 242.962 94.8888 232.598 94.1424 222.324H79.3806C80.127 232.598 81.3382 242.962 82.978 253.132Z" stroke="#1A2E35" stroke-width="1.33333" stroke-miterlimit="10" stroke-linecap="round" stroke-linejoin="round"/>
<path d="M60.5561 131.339H124.186C131.665 131.339 136.559 137.653 135.114 145.097C131.04 168.004 128.632 190.651 127.839 213.913C127.718 220.654 122.589 225.86 115.844 225.86H62.2791C55.5342 225.86 49.4621 220.654 48.5963 213.913C46.0161 190.898 45.0842 168.255 45.805 145.097C46.159 137.653 53.0755 131.339 60.5561 131.339Z" fill="#868686"/>
<path d="M60.5561 131.339H124.186C131.665 131.339 136.559 137.653 135.114 145.097C131.04 168.004 128.632 190.651 127.839 213.913C127.718 220.654 122.589 225.86 115.844 225.86H62.2791C55.5342 225.86 49.4621 220.654 48.5963 213.913C46.0161 190.898 45.0842 168.255 45.805 145.097C46.159 137.653 53.0755 131.339 60.5561 131.339Z" stroke="#1A2E35" stroke-width="1.33333" stroke-miterlimit="10" stroke-linecap="round" stroke-linejoin="round"/>
<path d="M57.0906 145.096C56.3687 168.255 57.3017 190.899 59.8819 213.913C60.7477 220.654 66.8198 225.861 73.5647 225.861H115.843C122.589 225.861 127.719 220.654 127.838 213.913C128.633 190.651 131.04 168.004 135.114 145.096C136.56 137.654 131.666 131.339 124.187 131.339H71.8417C64.36 131.339 57.4445 137.654 57.0906 145.096Z" fill="#9A9A9A"/>
<path d="M57.0906 145.096C56.3687 168.255 57.3017 190.899 59.8819 213.913C60.7477 220.654 66.8198 225.861 73.5647 225.861H115.843C122.589 225.861 127.719 220.654 127.838 213.913C128.633 190.651 131.04 168.004 135.114 145.096C136.56 137.654 131.666 131.339 124.187 131.339H71.8417C64.36 131.339 57.4445 137.654 57.0906 145.096Z" stroke="#1A2E35" stroke-width="1.33333" stroke-miterlimit="10" stroke-linecap="round" stroke-linejoin="round"/>
<path d="M87.3938 344.614C87.3938 345.826 88.5101 346.728 89.6947 346.47C96.655 344.952 117.504 340.56 125.639 340.56C133.773 340.56 154.623 344.952 161.583 346.47C162.768 346.728 163.884 345.826 163.884 344.614C163.884 342.264 162.249 340.236 159.951 339.742C151.803 337.992 133.212 334.186 125.639 334.186C118.067 334.186 99.4751 337.992 91.3271 339.742C89.0294 340.236 87.3938 342.264 87.3938 344.614Z" fill="#1A2E35"/>
<path d="M87.3938 344.614C87.3938 345.826 88.5101 346.728 89.6947 346.47C96.655 344.952 117.504 340.56 125.639 340.56C133.773 340.56 154.623 344.952 161.583 346.47C162.768 346.728 163.884 345.826 163.884 344.614C163.884 342.264 162.249 340.236 159.951 339.742C151.803 337.992 133.212 334.186 125.639 334.186C118.067 334.186 99.4751 337.992 91.3271 339.742C89.0294 340.236 87.3938 342.264 87.3938 344.614Z" stroke="#1A2E35" stroke-width="1.33333" stroke-miterlimit="10" stroke-linecap="round" stroke-linejoin="round"/>
<path d="M163.885 350.855C165.843 350.855 167.428 349.27 167.428 347.312C167.428 345.356 165.843 343.769 163.885 343.769C161.929 343.769 160.343 345.356 160.343 347.312C160.343 349.27 161.929 350.855 163.885 350.855ZM163.885 340.771C167.498 340.771 170.426 343.7 170.426 347.312C170.426 350.924 167.498 353.854 163.885 353.854C160.273 353.854 157.344 350.924 157.344 347.312C157.344 343.7 160.273 340.771 163.885 340.771Z" fill="#868686"/>
<path d="M163.885 350.855C165.843 350.855 167.428 349.27 167.428 347.312C167.428 345.356 165.843 343.769 163.885 343.769C161.929 343.769 160.343 345.356 160.343 347.312C160.343 349.27 161.929 350.855 163.885 350.855ZM163.885 340.771C167.498 340.771 170.426 343.7 170.426 347.312C170.426 350.924 167.498 353.854 163.885 353.854C160.273 353.854 157.344 350.924 157.344 347.312C157.344 343.7 160.273 340.771 163.885 340.771Z" stroke="#1A2E35" stroke-width="1.33333" stroke-miterlimit="10" stroke-linecap="round" stroke-linejoin="round"/>
<path d="M125.639 350.855C127.596 350.855 129.181 349.27 129.181 347.312C129.181 345.356 127.596 343.769 125.639 343.769C123.683 343.769 122.096 345.356 122.096 347.312C122.096 349.27 123.683 350.855 125.639 350.855ZM125.639 340.771C129.252 340.771 132.18 343.7 132.18 347.312C132.18 350.924 129.252 353.854 125.639 353.854C122.026 353.854 119.098 350.924 119.098 347.312C119.098 343.7 122.026 340.771 125.639 340.771Z" fill="#868686"/>
<path d="M125.639 350.855C127.596 350.855 129.181 349.27 129.181 347.312C129.181 345.356 127.596 343.769 125.639 343.769C123.683 343.769 122.096 345.356 122.096 347.312C122.096 349.27 123.683 350.855 125.639 350.855ZM125.639 340.771C129.252 340.771 132.18 343.7 132.18 347.312C132.18 350.924 129.252 353.854 125.639 353.854C122.026 353.854 119.098 350.924 119.098 347.312C119.098 343.7 122.026 340.771 125.639 340.771Z" stroke="#1A2E35" stroke-width="1.33333" stroke-miterlimit="10" stroke-linecap="round" stroke-linejoin="round"/>
<path d="M88.1872 350.855C90.1448 350.855 91.7302 349.27 91.7302 347.312C91.7302 345.356 90.1448 343.769 88.1872 343.769C86.2307 343.769 84.6452 345.356 84.6452 347.312C84.6452 349.27 86.2307 350.855 88.1872 350.855ZM88.1872 340.771C91.8006 340.771 94.7295 343.7 94.7295 347.312C94.7295 350.924 91.8006 353.854 88.1872 353.854C84.5748 353.854 81.6459 350.924 81.6459 347.312C81.6459 343.7 84.5748 340.771 88.1872 340.771Z" fill="#868686"/>
<path d="M88.1872 350.855C90.1448 350.855 91.7302 349.27 91.7302 347.312C91.7302 345.356 90.1448 343.769 88.1872 343.769C86.2307 343.769 84.6452 345.356 84.6452 347.312C84.6452 349.27 86.2307 350.855 88.1872 350.855ZM88.1872 340.771C91.8006 340.771 94.7295 343.7 94.7295 347.312C94.7295 350.924 91.8006 353.854 88.1872 353.854C84.5748 353.854 81.6459 350.924 81.6459 347.312C81.6459 343.7 84.5748 340.771 88.1872 340.771Z" stroke="#1A2E35" stroke-width="1.33333" stroke-miterlimit="10" stroke-linecap="round" stroke-linejoin="round"/>
<path d="M106.251 251.064C131.993 251.86 157.119 250.749 182.69 247.684C187.896 246.984 192.106 250.548 192.106 255.772V257.021C192.106 262.246 187.896 267.154 182.69 267.855C157.119 270.919 131.993 272.03 106.251 271.233V251.064Z" fill="#9A9A9A"/>
<path d="M106.251 251.064C131.993 251.86 157.119 250.749 182.69 247.684C187.896 246.984 192.106 250.548 192.106 255.772V257.021C192.106 262.246 187.896 267.154 182.69 267.855C157.119 270.919 131.993 272.03 106.251 271.233V251.064Z" stroke="#1A2E35" stroke-width="1.33333" stroke-miterlimit="10" stroke-linecap="round" stroke-linejoin="round"/>
<path d="M66.16 267.52C82.004 269.501 97.7105 270.82 113.664 271.505C117.553 271.614 120.708 268.5 120.708 264.62V258.497C120.708 254.618 117.553 251.444 113.664 251.335C97.7105 250.65 82.004 249.332 66.16 247.351C62.2971 246.809 59.1721 249.456 59.1721 253.334V259.458C59.1721 263.338 62.2971 266.979 66.16 267.52Z" fill="#868686"/>
<path d="M66.16 267.52C82.004 269.501 97.7105 270.82 113.664 271.505C117.553 271.614 120.708 268.5 120.708 264.62V258.497C120.708 254.618 117.553 251.444 113.664 251.335C97.7105 250.65 82.004 249.332 66.16 247.351C62.2971 246.809 59.172 249.456 59.172 253.334V259.458C59.172 263.338 62.2971 266.979 66.16 267.52Z" stroke="#1A2E35" stroke-width="1.33333" stroke-miterlimit="10" stroke-linecap="round" stroke-linejoin="round"/>
<path d="M172.246 350.455C172.293 346.893 173.023 339.763 177.214 330.568L182.687 310.843L199.747 318.13L194.949 333.234C194.949 333.234 209.615 340.231 215.029 342.12C218.636 343.376 229.423 345.851 228.89 350.471C228.89 351.846 227.776 352.959 226.402 352.959H174.734C173.352 352.959 172.228 351.837 172.246 350.455Z" fill="white"/>
<path d="M172.246 350.455C172.293 346.893 173.023 339.763 177.214 330.568L182.687 310.843L199.747 318.13L194.949 333.234C194.949 333.234 209.615 340.231 215.029 342.12C218.636 343.376 229.423 345.851 228.89 350.471C228.89 351.846 227.776 352.959 226.402 352.959H174.734C173.352 352.959 172.228 351.837 172.246 350.455Z" stroke="#1A2E35" stroke-width="1.33333" stroke-miterlimit="10" stroke-linecap="round" stroke-linejoin="round"/>
<path d="M181.632 338.921C184.298 340.875 198.514 343.363 194.948 340.52C191.384 337.676 194.948 333.233 194.948 333.233C194.948 333.233 209.614 340.231 215.03 342.119C218.637 343.376 229.423 345.851 228.89 350.471C228.89 351.845 227.776 352.958 226.402 352.958H174.734C173.352 352.958 172.228 351.837 172.245 350.455C172.285 347.447 172.82 341.885 175.51 334.691C178.448 334.727 178.967 336.966 181.632 338.921Z" fill="#38BFF2"/>
<path d="M181.632 338.921C184.298 340.875 198.514 343.363 194.948 340.52C191.384 337.676 194.948 333.233 194.948 333.233C194.948 333.233 209.614 340.231 215.03 342.119C218.637 343.376 229.423 345.851 228.89 350.471C228.89 351.845 227.776 352.958 226.402 352.958H174.734C173.352 352.958 172.228 351.837 172.245 350.455C172.285 347.447 172.82 341.885 175.51 334.691C178.448 334.727 178.967 336.966 181.632 338.921Z" stroke="#1A2E35" stroke-width="1.33333" stroke-miterlimit="10" stroke-linecap="round" stroke-linejoin="round"/>
<path d="M159.904 352.958H122.055C121.273 352.958 120.605 352.404 120.457 351.636C119.877 348.628 120.009 341.901 123.423 332.967L123.759 314.831L143.148 318.129L140.689 333.59C140.689 333.59 148.496 342.18 152.203 343.719C154.81 344.8 160.73 344.914 161.526 351.145C161.649 352.108 160.875 352.958 159.904 352.958Z" fill="white"/>
<path d="M159.904 352.958H122.055C121.273 352.958 120.605 352.404 120.457 351.636C119.877 348.628 120.009 341.901 123.423 332.967L123.759 314.831L143.148 318.129L140.689 333.59C140.689 333.59 148.496 342.18 152.203 343.719C154.81 344.8 160.73 344.914 161.526 351.145C161.649 352.108 160.875 352.958 159.904 352.958Z" stroke="#1A2E35" stroke-width="1.33333" stroke-miterlimit="10" stroke-linecap="round" stroke-linejoin="round"/>
<path d="M129.813 338.989C133.814 341.787 136.763 342.12 134.897 337.923C133.032 333.727 140.688 333.59 140.688 333.59C140.688 333.59 148.495 342.179 152.203 343.719C154.809 344.799 160.731 344.914 161.526 351.144C161.649 352.108 160.876 352.959 159.905 352.959H122.056C121.272 352.959 120.605 352.404 120.458 351.636C119.878 348.627 120.01 341.9 123.424 332.967C126.344 333.678 125.81 336.192 129.813 338.989Z" fill="#38BFF2"/>
<path d="M129.813 338.989C133.814 341.787 136.763 342.12 134.897 337.923C133.032 333.727 140.688 333.59 140.688 333.59C140.688 333.59 148.495 342.179 152.203 343.719C154.809 344.799 160.731 344.914 161.526 351.144C161.649 352.108 160.876 352.959 159.905 352.959H122.056C121.272 352.959 120.605 352.404 120.458 351.636C119.878 348.627 120.01 341.9 123.424 332.967C126.344 333.678 125.81 336.192 129.813 338.989Z" stroke="#1A2E35" stroke-width="1.33333" stroke-miterlimit="10" stroke-linecap="round" stroke-linejoin="round"/>
<path d="M163.673 214.528C163.673 214.528 167.484 218.438 183.083 220.925C198.68 223.413 231.023 231.233 230.667 244.027C230.312 256.822 200.458 325.06 200.458 325.06C200.458 325.06 185.531 322.216 178.6 317.951C178.6 317.951 190.616 269.26 199.624 256.466C199.624 256.466 159.181 251.491 136.815 242.25C114.449 233.009 127.599 211.979 127.599 211.979L163.673 214.528Z" fill="#1A2E35"/>
<path d="M163.673 214.528C163.673 214.528 167.484 218.438 183.083 220.925C198.68 223.413 231.023 231.233 230.667 244.027C230.312 256.822 200.458 325.06 200.458 325.06C200.458 325.06 185.531 322.216 178.6 317.951C178.6 317.951 190.616 269.26 199.624 256.466C199.624 256.466 159.181 251.491 136.815 242.25C114.449 233.009 127.599 211.979 127.599 211.979L163.673 214.528Z" stroke="#1A2E35" stroke-width="1.33333" stroke-miterlimit="10" stroke-linecap="round" stroke-linejoin="round"/>
<path d="M138.263 212.732C138.263 212.732 132.526 222.347 136.815 227.678C141.105 233.009 165.435 242.961 162.688 255.045C159.941 267.128 150.857 284.188 144.932 324.704C144.932 324.704 131.154 322.572 121.913 318.663C121.913 318.663 120.382 277.435 131.098 259.665C131.098 259.665 100.41 253.979 97.3011 243.672C94.191 233.365 100.009 217.604 100.121 211.979L138.263 212.732Z" fill="#1A2E35"/>
<path d="M138.263 212.732C138.263 212.732 132.526 222.347 136.815 227.678C141.105 233.009 165.435 242.961 162.688 255.045C159.941 267.128 150.857 284.188 144.932 324.704C144.932 324.704 131.154 322.572 121.913 318.663C121.913 318.663 120.382 277.435 131.098 259.665C131.098 259.665 100.41 253.979 97.3011 243.672C94.191 233.365 100.009 217.604 100.121 211.979L138.263 212.732Z" stroke="#1A2E35" stroke-width="1.33333" stroke-miterlimit="10" stroke-linecap="round" stroke-linejoin="round"/>
<path d="M156.751 227.999C157.431 227.955 158.138 227.962 158.875 228.034" stroke="#808080" stroke-linecap="round" stroke-linejoin="round"/>
<path d="M155.402 221.637C155.402 221.637 149.099 223.491 146.627 231.704C146.431 232.355 147.242 232.853 147.72 232.369C149.032 231.043 151.079 229.413 153.79 228.558" stroke="#808080" stroke-linecap="round" stroke-linejoin="round"/>
<path d="M202.59 256.022C202.59 252.556 217.517 250.691 213.518 247.492C209.52 244.294 200.457 254.689 200.457 254.689" stroke="#808080" stroke-linecap="round" stroke-linejoin="round"/>
<path d="M129.243 269.883C129.243 265.914 143.508 263.752 142.795 259.487C142.083 255.222 133.02 263.619 133.02 263.619" stroke="#808080" stroke-linecap="round" stroke-linejoin="round"/>
<path d="M202.029 325.303L200.459 328.927C200.28 329.339 199.839 329.568 199.402 329.469C195.954 328.692 181.58 325.296 176.533 321.676C176.232 321.461 176.107 321.073 176.195 320.713L177.174 316.673C177.319 316.075 177.99 315.78 178.531 316.076C180.798 317.315 187.123 320.268 201.401 324.028C201.955 324.173 202.256 324.778 202.029 325.303Z" fill="#9A9A9A"/>
<path d="M202.029 325.303L200.459 328.927C200.28 329.339 199.839 329.568 199.402 329.469C195.954 328.692 181.58 325.296 176.533 321.676C176.232 321.461 176.107 321.073 176.195 320.713L177.174 316.673C177.319 316.075 177.99 315.78 178.531 316.076C180.798 317.315 187.123 320.268 201.401 324.028C201.955 324.173 202.256 324.778 202.029 325.303Z" stroke="#1A2E35" stroke-width="1.33333" stroke-miterlimit="10" stroke-linecap="round" stroke-linejoin="round"/>
<path d="M146.668 322.318C146.747 321.773 146.22 321.322 145.705 321.513C144.683 321.893 142.951 322.189 140.35 321.594C136.397 320.691 125.079 317.109 121.713 316.035C121.237 315.883 120.758 316.241 120.758 316.741V321.454C120.758 321.747 120.923 322.008 121.19 322.126C123.837 323.305 138.003 329.373 145.417 327.72C145.713 327.653 145.93 327.401 145.974 327.1L146.668 322.318Z" fill="#9A9A9A"/>
<path d="M146.668 322.318C146.747 321.773 146.22 321.322 145.705 321.513C144.683 321.893 142.951 322.189 140.35 321.594C136.397 320.691 125.079 317.109 121.713 316.035C121.237 315.883 120.758 316.241 120.758 316.741V321.454C120.758 321.747 120.923 322.008 121.19 322.126C123.837 323.305 138.003 329.373 145.417 327.72C145.713 327.653 145.93 327.401 145.974 327.1L146.668 322.318Z" stroke="#1A2E35" stroke-width="1.33333" stroke-miterlimit="10" stroke-linecap="round" stroke-linejoin="round"/>
<path d="M135.266 223.628C135.401 225.088 135.859 226.49 136.814 227.678C139.944 231.566 153.734 237.913 159.903 245.752" stroke="#808080" stroke-width="1.33333" stroke-linecap="round" stroke-linejoin="round"/>
<path d="M135.931 218.206C135.706 218.973 135.515 219.783 135.388 220.607" stroke="#808080" stroke-width="1.33333" stroke-linecap="round" stroke-linejoin="round"/>
<path d="M217.587 344.518C217.587 344.518 216.521 346.206 215.721 349.583H177.215C177.215 349.583 177.112 347.001 175.072 345.185" stroke="#1A2E35" stroke-width="1.33333" stroke-miterlimit="10" stroke-linecap="round" stroke-linejoin="round"/>
<path d="M150.682 344.518C150.682 344.518 145.351 344.918 143.352 349.583H123.227C123.227 349.583 122.161 347.184 122.161 345.185" stroke="#1A2E35" stroke-width="1.33333" stroke-miterlimit="10" stroke-linecap="round" stroke-linejoin="round"/>
<path d="M182.241 154.226C181.747 156.109 181.239 157.973 180.732 159.796C175.401 178.988 168.471 215.506 168.471 215.506C134.352 222.703 98.3674 215.506 98.3674 215.506C98.1712 207.544 99.1404 197.044 100.22 186.014C94.625 184.466 90.5904 179.301 90.3708 170.725C90.1042 160.329 91.9882 141.612 93.0363 132.874C93.9586 125.184 93.3029 120.612 105.213 114.786C111.181 111.34 121.092 109.71 133.286 108.084C157.276 104.886 174.587 109.733 180.732 112.349C185.602 111.067 186.957 116.786 186.957 116.786C189.656 114.742 192.788 123.38 192.788 123.38C200.68 133.45 206.887 150.405 208.95 156.452C209.402 157.777 210.248 158.921 211.36 159.769C216.958 164.037 213.846 169.314 213.846 169.314L202.384 172.827C202.384 172.827 196.832 174.272 192.589 166.969C189.04 160.86 183.24 150.504 182.241 154.226Z" fill="#38BFF2"/>
<g opacity="0.300003">
<g opacity="0.300003">
<path opacity="0.300003" d="M200.273 168.007C200.273 168.007 200.54 162.677 204.805 161.744C209.07 160.811 203.605 159.219 200.273 160.016C196.941 160.811 197.709 157.879 194.86 153.081C192.01 148.283 190.611 144.49 188.178 147.257C185.745 150.023 183.268 150.404 182.241 154.226C181.215 158.047 186.279 166.968 186.279 166.968L194.235 173.139L198.274 175.404H204.307L206.367 170.19L200.273 168.007Z" fill="black"/>
</g>
</g>
<path d="M182.242 154.226C181.747 156.109 181.24 157.973 180.732 159.796C175.401 178.988 168.472 215.506 168.472 215.506C134.353 222.703 98.3679 215.506 98.3679 215.506C98.1717 207.544 99.1409 197.044 100.221 186.014C94.6255 184.466 90.5909 179.301 90.3713 170.725C90.1047 160.329 91.9887 141.611 93.0368 132.874C93.9591 125.184 93.3033 120.612 105.213 114.785C111.182 111.339 121.092 109.71 133.287 108.084C157.276 104.886 174.588 109.733 180.732 112.349C185.603 111.066 186.958 116.786 186.958 116.786C189.656 114.742 192.789 123.38 192.789 123.38C200.68 133.45 206.888 150.405 208.951 156.452C209.403 157.776 210.248 158.92 211.36 159.769C216.958 164.037 213.847 169.314 213.847 169.314L202.385 172.827C202.385 172.827 196.832 174.272 192.59 166.969C189.04 160.86 183.241 150.504 182.242 154.226Z" stroke="#1A2E35" stroke-width="1.33333" stroke-miterlimit="10" stroke-linecap="round" stroke-linejoin="round"/>
<g opacity="0.300003">
<g opacity="0.300003">
<path opacity="0.300003" d="M98.3688 215.506C98.227 209.746 98.6983 202.647 99.3764 194.991C98.2142 211.222 132.024 216.301 133.09 207.504C134.156 198.702 100.222 186.014 118.687 190.45C134.801 194.32 166.021 190.622 173.705 189.619C170.754 203.487 168.473 215.506 168.473 215.506C134.354 222.703 98.3688 215.506 98.3688 215.506Z" fill="black"/>
</g>
</g>
<g opacity="0.300003">
<g opacity="0.300003">
<path opacity="0.300003" d="M113.871 133.94C113.871 133.94 118.695 148.067 118.686 155.531C118.675 162.987 132.22 167.997 132.244 168.007C124.991 166.528 117.93 164.578 114.555 163.603C113.358 163.258 112.575 162.121 112.684 160.88C113.349 153.228 114.07 142.924 113.87 133.94H113.871Z" fill="black"/>
</g>
</g>
<path d="M186.71 130.383C186.71 130.383 186.872 140.545 183.154 149.885C182.808 150.751 183.792 151.541 184.55 150.998C186.379 149.689 188.966 147.02 191.305 141.645" stroke="#1A2E35" stroke-miterlimit="10" stroke-linecap="round" stroke-linejoin="round"/>
<path d="M96.235 173.923C99.0477 164.595 103.916 162.258 107.689 162.024C108.296 161.986 108.498 161.193 107.965 160.904C105.774 159.718 101.501 158.781 96.235 164.593" stroke="#1A2E35" stroke-miterlimit="10" stroke-linecap="round" stroke-linejoin="round"/>
<path d="M150.322 147.219C150.322 148.104 151.039 148.82 151.923 148.82C152.808 148.82 153.526 148.104 153.526 147.219C153.526 146.334 152.808 145.617 151.923 145.617C151.039 145.617 150.322 146.334 150.322 147.219Z" fill="#9A9A9A"/>
<path d="M150.322 147.219C150.322 148.104 151.039 148.82 151.923 148.82C152.808 148.82 153.526 148.104 153.526 147.219C153.526 146.334 152.808 145.617 151.923 145.617C151.039 145.617 150.322 146.334 150.322 147.219Z" stroke="#1A2E35" stroke-miterlimit="10" stroke-linecap="round" stroke-linejoin="round"/>
<path d="M148.151 165.367C148.151 166.252 148.868 166.969 149.753 166.969C150.638 166.969 151.354 166.252 151.354 165.367C151.354 164.482 150.638 163.765 149.753 163.765C148.868 163.765 148.151 164.482 148.151 165.367Z" fill="#9A9A9A"/>
<path d="M148.151 165.367C148.151 166.252 148.868 166.969 149.753 166.969C150.638 166.969 151.354 166.252 151.354 165.367C151.354 164.482 150.638 163.765 149.753 163.765C148.868 163.765 148.151 164.482 148.151 165.367Z" stroke="#1A2E35" stroke-miterlimit="10" stroke-linecap="round" stroke-linejoin="round"/>
<path d="M142.795 209.105C142.795 209.99 143.513 210.708 144.398 210.708C145.281 210.708 145.999 209.99 145.999 209.105C145.999 208.22 145.281 207.504 144.398 207.504C143.513 207.504 142.795 208.22 142.795 209.105Z" fill="#9A9A9A"/>
<path d="M142.795 209.105C142.795 209.99 143.513 210.708 144.398 210.708C145.281 210.708 145.999 209.99 145.999 209.105C145.999 208.22 145.281 207.504 144.398 207.504C143.513 207.504 142.795 208.22 142.795 209.105Z" stroke="#1A2E35" stroke-width="1.33333" stroke-miterlimit="10" stroke-linecap="round" stroke-linejoin="round"/>
<path d="M173.412 177.255C173.412 177.255 178.649 182.251 176.158 182.329C173.669 182.407 170.518 178.987 167.63 178.587C164.74 178.188 169.405 176.422 169.405 176.422L173.412 177.255Z" fill="white"/>
<path d="M173.412 177.255C173.412 177.255 178.649 182.251 176.158 182.329C173.669 182.407 170.518 178.987 167.63 178.587C164.74 178.188 169.405 176.422 169.405 176.422L173.412 177.255Z" stroke="#1A2E35" stroke-width="1.33333" stroke-miterlimit="10" stroke-linecap="round" stroke-linejoin="round"/>
<path d="M142.843 171.643C143.312 171.216 143.947 171.014 144.58 171.066C147.146 171.271 154.494 171.829 157.276 171.657C162.195 171.354 176.703 168.281 176.703 168.281C177.039 168.223 177.385 168.242 177.712 168.338L186.696 170.977C187.023 171.074 187.324 171.244 187.576 171.475L193.013 176.472C193.193 176.638 193.344 176.831 193.461 177.045L194.587 179.11C195.065 179.983 194.903 181.068 194.193 181.765L185.195 182.046C184.639 182.064 184.098 181.873 183.675 181.511L181.011 179.226C180.834 179.074 180.684 178.894 180.56 178.695C179.903 177.642 177.392 174.115 173.411 174.456C173.411 174.456 181.932 178.988 180.333 180.853C178.734 182.719 172.203 177.388 170.071 177.921C167.984 178.443 167.796 183.684 156.191 181.79C155.676 181.705 155.141 181.726 154.639 181.865L144.085 184.817C142.763 185.186 141.405 184.393 141.065 183.064C140.275 179.976 139.554 174.641 142.843 171.643Z" fill="white"/>
<path d="M142.843 171.643C143.312 171.216 143.947 171.014 144.58 171.066C147.146 171.271 154.494 171.829 157.276 171.657C162.195 171.354 176.703 168.281 176.703 168.281C177.039 168.223 177.385 168.242 177.712 168.338L186.696 170.977C187.023 171.074 187.324 171.244 187.576 171.475L193.013 176.472C193.193 176.638 193.344 176.831 193.461 177.045L194.587 179.11C195.065 179.983 194.903 181.068 194.193 181.765L185.195 182.046C184.639 182.064 184.098 181.873 183.675 181.511L181.011 179.226C180.834 179.074 180.684 178.894 180.56 178.695C179.903 177.642 177.392 174.115 173.411 174.456C173.411 174.456 181.932 178.988 180.333 180.853C178.734 182.719 172.203 177.388 170.071 177.921C167.984 178.443 167.796 183.684 156.191 181.79C155.676 181.705 155.141 181.726 154.639 181.865L144.085 184.817C142.763 185.186 141.405 184.393 141.065 183.064C140.275 179.976 139.554 174.641 142.843 171.643Z" stroke="#1A2E35" stroke-width="1.33333" stroke-miterlimit="10" stroke-linecap="round" stroke-linejoin="round"/>
<path d="M175.449 170.191L177.713 170.573C178.816 170.759 179.846 171.248 180.688 171.984L183.04 174.043C183.455 174.406 183.818 174.823 184.119 175.283L185.663 177.645C185.833 177.905 186.025 178.149 186.234 178.38C187.151 179.39 189.674 182.392 186.948 181.992" fill="white"/>
<path d="M175.449 170.191L177.713 170.573C178.816 170.759 179.846 171.248 180.688 171.984L183.04 174.043C183.455 174.406 183.818 174.823 184.119 175.283L185.663 177.645C185.833 177.905 186.025 178.149 186.234 178.38C187.151 179.39 189.674 182.392 186.948 181.992" stroke="#1A2E35" stroke-width="1.33333" stroke-miterlimit="10" stroke-linecap="round" stroke-linejoin="round"/>
<path d="M181.813 170.991L184.153 171.623C184.882 171.82 185.549 172.198 186.094 172.721L187.918 174.473C188.091 174.639 188.251 174.818 188.395 175.011L191.389 178.987C191.389 178.987 192.992 181.803 191.389 181.853" fill="white"/>
<path d="M181.813 170.991L184.153 171.623C184.882 171.82 185.549 172.198 186.094 172.721L187.918 174.473C188.091 174.639 188.251 174.818 188.395 175.011L191.389 178.987C191.389 178.987 192.992 181.803 191.389 181.853" stroke="#1A2E35" stroke-width="1.33333" stroke-miterlimit="10" stroke-linecap="round" stroke-linejoin="round"/>
<path d="M113.801 131.678C114.195 141.148 113.406 152.578 112.683 160.88C112.576 162.121 113.357 163.257 114.554 163.603C119.21 164.947 130.883 168.154 140.397 169.409" stroke="#1A2E35" stroke-width="1.33333" stroke-miterlimit="10" stroke-linecap="round" stroke-linejoin="round"/>
<path d="M113.27 125.067C113.409 126.151 113.523 127.291 113.614 128.476" stroke="#1A2E35" stroke-miterlimit="10" stroke-linecap="round" stroke-linejoin="round"/>
<path d="M109.691 115.081C110.914 116.133 111.814 118.082 112.461 120.646" stroke="#1A2E35" stroke-miterlimit="10" stroke-linecap="round" stroke-linejoin="round"/>
<path d="M163.077 108.75C163.077 108.75 162.411 106.618 158.812 105.418C155.214 104.219 142.763 102.297 136.356 105.418C129.947 108.539 142.22 125.477 142.22 125.477L147.95 133.339L153.014 137.138L155.281 130.384L158.213 127.342C158.213 127.342 164.543 122.145 164.01 117.013C163.477 111.883 163.077 108.75 163.077 108.75Z" fill="white"/>
<path d="M136.906 108.046C145.37 134.617 152.833 135.805 152.833 135.805C155.321 126.032 157.453 128.165 160.83 122.057C163.539 117.158 162.622 110.946 162.155 108.683C162.041 108.133 161.692 107.655 161.191 107.4C152.793 103.125 142.516 104.697 138.278 105.633C137.2 105.871 136.571 106.995 136.906 108.046ZM131.621 108.308C132.621 104.802 137.195 103.819 137.195 103.819C159.052 100.087 163.673 108.032 163.673 108.032C168.115 120.419 163.673 130.383 163.673 130.383C163.673 130.383 157.453 127.809 156.387 130.383C155.321 132.957 153.366 138.471 153.366 138.471C153.366 138.471 149.101 136.338 145.725 131.896C142.349 127.453 134.408 131.896 134.408 131.896C129.311 123.011 131.621 108.308 131.621 108.308Z" fill="#38BFF2"/>
<g opacity="0.399994">
<g opacity="0.399994">
<path opacity="0.399994" d="M136.906 108.046C145.37 134.618 152.833 135.805 152.833 135.805C155.321 126.032 157.453 128.165 160.83 122.058C163.539 117.158 162.622 110.947 162.155 108.683C162.041 108.133 161.693 107.655 161.191 107.4C152.793 103.125 142.517 104.697 138.278 105.634C137.2 105.871 136.571 106.995 136.906 108.046ZM131.621 108.309C132.621 104.802 137.195 103.819 137.195 103.819C159.053 100.087 163.674 108.033 163.674 108.033C168.115 120.419 163.674 130.384 163.674 130.384C163.674 130.384 157.453 127.809 156.387 130.384C155.321 132.958 153.366 138.471 153.366 138.471C153.366 138.471 149.102 136.339 145.725 131.897C142.349 127.454 134.408 131.897 134.408 131.897C129.311 123.011 131.621 108.309 131.621 108.309Z" fill="white"/>
</g>
</g>
<path d="M136.906 108.046C145.369 134.617 152.833 135.805 152.833 135.805C155.32 126.032 157.453 128.165 160.829 122.057C163.539 117.158 162.622 110.946 162.155 108.683C162.041 108.133 161.692 107.655 161.191 107.4C152.792 103.125 142.516 104.697 138.278 105.633C137.2 105.871 136.571 106.995 136.906 108.046ZM131.62 108.308C132.621 104.802 137.195 103.819 137.195 103.819C159.052 100.087 163.673 108.032 163.673 108.032C168.115 120.419 163.673 130.383 163.673 130.383C163.673 130.383 157.453 127.809 156.387 130.383C155.32 132.957 153.366 138.471 153.366 138.471C153.366 138.471 149.101 136.338 145.724 131.896C142.349 127.453 134.408 131.896 134.408 131.896C129.311 123.011 131.62 108.308 131.62 108.308V108.308Z" stroke="#1A2E35" stroke-width="1.33333" stroke-miterlimit="10" stroke-linecap="round" stroke-linejoin="round"/>
<path d="M167.305 67.705C167.305 67.705 186.141 71.4773 175.767 83.7292C164.262 97.3171 167.305 67.705 167.305 67.705Z" fill="#1A2E35"/>
<path d="M167.305 67.705C167.305 67.705 186.141 71.4773 175.767 83.7292C164.262 97.3171 167.305 67.705 167.305 67.705Z" stroke="#1A2E35" stroke-width="1.33333" stroke-miterlimit="10" stroke-linecap="round" stroke-linejoin="round"/>
<path d="M174.733 97.599C174.733 97.599 179.211 79.4733 170.681 70.7655C162.152 62.0588 152.911 60.2814 145.98 64.5463C139.05 68.8111 136.207 79.4733 137.273 84.9825C138.34 90.4906 137.819 110.216 147.32 118.39C156.82 126.565 162.668 124.55 168.95 113.414C173.078 106.098 175.053 103.996 174.733 97.599Z" fill="white"/>
<path d="M174.733 97.599C174.733 97.599 179.211 79.4733 170.681 70.7655C162.152 62.0588 152.911 60.2814 145.98 64.5463C139.05 68.8111 136.207 79.4733 137.273 84.9825C138.34 90.4906 137.819 110.216 147.32 118.39C156.82 126.565 162.668 124.55 168.95 113.414C173.078 106.098 175.053 103.996 174.733 97.599Z" stroke="#1A2E35" stroke-width="1.33333" stroke-miterlimit="10" stroke-linecap="round" stroke-linejoin="round"/>
<path d="M141.719 94.0454C141.719 94.0454 148.88 86.9369 151.073 78.5853C153.266 70.2336 154.51 68.8112 162.684 72.8991C170.859 76.9859 183.613 71.4842 180.277 61.1707C176.77 50.3305 166.061 64.3694 155.754 60.8146C145.447 57.2609 138.137 63.6582 138.121 73.0761C138.121 73.0761 131.892 79.1184 138.137 94.7566L141.719 94.0454Z" fill="#1A2E35"/>
<path d="M141.719 94.0454C141.719 94.0454 148.88 86.9369 151.073 78.5853C153.266 70.2336 154.51 68.8112 162.684 72.8991C170.859 76.9859 183.613 71.4842 180.277 61.1707C176.77 50.3305 166.061 64.3694 155.754 60.8146C145.447 57.2609 138.137 63.6582 138.121 73.0761C138.121 73.0761 131.892 79.1184 138.137 94.7566L141.719 94.0454Z" stroke="#1A2E35" stroke-width="1.33333" stroke-miterlimit="10" stroke-linecap="round" stroke-linejoin="round"/>
<path d="M143.966 92.8531C143.966 92.8531 142.154 82.9171 137.114 83.8383C132.075 84.7606 135.678 99.4211 141.606 97.8217" fill="white"/>
<path d="M143.966 92.8531C143.966 92.8531 142.154 82.9171 137.114 83.8383C132.075 84.7606 135.678 99.4211 141.606 97.8217" stroke="#1A2E35" stroke-width="1.33333" stroke-miterlimit="10" stroke-linecap="round" stroke-linejoin="round"/>
<path d="M167.927 96.222C167.927 96.222 169.902 105.443 169.26 107.028C168.617 108.614 162.512 107.4 162.512 107.4" fill="white"/>
<path d="M167.927 96.222C167.927 96.222 169.902 105.443 169.26 107.028C168.617 108.614 162.512 107.4 162.512 107.4" stroke="#1A2E35" stroke-width="1.33333" stroke-miterlimit="10" stroke-linecap="round" stroke-linejoin="round"/>
<path d="M161.663 111.416C161.663 111.416 156.882 113.304 152.675 107.028L161.663 111.416Z" fill="white"/>
<path d="M161.663 111.416C161.663 111.416 156.882 113.304 152.675 107.028" stroke="#1A2E35" stroke-width="1.33333" stroke-miterlimit="10" stroke-linecap="round" stroke-linejoin="round"/>
<path d="M171.198 96.991C171.02 97.8504 171.244 98.6234 171.699 98.7183C172.153 98.8121 172.668 98.1926 172.846 97.3332C173.024 96.4739 172.8 95.7009 172.345 95.607C171.89 95.5121 171.377 96.1316 171.198 96.991Z" fill="#1A2E35"/>
<path d="M159.505 96.0513C159.327 96.9106 159.551 97.6836 160.006 97.7775C160.46 97.8724 160.975 97.2518 161.153 96.3935C161.332 95.5341 161.108 94.7611 160.652 94.6662C160.197 94.5724 159.683 95.1919 159.505 96.0513Z" fill="#1A2E35"/>
<path d="M168.74 96.5916C168.499 99.0066 170.927 101.228 174.163 101.551C177.399 101.874 180.218 100.178 180.46 97.7634C180.701 95.3474 178.158 94.2811 174.922 93.9581C171.686 93.635 168.982 94.1756 168.74 96.5916Z" stroke="#1A2E35" stroke-width="1.33333" stroke-miterlimit="10" stroke-linecap="round" stroke-linejoin="round"/>
<path d="M153.651 95.083C153.409 97.499 155.838 99.7189 159.074 100.042C162.31 100.366 165.129 98.6697 165.37 96.2548C165.612 93.8387 163.069 92.7736 159.833 92.4505C156.597 92.1274 153.893 92.668 153.651 95.083Z" stroke="#1A2E35" stroke-width="1.33333" stroke-miterlimit="10" stroke-linecap="round" stroke-linejoin="round"/>
<path d="M168.74 96.5917L165.37 96.2548L168.74 96.5917Z" fill="white"/>
<path d="M168.74 96.5917L165.37 96.2548" stroke="#1A2E35" stroke-width="1.33333" stroke-miterlimit="10" stroke-linecap="round" stroke-linejoin="round"/>
<path d="M154.066 93.8735L141.671 86.5646L154.066 93.8735Z" fill="white"/>
<path d="M154.066 93.8735L141.671 86.5646" stroke="#1A2E35" stroke-width="1.33333" stroke-miterlimit="10" stroke-linecap="round" stroke-linejoin="round"/>
<path d="M139.545 105.242L138.961 106.662L139.545 105.242Z" fill="white"/>
<path d="M139.545 105.242L138.961 106.662" stroke="#1A2E35" stroke-width="1.33333" stroke-miterlimit="10" stroke-linecap="round" stroke-linejoin="round"/>
<path d="M175.728 92.6944C175.728 92.6944 173.841 90.2922 171.524 91.4491L175.728 92.6944Z" fill="white"/>
<path d="M175.728 92.6944C175.728 92.6944 173.841 90.2922 171.524 91.4491" stroke="#1A2E35" stroke-width="1.33333" stroke-miterlimit="10" stroke-linecap="round" stroke-linejoin="round"/>
<path d="M156.41 91.6208C156.41 91.6208 159.727 88.4595 162.918 90.6772L156.41 91.6208Z" fill="white"/>
<path d="M156.41 91.6208C156.41 91.6208 159.727 88.4595 162.918 90.6772" stroke="#1A2E35" stroke-width="1.33333" stroke-miterlimit="10" stroke-linecap="round" stroke-linejoin="round"/>
<path d="M171.541 62.3669C166.498 63.9705 158.009 65.9281 151.073 63.8351C140.471 60.6365 144.069 72.5739 141.67 75.8685" stroke="#808080" stroke-width="1.33333" stroke-linecap="round" stroke-linejoin="round"/>
<path d="M175.907 60.7703C175.907 60.7703 175.06 61.1435 173.626 61.6595" stroke="#808080" stroke-width="1.33333" stroke-linecap="round" stroke-linejoin="round"/>
<path d="M163.169 68.3099C162.604 68.1371 162.012 67.9356 161.396 67.7053" stroke="#808080" stroke-width="1.33333" stroke-linecap="round" stroke-linejoin="round"/>
<path d="M174.733 66.901C174.733 66.901 172.48 70.394 165.199 68.8394" stroke="#808080" stroke-width="1.33333" stroke-linecap="round" stroke-linejoin="round"/>
<path d="M147.657 73.7384C147.209 76.7718 146.061 81.171 143.137 85.1597" stroke="#808080" stroke-width="1.33333" stroke-linecap="round" stroke-linejoin="round"/>
<path d="M147.935 69.9664C147.935 69.9664 147.962 70.6829 147.869 71.8739" stroke="#808080" stroke-width="1.33333" stroke-linecap="round" stroke-linejoin="round"/>
<g opacity="0.300003">
<g opacity="0.300003">
<path opacity="0.300003" d="M138.451 184.343C139.309 185.111 138.81 186.527 137.658 186.533C130.459 186.566 111.034 186.614 103.501 186.185C94.1717 185.652 101.292 175.5 108.794 179.376C115.707 182.949 130.25 177.001 138.451 184.343Z" fill="black"/>
</g>
</g>
<path d="M219.644 174.348C219.644 174.348 215.286 162.737 204.348 164.58C193.298 166.442 201.769 175.581 207.028 176.398C207.028 176.398 207.827 173.21 219.644 174.348Z" fill="white"/>
<path d="M219.644 174.348C219.644 174.348 215.286 162.737 204.348 164.58C193.298 166.442 201.769 175.581 207.028 176.398C207.028 176.398 207.827 173.21 219.644 174.348Z" stroke="#1A2E35" stroke-width="1.33333" stroke-miterlimit="10" stroke-linecap="round" stroke-linejoin="round"/>
<path d="M228.907 180.936C230.35 182.38 233.813 182.503 231.484 179.376C228.907 175.916 226.002 174.756 224.02 173.871C218.831 171.555 216.808 172.019 212.114 170.99C207.419 169.962 206.542 171.871 204.917 172.761C201.049 174.882 200.119 175.25 199.141 177.382C198.165 179.515 197.098 182.29 200.119 182.29C202.873 182.29 203.051 177.737 205.717 177.915C208.382 178.092 209.715 182.29 211.581 182.29H212.292C213.891 182.29 213.978 180.959 212.999 178.868C212.02 176.777 210.959 174.894 210.959 174.894C210.959 174.894 213.277 175.949 214.558 178.67C215.837 181.391 216.073 182.537 218.425 182.537C220.777 182.537 220.615 180.79 218.275 176.931C218.275 176.931 220.382 178.089 221.535 180.267C222.688 182.447 223.288 182.29 224.799 182.29C226.774 182.29 226.641 179.025 223.131 176.893C223.131 176.893 223.909 175.939 228.907 180.936Z" fill="white"/>
<path d="M228.907 180.936C230.35 182.38 233.813 182.503 231.484 179.376C228.907 175.916 226.002 174.756 224.02 173.871C218.831 171.555 216.808 172.019 212.114 170.99C207.419 169.962 206.542 171.871 204.917 172.761C201.049 174.882 200.119 175.25 199.141 177.382C198.165 179.515 197.098 182.29 200.119 182.29C202.873 182.29 203.051 177.737 205.717 177.915C208.382 178.092 209.715 182.29 211.581 182.29H212.292C213.891 182.29 213.978 180.959 212.999 178.868C212.02 176.777 210.959 174.894 210.959 174.894C210.959 174.894 213.277 175.949 214.558 178.67C215.837 181.391 216.073 182.537 218.425 182.537C220.777 182.537 220.615 180.79 218.275 176.931C218.275 176.931 220.382 178.089 221.535 180.267C222.688 182.447 223.288 182.29 224.799 182.29C226.774 182.29 226.641 179.025 223.131 176.893C223.131 176.893 223.909 175.939 228.907 180.936Z" stroke="#1A2E35" stroke-width="1.33333" stroke-miterlimit="10" stroke-linecap="round" stroke-linejoin="round"/>
<path d="M215.199 173.139C215.199 173.139 216.579 173.073 217.445 175.405L215.199 173.139Z" fill="white"/>
<path d="M215.199 173.139C215.199 173.139 216.579 173.073 217.445 175.405" stroke="#1A2E35" stroke-miterlimit="10" stroke-linecap="round" stroke-linejoin="round"/>
<path d="M40 72.7538C33.1986 78.0998 26.6424 83.9064 20.3731 90.1758" stroke="#1A2E35" stroke-miterlimit="10" stroke-linecap="round" stroke-linejoin="round"/>
<path d="M47.4395 67.1594C46.1355 68.0966 44.84 69.0498 43.5531 70.019" stroke="#1A2E35" stroke-miterlimit="10" stroke-linecap="round" stroke-linejoin="round"/>
<path d="M54.8694 62.0479C53.5323 62.9275 52.2028 63.8231 50.8817 64.7347" stroke="#1A2E35" stroke-miterlimit="10" stroke-linecap="round" stroke-linejoin="round"/>
<path d="M109.416 36.2447C91.9786 41.6792 75.0886 49.3549 59.1988 59.2739" stroke="#1A2E35" stroke-miterlimit="10" stroke-linecap="round" stroke-linejoin="round"/>
<path d="M121.063 32.9674C118.904 33.5101 116.752 34.0869 114.605 34.6979" stroke="#1A2E35" stroke-miterlimit="10" stroke-linecap="round" stroke-linejoin="round"/>
<path d="M133.041 30.3102C130.697 30.7612 128.36 31.2516 126.031 31.7794" stroke="#1A2E35" stroke-miterlimit="10" stroke-linecap="round" stroke-linejoin="round"/>
<path d="M143.717 28.5281C141.695 28.815 139.678 29.1284 137.663 29.4717" stroke="#1A2E35" stroke-miterlimit="10" stroke-linecap="round" stroke-linejoin="round"/>
<path d="M208.023 28.9576C188.259 25.889 168.154 25.5457 148.314 27.9265" stroke="#1A2E35" stroke-miterlimit="10" stroke-linecap="round" stroke-linejoin="round"/>
<path d="M216.821 30.5081C215.006 30.1499 213.188 29.8151 211.366 29.5037" stroke="#1A2E35" stroke-miterlimit="10" stroke-linecap="round" stroke-linejoin="round"/>
<path d="M225.355 32.3713C223.539 31.9363 221.719 31.5258 219.895 31.1377" stroke="#1A2E35" stroke-miterlimit="10" stroke-linecap="round" stroke-linejoin="round"/>
<path d="M235.852 35.163C234 34.6203 232.141 34.1031 230.278 33.6106" stroke="#1A2E35" stroke-miterlimit="10" stroke-linecap="round" stroke-linejoin="round"/>
<path d="M299.302 65.6646C281.349 53.0778 261.921 43.5149 241.728 36.9748" stroke="#1A2E35" stroke-miterlimit="10" stroke-linecap="round" stroke-linejoin="round"/>
<path d="M307.874 71.9937C306.207 70.6982 304.523 69.4294 302.828 68.1894" stroke="#1A2E35" stroke-miterlimit="10" stroke-linecap="round" stroke-linejoin="round"/>
<path d="M316.47 79.0282C314.642 77.4534 312.793 75.9138 310.926 74.4083" stroke="#1A2E35" stroke-miterlimit="10" stroke-linecap="round" stroke-linejoin="round"/>
<path d="M328.474 90.1757C325.972 87.6744 323.425 85.2466 320.835 82.8924" stroke="#1A2E35" stroke-miterlimit="10" stroke-linecap="round" stroke-linejoin="round"/>
<path d="M245.094 51.2269C245.094 65.8757 256.97 77.7512 271.618 77.7512C286.268 77.7512 298.144 65.8757 298.144 51.2269C298.144 36.5771 286.268 24.7026 271.618 24.7026C256.97 24.7026 245.094 36.5771 245.094 51.2269Z" fill="#38BFF2"/>
<g opacity="0.300003">
<g opacity="0.300003">
<path opacity="0.300003" d="M245.501 50.5931C245.501 65.2418 257.377 77.1174 272.026 77.1174C286.675 77.1174 298.551 65.2418 298.551 50.5931C298.551 35.9432 286.675 24.0687 272.026 24.0687C257.377 24.0687 245.501 35.9432 245.501 50.5931Z" fill="white"/>
</g>
</g>
<path d="M245.095 51.227C245.095 65.8757 256.97 77.7513 271.619 77.7513C286.269 77.7513 298.144 65.8757 298.144 51.227C298.144 36.5771 286.269 24.7027 271.619 24.7027C256.97 24.7027 245.095 36.5771 245.095 51.227Z" stroke="#1A2E35" stroke-miterlimit="10" stroke-linecap="round" stroke-linejoin="round"/>
<path d="M323.016 125.897H338.319C345.361 125.897 351.069 120.189 351.069 113.147V97.8438C351.069 90.8025 345.361 85.094 338.319 85.094H323.016C315.975 85.094 310.266 90.8025 310.266 97.8438V113.147C310.266 120.189 315.975 125.897 323.016 125.897Z" fill="#38BFF2"/>
<path d="M323.016 125.897H338.319C345.361 125.897 351.069 120.189 351.069 113.147V97.8438C351.069 90.8025 345.361 85.094 338.319 85.094H323.016C315.975 85.094 310.266 90.8025 310.266 97.8438V113.147C310.266 120.189 315.975 125.897 323.016 125.897Z" stroke="#1A2E35" stroke-miterlimit="10" stroke-linecap="round" stroke-linejoin="round"/>
<path d="M345.454 106.482V104.51L337.296 100.991V103.124L342.921 105.496L337.296 107.868V110.001L345.454 106.482Z" fill="white"/>
<path d="M345.454 106.482V104.51L337.296 100.991V103.124L342.921 105.496L337.296 107.868V110.001L345.454 106.482Z" stroke="#1A2E35" stroke-miterlimit="10" stroke-linecap="round" stroke-linejoin="round"/>
<path d="M328.256 96.1663H325.724L333.081 114.825H335.612L328.256 96.1663Z" fill="white"/>
<path d="M328.256 96.1663H325.724L333.081 114.825H335.612L328.256 96.1663Z" stroke="#1A2E35" stroke-miterlimit="10" stroke-linecap="round" stroke-linejoin="round"/>
<path d="M324.039 107.868L318.414 105.496L324.039 103.124V100.991L315.882 104.51V106.482L324.039 110.001V107.868Z" fill="white"/>
<path d="M324.039 107.868L318.414 105.496L324.039 103.124V100.991L315.882 104.51V106.482L324.039 110.001V107.868Z" stroke="#1A2E35" stroke-miterlimit="10" stroke-linecap="round" stroke-linejoin="round"/>
<path d="M60.7948 45.2253C60.7948 57.7289 70.9313 67.8654 83.4338 67.8654C95.9384 67.8654 106.075 57.7289 106.075 45.2253C106.075 32.7207 95.9384 22.5853 83.4338 22.5853C70.9313 22.5853 60.7948 32.7207 60.7948 45.2253Z" fill="#38BFF2"/>
<g opacity="0.199997">
<g opacity="0.199997">
<path opacity="0.199997" d="M60.6476 45.6644C60.6476 58.168 70.7841 68.3045 83.2866 68.3045C95.7912 68.3045 105.928 58.168 105.928 45.6644C105.928 33.1598 95.7912 23.0244 83.2866 23.0244C70.7841 23.0244 60.6476 33.1598 60.6476 45.6644Z" fill="black"/>
</g>
</g>
<path d="M60.7948 45.2254C60.7948 57.7289 70.9313 67.8655 83.4338 67.8655C95.9384 67.8655 106.075 57.7289 106.075 45.2254C106.075 32.7208 95.9384 22.5853 83.4338 22.5853C70.9313 22.5853 60.7948 32.7208 60.7948 45.2254Z" stroke="#1A2E35" stroke-miterlimit="10" stroke-linecap="round" stroke-linejoin="round"/>
<path d="M170.218 50.4576H190.675C198.683 50.4576 205.175 43.9654 205.175 35.9571V15.5006C205.175 7.49226 198.683 1.00005 190.675 1.00005H170.218C162.209 1.00005 155.717 7.49226 155.717 15.5006V35.9571C155.717 43.9654 162.209 50.4576 170.218 50.4576Z" fill="#38BFF2"/>
<path d="M170.218 50.4576H190.675C198.683 50.4576 205.175 43.9654 205.175 35.9571V15.5006C205.175 7.49225 198.683 1.00005 190.675 1.00005H170.218C162.209 1.00005 155.717 7.49225 155.717 15.5006V35.9571C155.717 43.9654 162.209 50.4576 170.218 50.4576Z" stroke="#1A2E35" stroke-miterlimit="10" stroke-linecap="round" stroke-linejoin="round"/>
<path d="M1.00006 93.1079C1.00006 105.579 11.1089 115.689 23.5815 115.689C36.0531 115.689 46.1619 105.579 46.1619 93.1079C46.1619 80.6363 36.0531 70.5265 23.5815 70.5265C11.1089 70.5265 1.00006 80.6363 1.00006 93.1079Z" fill="#38BFF2"/>
<g opacity="0.300003">
<g opacity="0.300003">
<path opacity="0.300003" d="M1.59357 93.5641C1.59357 106.036 11.7024 116.146 24.175 116.146C36.6466 116.146 46.7554 106.036 46.7554 93.5641C46.7554 81.0925 36.6466 70.9826 24.175 70.9826C11.7024 70.9826 1.59357 81.0925 1.59357 93.5641Z" fill="white"/>
</g>
</g>
<path d="M1.0008 93.1077C1.0008 105.579 11.1096 115.689 23.5822 115.689C36.0538 115.689 46.1626 105.579 46.1626 93.1077C46.1626 80.6362 36.0538 70.5263 23.5822 70.5263C11.1096 70.5263 1.0008 80.6362 1.0008 93.1077Z" stroke="#1A2E35" stroke-miterlimit="10" stroke-linecap="round" stroke-linejoin="round"/>
<path d="M290.53 353.137H294.482L295.548 196.131H290.53V353.137Z" fill="#868686"/>
<path d="M290.53 353.137H294.482L295.548 196.131H290.53V353.137Z" stroke="#1A2E35" stroke-width="1.33333" stroke-miterlimit="10" stroke-linecap="round" stroke-linejoin="round"/>
<path d="M286.579 353.137H290.531V196.131H285.513L286.579 353.137Z" fill="#9A9A9A"/>
<path d="M286.579 353.137H290.531V196.131H285.513L286.579 353.137Z" stroke="#1A2E35" stroke-width="1.33333" stroke-miterlimit="10" stroke-linecap="round" stroke-linejoin="round"/>
<path d="M64.75 196.131H335.789V186.518H64.75V196.131Z" fill="#1A2E35" stroke="#1A2E35" stroke-width="1.33333" stroke-miterlimit="10" stroke-linecap="round" stroke-linejoin="round"/>
<path d="M8.10489 196.131H68.793V186.518H8.10489V196.131Z" fill="#868686" stroke="#1A2E35" stroke-width="1.33333" stroke-miterlimit="10" stroke-linecap="round" stroke-linejoin="round"/>
<path d="M52.4501 211.979H321.908V196.13H52.4501V211.979Z" fill="#38BFF2" stroke="#1A2E35" stroke-width="1.33333" stroke-miterlimit="10"/>
<path d="M52.4502 211.979H21.0735V196.13H52.4502V211.979Z" fill="#38BFF2"/>
<g opacity="0.300003">
<path opacity="0.300003" d="M52.4495 211.979H21.0728V196.131H52.4495V211.979Z" fill="black"/>
</g>
<path d="M52.4502 211.979H21.0735V196.13H52.4502V211.979Z" stroke="#1A2E35" stroke-width="1.33333" stroke-miterlimit="10"/>
<path d="M52.4493 353.137H56.3996L57.4658 196.131H52.4493V353.137Z" fill="#868686"/>
<path d="M52.4493 353.137H56.3996L57.4658 196.131H52.4493V353.137Z" stroke="#1A2E35" stroke-width="1.33333" stroke-miterlimit="10" stroke-linecap="round" stroke-linejoin="round"/>
<path d="M48.4981 353.137H52.4495V196.131H47.4318L48.4981 353.137Z" fill="#9A9A9A"/>
<path d="M48.4981 353.137H52.4495V196.131H47.4318L48.4981 353.137Z" stroke="#1A2E35" stroke-width="1.33333" stroke-miterlimit="10" stroke-linecap="round" stroke-linejoin="round"/>
<path d="M321.907 353.137H325.859L326.925 196.131H321.907V353.137Z" fill="#868686"/>
<path d="M321.907 353.137H325.859L326.925 196.131H321.907V353.137Z" stroke="#1A2E35" stroke-width="1.33333" stroke-miterlimit="10" stroke-linecap="round" stroke-linejoin="round"/>
<path d="M317.955 353.137H321.907V196.131H316.889L317.955 353.137Z" fill="#9A9A9A"/>
<path d="M317.955 353.137H321.907V196.131H316.889L317.955 353.137Z" stroke="#1A2E35" stroke-width="1.33333" stroke-miterlimit="10" stroke-linecap="round" stroke-linejoin="round"/>
<path d="M21.0733 353.137H25.0236L26.0898 196.131H21.0733V353.137Z" fill="#868686"/>
<path d="M21.0733 353.137H25.0236L26.0898 196.131H21.0733V353.137Z" stroke="#1A2E35" stroke-width="1.33333" stroke-miterlimit="10" stroke-linecap="round" stroke-linejoin="round"/>
<path d="M17.1218 353.137H21.0732V196.131H16.0556L17.1218 353.137Z" fill="#9A9A9A"/>
<path d="M17.1218 353.137H21.0732V196.131H16.0556L17.1218 353.137Z" stroke="#1A2E35" stroke-width="1.33333" stroke-miterlimit="10" stroke-linecap="round" stroke-linejoin="round"/>
<path d="M160.638 185.452H192.404C193.053 185.452 193.58 184.925 193.58 184.275V181.653L159.461 182.719V184.275C159.461 184.925 159.989 185.452 160.638 185.452Z" fill="#868686"/>
<path d="M160.638 185.452H192.404C193.053 185.452 193.58 184.925 193.58 184.275V181.653L159.461 182.719V184.275C159.461 184.925 159.989 185.452 160.638 185.452Z" stroke="#1A2E35" stroke-width="1.33333" stroke-miterlimit="10" stroke-linecap="round" stroke-linejoin="round"/>
<path d="M197.124 185.452H260.984C262.007 185.452 263.005 184.694 263.316 183.68L277.024 139.176C277.4 137.955 276.641 136.872 275.411 136.872H211.549C210.527 136.872 209.529 137.63 209.217 138.644L195.509 183.148C195.133 184.368 195.892 185.452 197.124 185.452Z" fill="#9A9A9A"/>
<path d="M197.124 185.452H260.984C262.007 185.452 263.005 184.694 263.316 183.68L277.024 139.176C277.4 137.955 276.641 136.872 275.411 136.872H211.549C210.527 136.872 209.529 137.63 209.217 138.644L195.509 183.148C195.133 184.368 195.892 185.452 197.124 185.452Z" stroke="#1A2E35" stroke-width="1.33333" stroke-miterlimit="10" stroke-linecap="round" stroke-linejoin="round"/>
<path d="M192.64 183.148L206.348 138.644C206.66 137.63 207.658 136.872 208.681 136.872H211.55C210.527 136.872 209.529 137.63 209.217 138.644L195.51 183.148C195.133 184.368 195.892 185.452 197.124 185.452H194.255C193.023 185.452 192.264 184.368 192.64 183.148Z" fill="#868686"/>
<path d="M192.64 183.148L206.348 138.644C206.66 137.63 207.658 136.872 208.681 136.872H211.55C210.527 136.872 209.529 137.63 209.217 138.644L195.51 183.148C195.133 184.368 195.892 185.452 197.124 185.452H194.255C193.023 185.452 192.264 184.368 192.64 183.148Z" stroke="#1A2E35" stroke-width="1.33333" stroke-miterlimit="10" stroke-linecap="round" stroke-linejoin="round"/>
<path d="M232.317 161.161C232.049 163.343 233.6 165.112 235.782 165.112C237.963 165.112 239.95 163.343 240.217 161.161C240.485 158.98 238.934 157.211 236.752 157.211C234.571 157.211 232.584 158.98 232.317 161.161Z" fill="white"/>
<path d="M232.317 161.161C232.049 163.343 233.6 165.112 235.782 165.112C237.963 165.112 239.95 163.343 240.217 161.161C240.485 158.98 238.934 157.211 236.752 157.211C234.571 157.211 232.584 158.98 232.317 161.161Z" stroke="#1A2E35" stroke-width="1.33333" stroke-miterlimit="10" stroke-linecap="round" stroke-linejoin="round"/>
<path d="M87.322 53.0355H87.7346C88.6367 53.0355 89.1003 52.6237 89.1003 51.2069V47.3405C89.1003 46.4125 89.4353 45.4335 90.6724 45.0726V45.0216C89.4353 44.6608 89.1003 43.6803 89.1003 42.753V38.8873C89.1003 37.4698 88.6367 37.058 87.7346 37.058H87.322V34.7376H88.7654C90.3625 34.7376 91.6262 35.6397 91.6262 37.5992V42.3404C91.6262 43.5265 91.9604 43.8873 93.2493 43.8873V46.2062C91.9604 46.2062 91.6262 46.567 91.6262 47.7523V52.495C91.6262 54.453 90.3625 55.3551 88.7654 55.3551H87.322V53.0355Z" fill="white"/>
<path d="M87.0435 53.3069H87.4817C88.4397 53.3069 88.9321 52.8793 88.9321 51.4087V47.3949C88.9321 46.4316 89.2878 45.4153 90.6016 45.0408V44.9878C89.2878 44.6132 88.9321 43.5954 88.9321 42.6328V38.6199C88.9321 37.1485 88.4397 36.7209 87.4817 36.7209H87.0435V34.3122H88.5763C90.2725 34.3122 91.6146 35.2487 91.6146 37.2828V42.2045C91.6146 43.4358 91.9696 43.8103 93.3383 43.8103V46.2175C91.9696 46.2175 91.6146 46.592 91.6146 47.8225V52.7458C91.6146 54.7783 90.2725 55.7148 88.5763 55.7148H87.0435V53.3069Z" stroke="#1A2E35" stroke-miterlimit="10" stroke-linecap="round" stroke-linejoin="round"/>
<path d="M80.4707 53.0355H80.0581C79.156 53.0355 78.6924 52.6237 78.6924 51.2069V47.3405C78.6924 46.4125 78.3574 45.4335 77.1204 45.0726V45.0216C78.3574 44.6608 78.6924 43.6803 78.6924 42.753V38.8873C78.6924 37.4698 79.156 37.058 80.0581 37.058H80.4707V34.7376H79.0273C77.4302 34.7376 76.1665 35.6397 76.1665 37.5992V42.3404C76.1665 43.5265 75.8323 43.8873 74.5435 43.8873V46.2062C75.8323 46.2062 76.1665 46.567 76.1665 47.7523V52.495C76.1665 54.453 77.4302 55.3551 79.0273 55.3551H80.4707V53.0355Z" fill="white"/>
<path d="M80.7488 53.3069H80.3106C79.3525 53.3069 78.8602 52.8793 78.8602 51.4087V47.3949C78.8602 46.4316 78.5044 45.4153 77.1906 45.0408V44.9878C78.5044 44.6132 78.8602 43.5954 78.8602 42.6328V38.6199C78.8602 37.1485 79.3525 36.7209 80.3106 36.7209H80.7488V34.3122H79.2159C77.5197 34.3122 76.1776 35.2487 76.1776 37.2828V42.2045C76.1776 43.4358 75.8227 43.8103 74.4539 43.8103V46.2175C75.8227 46.2175 76.1776 46.592 76.1776 47.8225V52.7458C76.1776 54.7783 77.5197 55.7148 79.2159 55.7148H80.7488V53.3069Z" stroke="#1A2E35" stroke-miterlimit="10" stroke-linecap="round" stroke-linejoin="round"/>
<mask id="path-192-outside-1_88_14" maskUnits="userSpaceOnUse" x="173.021" y="19.2898" width="20" height="20" fill="black">
<rect fill="white" x="173.021" y="19.2898" width="20" height="20"/>
<path fill-rule="evenodd" clip-rule="evenodd" d="M185.382 32.9212V35.662C185.382 37.5289 182.156 38.0055 180.377 38.0055H177.199C175.703 37.8996 174.021 37.4097 174.021 35.662V31.6635C174.021 28.9578 176.215 26.7644 178.92 26.7644H179.861C183.436 26.7644 186.335 23.8656 186.335 20.2898H189.195C189.976 20.4752 191.539 21.8469 191.539 25.8508C191.539 30.2375 186.949 31.7296 182.562 31.7296H179.662V32.7226H185.382V32.9212ZM183.396 36.0195C183.747 36.0195 184.032 35.735 184.032 35.384C184.032 35.033 183.747 34.7484 183.396 34.7484C183.045 34.7484 182.761 35.033 182.761 35.384C182.761 35.735 183.045 36.0195 183.396 36.0195Z"/>
</mask>
<path fill-rule="evenodd" clip-rule="evenodd" d="M185.382 32.9212V35.662C185.382 37.5289 182.156 38.0055 180.377 38.0055H177.199C175.703 37.8996 174.021 37.4097 174.021 35.662V31.6635C174.021 28.9578 176.215 26.7644 178.92 26.7644H179.861C183.436 26.7644 186.335 23.8656 186.335 20.2898H189.195C189.976 20.4752 191.539 21.8469 191.539 25.8508C191.539 30.2375 186.949 31.7296 182.562 31.7296H179.662V32.7226H185.382V32.9212ZM183.396 36.0195C183.747 36.0195 184.032 35.735 184.032 35.384C184.032 35.033 183.747 34.7484 183.396 34.7484C183.045 34.7484 182.761 35.033 182.761 35.384C182.761 35.735 183.045 36.0195 183.396 36.0195Z" fill="white"/>
<path d="M177.199 38.0055L177.129 39.003L177.164 39.0055H177.199V38.0055ZM186.335 20.2898V19.2898H185.335V20.2898H186.335ZM189.195 20.2898L189.426 19.3168L189.312 19.2898H189.195V20.2898ZM179.662 31.7296V30.7296H178.662V31.7296H179.662ZM179.662 32.7226H178.662V33.7226H179.662V32.7226ZM185.382 32.7226H186.382V31.7226H185.382V32.7226ZM186.382 35.662V32.9212H184.382V35.662H186.382ZM180.377 39.0055C181.329 39.0055 182.701 38.8808 183.871 38.4798C184.951 38.1098 186.382 37.3038 186.382 35.662H184.382C184.382 35.887 184.2 36.2528 183.222 36.5878C182.335 36.8919 181.204 37.0055 180.377 37.0055V39.0055ZM177.199 39.0055H180.377V37.0055H177.199V39.0055ZM173.021 35.662C173.021 36.9386 173.674 37.8049 174.546 38.3133C175.351 38.7827 176.328 38.9463 177.129 39.003L177.27 37.008C176.575 36.9588 175.963 36.8245 175.553 36.5856C175.21 36.3856 175.021 36.1331 175.021 35.662H173.021ZM173.021 31.6635V35.662H175.021V31.6635H173.021ZM178.92 25.7644C175.663 25.7644 173.021 28.4056 173.021 31.6635H175.021C175.021 29.5101 176.767 27.7644 178.92 27.7644V25.7644ZM179.861 25.7644H178.92V27.7644H179.861V25.7644ZM185.335 20.2898C185.335 23.3133 182.884 25.7644 179.861 25.7644V27.7644C183.989 27.7644 187.335 24.4179 187.335 20.2898H185.335ZM189.195 19.2898H186.335V21.2898H189.195V19.2898ZM192.539 25.8508C192.539 21.6734 190.889 19.6641 189.426 19.3168L188.964 21.2628C188.964 21.2628 188.966 21.2632 188.97 21.2645C188.974 21.2657 188.979 21.2676 188.987 21.2704C189.001 21.2762 189.022 21.2852 189.047 21.2988C189.098 21.3263 189.166 21.3701 189.244 21.4368C189.401 21.5699 189.597 21.7887 189.788 22.1292C190.172 22.81 190.539 23.9741 190.539 25.8508H192.539ZM182.562 32.7296C184.843 32.7296 187.273 32.3457 189.173 31.3139C191.125 30.2531 192.539 28.4796 192.539 25.8508H190.539C190.539 27.6087 189.657 28.7746 188.218 29.5565C186.725 30.3674 184.668 30.7296 182.562 30.7296V32.7296ZM179.662 32.7296H182.562V30.7296H179.662V32.7296ZM180.662 32.7226V31.7296H178.662V32.7226H180.662ZM185.382 31.7226H179.662V33.7226H185.382V31.7226ZM186.382 32.9212V32.7226H184.382V32.9212H186.382ZM183.032 35.384C183.032 35.1827 183.195 35.0195 183.396 35.0195V37.0195C184.299 37.0195 185.032 36.2873 185.032 35.384H183.032ZM183.396 35.7484C183.195 35.7484 183.032 35.5853 183.032 35.384H185.032C185.032 34.4807 184.299 33.7484 183.396 33.7484V35.7484ZM183.761 35.384C183.761 35.5853 183.597 35.7484 183.396 35.7484V33.7484C182.493 33.7484 181.761 34.4807 181.761 35.384H183.761ZM183.396 35.0195C183.597 35.0195 183.761 35.1827 183.761 35.384H181.761C181.761 36.2873 182.493 37.0195 183.396 37.0195V35.0195Z" fill="#1A2E35" mask="url(#path-192-outside-1_88_14)"/>
<mask id="path-194-outside-2_88_14" maskUnits="userSpaceOnUse" x="166.223" y="12.9679" width="20" height="20" fill="black">
<rect fill="white" x="166.223" y="12.9679" width="20" height="20"/>
<path fill-rule="evenodd" clip-rule="evenodd" d="M173.863 19.3366L173.863 16.5958C173.863 14.7289 177.088 14.2522 178.868 14.2522L182.045 14.2522C183.542 14.3582 185.223 14.8481 185.223 16.5958L185.223 20.5943C185.223 23.2999 183.03 25.4934 180.324 25.4934L179.384 25.4934C175.808 25.4934 172.91 28.3921 172.91 31.9679L170.05 31.9679C169.268 31.7826 167.706 30.4109 167.706 26.4069C167.706 22.0202 172.296 20.5282 176.683 20.5282L179.583 20.5282L179.583 19.5352L173.863 19.5352L173.863 19.3366ZM175.849 16.2383C175.498 16.2383 175.213 16.5229 175.213 16.8738C175.213 17.2248 175.498 17.5094 175.849 17.5094C176.2 17.5094 176.484 17.2248 176.484 16.8739C176.484 16.5229 176.2 16.2383 175.849 16.2383Z"/>
</mask>
<path fill-rule="evenodd" clip-rule="evenodd" d="M173.863 19.3366L173.863 16.5958C173.863 14.7289 177.088 14.2522 178.868 14.2522L182.045 14.2522C183.542 14.3582 185.223 14.8481 185.223 16.5958L185.223 20.5943C185.223 23.2999 183.03 25.4934 180.324 25.4934L179.384 25.4934C175.808 25.4934 172.91 28.3921 172.91 31.9679L170.05 31.9679C169.268 31.7826 167.706 30.4109 167.706 26.4069C167.706 22.0202 172.296 20.5282 176.683 20.5282L179.583 20.5282L179.583 19.5352L173.863 19.5352L173.863 19.3366ZM175.849 16.2383C175.498 16.2383 175.213 16.5229 175.213 16.8738C175.213 17.2248 175.498 17.5094 175.849 17.5094C176.2 17.5094 176.484 17.2248 176.484 16.8739C176.484 16.5229 176.2 16.2383 175.849 16.2383Z" fill="white"/>
<path d="M173.863 16.5958L172.863 16.5958L173.863 16.5958ZM173.863 19.3366L174.863 19.3366L173.863 19.3366ZM182.045 14.2522L182.116 13.2547L182.081 13.2522L182.045 13.2522L182.045 14.2522ZM185.223 16.5958L186.223 16.5958L185.223 16.5958ZM185.223 20.5943L184.223 20.5943L185.223 20.5943ZM172.91 31.9679L172.91 32.9679L173.91 32.9679L173.91 31.9679L172.91 31.9679ZM170.05 31.9679L169.819 32.9409L169.933 32.9679L170.05 32.9679L170.05 31.9679ZM179.583 20.5282L179.583 21.5282L180.583 21.5282L180.583 20.5282L179.583 20.5282ZM179.583 19.5352L180.583 19.5352L180.583 18.5352L179.583 18.5352L179.583 19.5352ZM173.863 19.5352L172.863 19.5352L172.863 20.5352L173.863 20.5352L173.863 19.5352ZM172.863 16.5958L172.863 19.3366L174.863 19.3366L174.863 16.5958L172.863 16.5958ZM178.868 13.2522C177.915 13.2522 176.544 13.3769 175.374 13.7779C174.294 14.1479 172.863 14.9539 172.863 16.5958L174.863 16.5958C174.863 16.3708 175.044 16.005 176.022 15.6699C176.909 15.3659 178.041 15.2522 178.868 15.2522L178.868 13.2522ZM182.045 13.2522L178.868 13.2522L178.868 15.2522L182.045 15.2522L182.045 13.2522ZM186.223 16.5958C186.223 15.3192 185.571 14.4528 184.699 13.9445C183.894 13.475 182.917 13.3114 182.116 13.2547L181.975 15.2497C182.67 15.299 183.282 15.4333 183.692 15.6722C184.035 15.8722 184.223 16.1246 184.223 16.5958L186.223 16.5958ZM186.223 20.5943L186.223 16.5958L184.223 16.5958L184.223 20.5943L186.223 20.5943ZM180.324 26.4934C183.582 26.4934 186.223 23.8522 186.223 20.5943L184.223 20.5943C184.223 22.7477 182.477 24.4934 180.324 24.4934L180.324 26.4934ZM179.384 26.4934L180.324 26.4934L180.324 24.4934L179.384 24.4934L179.384 26.4934ZM173.91 31.9679C173.91 28.9444 176.361 26.4934 179.384 26.4934L179.384 24.4934C175.256 24.4934 171.91 27.8398 171.91 31.9679L173.91 31.9679ZM170.05 32.9679L172.91 32.9679L172.91 30.9679L170.05 30.9679L170.05 32.9679ZM166.706 26.4069C166.706 30.5844 168.355 32.5937 169.819 32.9409L170.28 30.9949C170.281 30.995 170.279 30.9945 170.275 30.9933C170.271 30.9921 170.265 30.9901 170.258 30.9873C170.243 30.9816 170.223 30.9725 170.198 30.9589C170.147 30.9315 170.079 30.8877 170 30.821C169.843 30.6878 169.648 30.469 169.456 30.1285C169.073 29.4478 168.706 28.2836 168.706 26.4069L166.706 26.4069ZM176.683 19.5282C174.402 19.5282 171.971 19.9121 170.072 20.9439C168.12 22.0046 166.706 23.7781 166.706 26.4069L168.706 26.4069C168.706 24.6491 169.588 23.4832 171.027 22.7012C172.519 21.8903 174.577 21.5282 176.683 21.5282L176.683 19.5282ZM179.583 19.5282L176.683 19.5282L176.683 21.5282L179.583 21.5282L179.583 19.5282ZM178.583 19.5352L178.583 20.5282L180.583 20.5282L180.583 19.5352L178.583 19.5352ZM173.863 20.5352L179.583 20.5352L179.583 18.5352L173.863 18.5352L173.863 20.5352ZM172.863 19.3366L172.863 19.5352L174.863 19.5352L174.863 19.3366L172.863 19.3366ZM176.213 16.8739C176.213 17.0751 176.05 17.2383 175.849 17.2383L175.849 15.2383C174.946 15.2383 174.213 15.9706 174.213 16.8738L176.213 16.8739ZM175.849 16.5094C176.05 16.5094 176.213 16.6726 176.213 16.8739L174.213 16.8738C174.213 17.7771 174.946 18.5094 175.849 18.5094L175.849 16.5094ZM175.484 16.8738C175.484 16.6726 175.648 16.5094 175.849 16.5094L175.849 18.5094C176.752 18.5094 177.484 17.7771 177.484 16.8739L175.484 16.8738ZM175.849 17.2383C175.648 17.2383 175.484 17.0751 175.484 16.8738L177.484 16.8739C177.484 15.9706 176.752 15.2383 175.849 15.2383L175.849 17.2383Z" fill="#1A2E35" mask="url(#path-194-outside-2_88_14)"/>
<rect x="14.782" y="82.9123" width="18.6256" height="4.77692" rx="1.5" fill="white" stroke="#1A2E35"/>
<rect x="14.782" y="90.4662" width="18.6256" height="6.0359" rx="1.5" fill="white" stroke="#1A2E35"/>
<rect x="14.782" y="99.279" width="18.6256" height="4.77692" rx="1.5" fill="white" stroke="#1A2E35"/>
<path d="M258.311 50.2358C258.192 50.7807 258.3 51.2714 258.639 51.7335M258.311 50.2358L275.697 47.2572L274.203 45.7557M258.311 50.2358L258.402 49.8168M258.311 50.2358L258.402 49.8168M258.639 51.7335C259.08 52.3349 271.037 64.1898 271.379 64.3651C271.742 64.551 272.335 64.5812 272.778 64.4363M258.639 51.7335L259.042 51.4377C259.042 51.4377 259.042 51.4377 259.042 51.4377C259.042 51.4377 259.042 51.4377 259.042 51.4377L258.639 51.7335ZM272.778 64.4363C273.016 64.3583 274.191 63.2203 279.364 58.0581C284.191 53.2413 285.695 51.6987 285.81 51.4485C286.018 50.9954 286.012 50.3564 285.795 49.9256M272.778 64.4363L272.622 63.9611C272.593 63.9708 272.575 63.9808 272.575 63.9808C272.575 63.9807 272.58 63.978 272.59 63.9711M272.778 64.4363L272.622 63.961C272.612 63.9645 272.601 63.9679 272.59 63.9711M285.795 49.9256C285.572 49.4827 273.266 37.169 272.863 36.9862M285.795 49.9256L285.348 50.1502C285.348 50.1502 285.348 50.1502 285.348 50.1502L285.795 49.9256ZM272.863 36.9862C272.514 36.8278 271.922 36.7824 271.545 36.8853M272.863 36.9862L272.657 37.4415C272.657 37.4415 272.657 37.4415 272.657 37.4415L272.863 36.9862ZM271.545 36.8853C271.31 36.9496 270.984 37.2338 269.806 38.403M271.545 36.8853L271.677 37.3676M271.545 36.8853L271.677 37.3676M269.806 38.403L268.711 39.4896L269.064 39.8435M269.806 38.403L270.158 38.7579C270.749 38.1715 271.114 37.8195 271.358 37.6066C271.605 37.3912 271.674 37.3684 271.677 37.3676M269.806 38.403L270.158 38.758L269.064 39.8435M269.064 39.8435L268.709 40.1957L269.937 41.4256L271.517 43.0094M269.064 39.8435L270.291 41.0724L271.681 42.4655M271.517 43.0094L271.869 42.9373C273.206 42.6633 274.567 44.0415 274.283 45.3815L274.203 45.7557M271.517 43.0094L271.417 42.5196L271.681 42.4655M271.517 43.0094L271.822 42.7057L271.871 42.6562L271.796 42.5809L271.681 42.4655M274.203 45.7557L274.527 45.4334L274.558 45.403L274.604 45.4497L274.749 45.5948M274.203 45.7557L274.692 45.8596L274.749 45.5948M277.384 48.2429L277.702 48.2194C277.702 48.2194 277.702 48.2194 277.702 48.2194C278.269 48.1774 278.795 48.271 279.251 48.5254C279.707 48.7803 280.057 49.1765 280.304 49.6786C280.492 50.0602 280.602 50.4363 280.601 50.8331C280.601 51.2299 280.491 51.6063 280.303 51.9884C279.338 53.9495 276.589 53.9615 275.623 51.9977L275.623 51.9976C275.524 51.7972 275.448 51.6201 275.401 51.4303L277.384 48.2429ZM277.384 48.2429L276.052 46.9045L274.749 45.5948M277.384 48.2429L271.677 37.3676M272.59 63.9711C272.441 64.0146 272.258 64.0348 272.074 64.0254C271.892 64.0161 271.741 63.98 271.638 63.935C271.638 63.9344 271.637 63.9338 271.636 63.9331C271.61 63.9111 271.572 63.8774 271.52 63.8306C271.418 63.7378 271.275 63.6042 271.096 63.434C270.737 63.0941 270.242 62.6161 269.655 62.0439C268.48 60.8998 266.941 59.3839 265.398 57.854C263.855 56.3243 262.309 54.7816 261.122 53.5843C260.529 52.9854 260.026 52.4739 259.658 52.094C259.474 51.9038 259.325 51.7481 259.216 51.6314C259.162 51.573 259.119 51.526 259.087 51.4902C259.058 51.4578 259.045 51.4422 259.042 51.4385C259.042 51.4377 259.042 51.4374 259.042 51.4376C258.785 51.0876 258.712 50.7427 258.8 50.3424L258.8 50.3423L258.86 50.0664L263.098 45.8188L267.086 41.8219L268.292 43.0273L268.292 43.0273C268.84 43.5749 269.219 43.9653 269.456 44.2259C269.527 44.305 269.582 44.3682 269.623 44.4176C269.617 44.4555 269.611 44.4918 269.607 44.5248C269.591 44.6517 269.581 44.7944 269.577 44.935C269.57 45.1974 269.582 45.5259 269.641 45.7461C269.794 46.314 270.238 46.9151 270.736 47.2377L271.008 46.8181L270.736 47.2377L270.864 47.321V50.8335V54.3399L270.738 54.4182C270.738 54.4182 270.738 54.4182 270.738 54.4182C269.642 55.0997 269.258 56.5436 269.814 57.7183L269.814 57.7183C270.27 58.683 271.129 59.2272 272.197 59.2296C272.423 59.2302 272.619 59.2233 272.821 59.1717C273.022 59.1206 273.2 59.0327 273.405 58.9229L273.169 58.4822L273.405 58.9229C275.08 58.0252 275.306 55.8503 273.867 54.6104C273.867 54.6104 273.867 54.6103 273.867 54.6103L273.677 54.4465L273.676 50.9416V48.4141L274.23 48.9678C274.908 49.6448 275.237 49.9782 275.394 50.1659C275.399 50.1712 275.403 50.1763 275.407 50.181C275.389 50.2626 275.377 50.3469 275.369 50.4172C275.353 50.5515 275.343 50.7051 275.342 50.85L271.677 37.3676L271.677 37.3676C271.794 37.3358 271.975 37.3209 272.177 37.3363C272.357 37.3501 272.514 37.3851 272.62 37.4261C272.647 37.448 272.686 37.482 272.739 37.5297C272.847 37.6253 272.995 37.7634 273.182 37.9398C273.554 38.292 274.067 38.7874 274.673 39.3803C275.885 40.5655 277.467 42.1343 279.043 43.7118C280.62 45.2893 282.19 46.8743 283.38 48.092C283.975 48.7012 284.473 49.2169 284.829 49.5934C285.007 49.7819 285.147 49.9331 285.245 50.0426C285.294 50.0977 285.33 50.139 285.353 50.1675C285.356 50.1713 285.359 50.1747 285.362 50.1776C285.492 50.4641 285.498 50.9125 285.363 51.2226M272.59 63.9711C272.597 63.9665 272.606 63.96 272.617 63.9512C272.667 63.9144 272.741 63.8535 272.849 63.758C273.064 63.5678 273.388 63.2636 273.873 62.7946C274.839 61.8582 276.424 60.286 279.011 57.7042C281.424 55.2956 283.005 53.708 283.996 52.6918C284.492 52.1831 284.837 51.8212 285.064 51.5725C285.177 51.4478 285.257 51.356 285.31 51.2909C285.343 51.2509 285.358 51.2295 285.363 51.2226M285.363 51.2226C285.361 51.2284 285.358 51.2342 285.356 51.2399C285.361 51.2273 285.365 51.2201 285.365 51.22C285.365 51.22 285.365 51.2208 285.363 51.2226ZM271.681 42.4655L271.769 42.4475C272.638 42.2694 273.477 42.6327 274.04 43.2028C274.603 43.7731 274.956 44.6167 274.772 45.4853L274.749 45.5948M258.402 49.8168L262.744 45.4656L266.732 41.4684L258.402 49.8168ZM275.452 50.0268C275.452 50.027 275.452 50.0272 275.452 50.0273L275.452 50.0266L275.452 50.0268Z" fill="white" stroke="#1A2E35"/>
</svg>
